<svg width="609" height="403" viewBox="0 0 609 403" fill="none" xmlns="http://www.w3.org/2000/svg">
<g clip-path="url(#clip0)">
<path d="M348.522 56.3988C352.049 56.8044 355.589 55.7718 358.469 53.4968C361.319 51.2243 363.741 48.3672 365.603 45.0829C368.882 39.6444 371.247 33.6028 372.584 27.2456C373.69 28.7066 375.137 29.8087 376.77 30.4333C378.402 31.0579 380.159 31.1813 381.85 30.7903C387.37 29.4278 390.68 22.3468 389.603 16.2405C388.527 10.1341 383.971 5.29286 378.771 2.8421C373.572 0.391349 367.778 -0.0134802 362.121 0.000334943C358.391 0.0094679 354.589 0.200712 351.086 1.60741C347.582 3.01411 344.372 5.81773 343.127 9.68408C342.347 12.1081 342.372 14.791 341.485 17.1701C339.874 21.4892 335.696 23.8478 331.775 25.6374C327.853 27.4269 323.591 29.2443 321.278 33.1592C318.667 37.5802 319.421 43.7504 322.298 47.9667C325.176 52.1831 329.797 54.6279 334.5 55.6502C339.204 56.6726 344.049 56.4198 348.838 56.1628" fill="#2F2E41"/>
<path d="M305.713 334.262L290.259 326.893L298.645 307.916L311.125 315.947L305.713 334.262Z" fill="#FEB8B8"/>
<path d="M362.881 236.959L347.955 270.341L321.616 329.256L294.459 314.907L324.437 237.735L324.522 228.02L324.79 197.791L362.881 236.959Z" fill="#2F2E41"/>
<path d="M405.204 319.173L389.333 325.378L383.689 305.212L397.797 301.722L405.204 319.173Z" fill="#FEB8B8"/>
<path d="M401.677 143.499L353.711 128.374L367.819 117.904L404.851 130.701L421.596 135.12C422.779 135.432 423.885 136.028 424.835 136.863C425.785 137.699 426.556 138.755 427.092 139.956C427.629 141.157 427.918 142.473 427.939 143.81C427.96 145.148 427.712 146.474 427.214 147.695C426.746 148.84 426.068 149.867 425.221 150.711C424.375 151.554 423.379 152.195 422.296 152.595C421.213 152.994 420.067 153.143 418.929 153.031C417.792 152.919 416.687 152.55 415.686 151.946L401.677 143.499Z" fill="#FEB8B8"/>
<path d="M370.993 118.292L351.595 130.701C349.883 115.182 358.322 87.5561 368.876 57.4067C371.967 59.8677 374.393 63.2045 375.895 67.0617C377.397 70.9189 377.919 75.1519 377.406 79.3097L370.993 118.292Z" fill="#F0F0F0"/>
<path d="M287.405 149.316L286.997 165.234C286.962 166.62 286.641 167.979 286.06 169.209C285.479 170.439 284.652 171.508 283.641 172.336C282.63 173.165 281.461 173.731 280.223 173.992C278.985 174.253 277.709 174.202 276.492 173.843C275.319 173.498 274.228 172.875 273.297 172.019C272.365 171.163 271.615 170.093 271.098 168.885C270.581 167.677 270.309 166.36 270.303 165.025C270.296 163.69 270.555 162.369 271.06 161.156L276.472 148.152L293.401 103.943L305.04 108.597L287.405 149.316Z" fill="#FEB8B8"/>
<path d="M366.231 41.7008C374.607 41.7008 381.397 34.235 381.397 25.0253C381.397 15.8157 374.607 8.34985 366.231 8.34985C357.855 8.34985 351.065 15.8157 351.065 25.0253C351.065 34.235 357.855 41.7008 366.231 41.7008Z" fill="#FEB8B8"/>
<path d="M365.703 60.1217L348.068 50.8144L356.885 29.0974L371.698 32.1998L365.703 60.1217Z" fill="#FEB8B8"/>
<path d="M354.416 138.845L318.442 129.15L325.666 56.3392C325.997 53.0019 327.506 49.941 329.869 47.8152C332.232 45.6894 335.26 44.6686 338.3 44.9726L350.184 46.1605L366.408 54.3043L372.403 61.2847L370.574 69.8874C372.279 87.606 370.965 102.981 361.596 112.105L354.416 138.845Z" fill="#F0F0F0"/>
<path d="M308.567 111.311L289.874 105.882L314.935 60.243C317.565 55.4528 321.381 51.5847 325.937 49.091C330.493 46.5973 335.6 45.5809 340.661 46.1606L331.139 80.675C322.334 87.9802 314.937 98.4807 308.567 111.311Z" fill="#F0F0F0"/>
<path opacity="0.2" d="M362.881 236.959L347.955 270.341C339.515 256.031 331.372 241.818 324.522 228.02L324.79 197.791L362.881 236.959Z" fill="black"/>
<path d="M405.909 303.661L377.341 312.968C342.554 250.871 292.743 183.951 312.093 139.233L319.147 121.006L355.827 133.416L357.943 181.503L380.515 220.284L405.909 303.661Z" fill="#2F2E41"/>
<path d="M419.927 345.883L394.538 345.609C392.123 345.592 389.813 344.525 388.11 342.641C386.408 340.757 385.453 338.209 385.453 335.554V321.637C385.451 321.134 385.557 320.637 385.763 320.186C385.968 319.736 386.267 319.346 386.635 319.046C387.003 318.746 387.43 318.546 387.882 318.462C388.334 318.377 388.797 318.411 389.234 318.56C393.82 320.177 397.575 319.639 400.406 316.708C402.104 314.952 402.302 314.599 404.322 315.877L415.785 329.644L420.433 329.973C422.176 330.097 423.82 330.909 425.061 332.26C426.303 333.611 427.058 335.41 427.189 337.325C427.264 338.421 427.131 339.523 426.8 340.56C426.468 341.598 425.945 342.549 425.262 343.353C424.58 344.157 423.754 344.797 422.835 345.232C421.917 345.668 420.927 345.889 419.927 345.883Z" fill="#2F2E41"/>
<path d="M299.714 364.599L281.938 344.665C280.242 342.775 279.294 340.224 279.302 337.569C279.31 334.913 280.273 332.369 281.98 330.492L290.93 320.651C291.252 320.294 291.647 320.025 292.082 319.866C292.516 319.707 292.979 319.663 293.432 319.738C293.885 319.812 294.316 320.003 294.689 320.294C295.063 320.586 295.369 320.97 295.582 321.415C297.785 326.124 300.786 328.663 304.673 328.792C307.003 328.869 307.37 328.774 307.977 331.248L307.228 349.895L310.303 353.743C311.456 355.185 312.096 357.037 312.106 358.958C312.115 360.878 311.492 362.738 310.353 364.193C309.701 365.027 308.899 365.703 307.997 366.179C307.095 366.655 306.114 366.92 305.114 366.958C304.115 366.996 303.119 366.806 302.189 366.4C301.26 365.994 300.417 365.381 299.714 364.599Z" fill="#2F2E41"/>
<path d="M365.62 21.1344C367.696 24.767 370.782 27.5673 374.42 29.1202C376.996 30.2111 380.266 30.4822 382.199 28.3155C383.6 26.746 383.879 24.3304 383.681 22.1423C383.06 15.3123 378.392 9.36467 372.599 6.80556C366.807 4.24645 360.12 4.80587 354.339 7.39677C348.885 9.84129 343.705 14.8493 343.412 21.3174C343.261 24.6322 344.353 28.2822 342.735 31.0837C341.516 33.1937 339.162 34.0511 337.053 34.9854C334.945 35.9198 332.682 37.3942 332.249 39.8482C332.144 40.6923 332.22 41.5518 332.472 42.3575C332.725 43.1631 333.145 43.8924 333.701 44.4866C334.822 45.6637 336.149 46.5783 337.601 47.1751C341.039 48.7851 344.824 49.7887 348.519 49.1663C352.213 48.5439 355.785 46.0703 357.231 42.2809C358.344 39.3627 358.116 36.0697 357.987 32.9083C357.859 29.7469 357.898 26.3799 359.433 23.7031C360.968 21.0263 364.532 19.5278 366.826 21.4385" fill="#2F2E41"/>
<path d="M582.297 176.515H417.552C414.341 176.515 411.738 174.476 411.734 171.964V132.592C411.738 130.08 414.341 128.041 417.552 128.041H582.297C585.508 128.041 588.111 130.08 588.114 132.592V171.963C588.112 174.476 585.508 176.512 582.297 176.515ZM417.552 129.86C415.625 129.86 414.063 131.083 414.061 132.591V171.962C414.061 173.469 415.625 174.691 417.552 174.692H582.297C584.224 174.692 585.785 173.469 585.787 171.962V132.592C585.787 131.085 584.224 129.863 582.297 129.861L417.552 129.86Z" fill="#E6E6E6"/>
<path d="M454.802 150.416C453.872 150.417 452.98 150.824 452.323 151.547C451.665 152.27 451.295 153.25 451.294 154.273V181.271C451.295 182.293 451.665 183.273 452.323 183.996C452.98 184.719 453.872 185.126 454.802 185.127H580.374C581.304 185.126 582.196 184.719 582.853 183.996C583.511 183.273 583.881 182.293 583.882 181.271V154.273C583.881 153.25 583.511 152.27 582.853 151.547C582.196 150.824 581.304 150.417 580.374 150.416H454.802Z" fill="#C4C4C4"/>
<path d="M472.34 176.642C476.602 176.642 480.057 172.844 480.057 168.157C480.057 163.471 476.602 159.672 472.34 159.672C468.078 159.672 464.623 163.471 464.623 168.157C464.623 172.844 468.078 176.642 472.34 176.642Z" fill="white"/>
<path d="M168.229 365.627H34.2378V401.881H168.229V365.627Z" fill="#C4C4C4"/>
<path d="M206.111 366.398C205.181 366.399 204.29 366.806 203.632 367.529C202.975 368.252 202.605 369.232 202.604 370.255V398.795C202.605 399.818 202.975 400.798 203.632 401.521C204.29 402.244 205.181 402.651 206.111 402.652H331.684C332.614 402.651 333.505 402.244 334.163 401.521C334.821 400.798 335.19 399.818 335.192 398.795V370.255C335.19 369.232 334.821 368.252 334.163 367.529C333.505 366.806 332.614 366.399 331.684 366.398H206.111Z" fill="#C4C4C4"/>
<path d="M385.351 367.941C381.164 367.941 377.15 369.769 374.19 373.024C371.229 376.279 369.566 380.694 369.566 385.297C369.566 389.9 371.229 394.314 374.19 397.569C377.15 400.824 381.164 402.652 385.351 402.652H486.37C490.556 402.652 494.571 400.824 497.531 397.569C500.492 394.314 502.154 389.9 502.154 385.297C502.154 380.694 500.492 376.279 497.531 373.024C494.571 369.769 490.556 367.941 486.37 367.941H385.351Z" fill="#C4C4C4"/>
<path d="M557.925 401.881C567.224 401.881 574.762 393.593 574.762 383.368C574.762 373.144 567.224 364.855 557.925 364.855C548.627 364.855 541.089 373.144 541.089 383.368C541.089 393.593 548.627 401.881 557.925 401.881Z" fill="#C4C4C4"/>
<path d="M557.926 391.853C562.188 391.853 565.643 388.054 565.643 383.368C565.643 378.682 562.188 374.883 557.926 374.883C553.664 374.883 550.209 378.682 550.209 383.368C550.209 388.054 553.664 391.853 557.926 391.853Z" fill="white"/>
<path d="M609 401.457H0V403H609V401.457Z" fill="#3F3D56"/>
<path d="M132.781 378.354H69.686V389.153H132.781V378.354Z" fill="white"/>
<path d="M300.445 378.354H237.35V389.153H300.445V378.354Z" fill="white"/>
<path d="M467.095 380H404V390.799H467.095V380Z" fill="white"/>
<path d="M218.209 194.599C217.329 195.359 216.29 195.911 215.169 196.217C214.048 196.523 212.872 196.573 211.729 196.366C210.585 196.158 209.503 195.697 208.561 195.017C207.618 194.336 206.84 193.454 206.284 192.434L198.068 177.383L204.281 172.233L217.824 182.493C218.75 183.195 219.507 184.094 220.04 185.125C220.573 186.157 220.869 187.294 220.906 188.455C220.943 189.615 220.72 190.769 220.253 191.832C219.786 192.896 219.088 193.841 218.209 194.599Z" fill="#FFB9B9"/>
<path d="M107.706 337.628H94.7084L93.4705 223.746H119.465L107.706 337.628Z" fill="#FFB9B9"/>
<path d="M139.89 343.817H126.892L125.655 222.508L151.649 221.27L139.89 343.817Z" fill="#FFB9B9"/>
<path d="M125.655 46.7337C115.058 46.7337 106.468 38.1435 106.468 27.547C106.468 16.9505 115.058 8.36035 125.655 8.36035C136.251 8.36035 144.841 16.9505 144.841 27.547C144.841 38.1435 136.251 46.7337 125.655 46.7337Z" fill="#FFB9B9"/>
<path d="M135.557 61.5878L102.754 52.3039C110.09 49.4501 112.922 44.4721 111.419 37.4497H133.081C130.297 48.0285 130.285 56.6614 135.557 61.5878Z" fill="#FFB9B9"/>
<path d="M107.087 166.186L100.898 182.278L94.7084 172.994L102.754 164.948L107.087 166.186Z" fill="#FFB9B9"/>
<path d="M144.066 20.7059C136.606 15.918 129.167 14.341 121.746 15.6881C119.489 16.1093 117.342 16.9898 115.439 18.2749C113.537 19.5601 111.918 21.2225 110.684 23.159C109.451 25.0956 108.628 27.265 108.267 29.5326C107.907 31.8003 108.016 34.1179 108.588 36.3417C108.603 36.4016 108.619 36.4616 108.634 36.5216L107.525 34.4373C104.584 28.9098 103.58 22.556 104.674 16.3911C105.515 11.657 108.044 7.3884 111.792 4.37732C115.541 1.36624 120.254 -0.182927 125.058 0.0172306L129.233 0.191142C134.036 0.39127 138.607 2.31375 142.109 5.60697C145.611 8.90018 147.81 13.344 148.305 18.1257C148.357 18.6421 148.262 19.1627 148.031 19.6275C147.8 20.0922 147.442 20.482 146.999 20.7519C146.555 21.0218 146.045 21.1607 145.526 21.1525C145.007 21.1444 144.501 20.9895 144.066 20.7059Z" fill="#2F2E41"/>
<path d="M208.59 173.613L198.997 181.35L146.698 140.81L149.793 70.2527C152.734 72.6057 155.179 75.5186 156.988 78.8228C158.796 82.127 159.932 85.757 160.328 89.5028L169.289 129.36L208.59 173.613Z" fill="#3F3D56"/>
<path d="M156.601 233.648L124.417 234.886L123.179 228.078L121.322 237.362L91.6135 236.124C91.6185 206.022 92.2609 172.761 88.5189 161.234L157.22 168.043C162.63 191.365 163.297 213.46 156.601 233.648Z" fill="#2F2E41"/>
<path d="M100.221 367.336C93.2737 367.336 87.8269 370.034 88.4595 363.115L90.259 339.721C90.2938 338.73 90.6159 337.771 91.1861 336.96C91.7562 336.148 92.5499 335.521 93.4705 335.152C98.4219 329.348 103.373 328.729 108.325 333.296C109.935 335.308 110.873 337.774 111.009 340.348L112.016 363.582C112.365 370.335 106.983 367.336 100.221 367.336Z" fill="#2F2E41"/>
<path d="M163.666 367.665L130.633 366.79C129.266 366.6 128.016 365.912 127.125 364.856C126.234 363.801 125.765 362.454 125.807 361.074L125.184 344.932C125.144 344.137 125.417 343.357 125.943 342.76C126.469 342.162 127.208 341.793 128.002 341.732L133.081 341.342C133.684 335.815 137.049 334.474 141.746 335.152L156.601 351.863L166.389 354.604C167.958 355.044 169.313 356.041 170.199 357.409C171.084 358.778 171.44 360.422 171.198 362.034C170.937 363.775 169.999 365.343 168.589 366.397C167.179 367.451 165.41 367.907 163.666 367.665Z" fill="#2F2E41"/>
<path d="M159.076 176.089C140.564 178.455 123.507 171.287 107.396 165.876C100.123 163.434 92.7953 165.984 86.0431 161.853C88.963 133.094 86.1281 100.699 79.9258 66.1762C79.5719 64.2219 79.9411 62.2055 80.9645 60.5034C81.9879 58.8012 83.5956 57.5295 85.4876 56.9255L105.849 50.447L123.797 56.6363L133.081 58.493L152.198 71.41C153.314 72.1635 154.189 73.2233 154.717 74.4619C155.244 75.7004 155.403 77.0651 155.174 78.3918C149.431 110.859 150.762 144.183 159.076 176.089Z" fill="#3F3D56"/>
<path d="M103.992 164.948L95.3272 176.089L65 130.907L67.6229 85.0056C67.957 79.1594 69.7643 73.4926 72.8767 68.5325C75.9892 63.5724 80.3056 59.48 85.4244 56.6362L84.8055 127.194L103.992 164.948Z" fill="#3F3D56"/>
</g>
<defs>
<clipPath id="clip0">
<rect width="609" height="403" fill="white"/>
</clipPath>
</defs>
</svg>
