<svg width="443" height="323" viewBox="0 0 443 323" fill="none" xmlns="http://www.w3.org/2000/svg">
<g clip-path="url(#clip0)">
<path d="M443 304.948H261.287V305.823H443V304.948Z" fill="#3F3D56"/>
<path d="M325.006 108.954L323.021 123.817C323.021 123.817 314.284 143.052 319.844 162.723L326.992 157.915C326.992 157.915 332.552 134.309 332.552 132.56C332.552 130.811 334.935 110.265 334.935 110.265L325.006 108.954Z" fill="#FFB9B9"/>
<path d="M328.978 156.603L319.446 163.598L324.212 189.39C324.212 189.39 325.403 224.362 325.006 225.673C324.609 226.985 317.46 280.317 317.46 280.317C317.46 280.317 325.801 284.689 333.346 282.066C333.346 282.066 340.892 242.722 340.892 231.356L349.629 191.575L363.132 237.039C363.132 237.039 363.927 267.64 365.515 277.694C367.104 287.749 367.104 289.06 367.104 289.06C367.104 289.06 379.812 292.995 382.99 289.06C382.99 289.06 381.401 237.476 380.209 232.231L377.429 169.718L328.978 156.603Z" fill="#2F2E41"/>
<path d="M320.638 280.317C320.638 280.317 319.844 279.006 317.461 282.503C315.078 286 307.532 292.558 307.532 292.558C307.532 292.558 286.88 308.732 302.369 309.606C317.858 310.481 320.638 301.738 320.638 301.738C320.638 301.738 333.744 299.115 334.141 296.055C334.538 292.995 332.552 280.754 332.552 280.754L320.638 280.317Z" fill="#2F2E41"/>
<path d="M367.898 288.186C367.898 288.186 365.118 298.678 365.912 303.049C366.707 307.421 364.324 323.595 375.444 322.284C386.564 320.972 382.99 306.983 382.99 306.983L379.415 289.06L367.898 288.186Z" fill="#2F2E41"/>
<path d="M352.211 59.337C359.449 59.337 365.317 52.8782 365.317 44.911C365.317 36.9437 359.449 30.485 352.211 30.485C344.973 30.485 339.105 36.9437 339.105 44.911C339.105 52.8782 344.973 59.337 352.211 59.337Z" fill="#FFB9B9"/>
<path d="M344.467 52.5612C344.467 52.5612 348.438 67.8615 345.261 73.5444C342.084 79.2274 366.707 74.4187 368.295 69.1729C368.295 69.1729 360.353 59.5556 361.544 50.3754L344.467 52.5612Z" fill="#FFB9B9"/>
<path d="M350.821 73.1072C350.821 73.1072 361.693 73.9163 366.98 67.3916L386.564 76.6045L378.224 127.314C378.224 127.314 394.904 170.155 379.813 174.089C364.721 178.024 321.035 174.089 323.021 159.663C325.007 145.237 332.949 127.751 332.949 127.751C332.949 127.751 334.935 108.517 330.567 99.7735C326.198 91.0305 328.978 80.976 328.978 80.976L346.459 68.2265C346.459 68.2265 347.247 73.1072 350.821 73.1072Z" fill="#575A89"/>
<path d="M333.744 81.4131H328.978C328.978 81.4131 323.418 82.7246 324.609 99.3364L321.829 111.139C321.829 111.139 335.729 115.074 337.715 112.888C339.701 110.702 333.744 81.4131 333.744 81.4131Z" fill="#575A89"/>
<path d="M391.33 107.642L389.741 122.943C389.741 122.943 391.727 143.052 384.975 158.789L382.593 166.658C382.593 166.658 380.21 189.39 373.855 189.39C367.501 189.39 373.855 163.598 373.855 163.598L377.033 137.806C377.033 137.806 379.415 127.751 377.827 123.38C376.238 119.008 375.841 109.828 375.841 109.828L391.33 107.642Z" fill="#FFB9B9"/>
<path d="M348.991 35.4714C350.936 35.1366 352.897 34.9226 354.863 34.8306C356.289 34.7639 357.773 34.7745 359.061 35.4496C361.003 36.4675 362.091 38.7684 362.803 41.0022C363.515 43.2359 364.02 45.623 365.342 47.4909C367.54 44.965 367.98 41.2096 368.307 37.7301C368.537 35.2828 368.741 32.6732 367.713 30.4885C367.08 29.1428 366.035 28.0942 364.977 27.1247C359.925 22.4968 353.51 18.8552 347.006 19.8947L346.853 21C345.743 20.9633 344.633 21.0401 343.536 21.2295L343.768 23.9717L340.313 24.213L340.181 27.0709L336.687 27.2043C336.754 28.3025 337.188 29.3345 337.906 30.1014C337.368 30.5288 336.758 30.8323 336.111 30.9936C336.694 33.4762 337.259 35.9645 337.861 38.4415C338.305 40.2661 338.225 41.8783 340.003 40.9878C341.357 40.3098 342.273 38.1537 343.642 37.2629C345.254 36.2135 347.163 35.7863 348.991 35.4714Z" fill="#2F2E41"/>
<path d="M381.004 77.0416H386.564C386.564 77.0416 395.698 110.702 394.11 111.139C392.521 111.577 373.855 112.888 373.855 112.888L381.004 77.0416Z" fill="#575A89"/>
<path d="M187.836 258.554C186.735 258.554 185.622 258.534 184.529 258.497L184.554 257.623C186.123 257.677 187.724 257.692 189.3 257.668L189.311 258.542C188.82 258.55 188.329 258.553 187.836 258.554ZM194.09 258.351L194.043 257.478C195.614 257.376 197.205 257.233 198.773 257.052L198.856 257.921C197.276 258.104 195.673 258.248 194.09 258.351H194.09ZM179.754 258.215C178.17 258.081 176.569 257.906 174.996 257.693L175.092 256.826C176.654 257.036 178.243 257.211 179.815 257.343L179.754 258.215ZM203.599 257.253L203.479 256.389C205.041 256.128 206.614 255.826 208.154 255.489L208.308 256.346C206.756 256.685 205.172 256.991 203.599 257.253V257.253ZM170.264 256.933C168.699 256.641 167.119 256.306 165.569 255.935L165.737 255.081C167.276 255.449 168.843 255.782 170.397 256.071L170.264 256.933ZM212.976 255.202L212.786 254.353C214.318 253.936 215.859 253.475 217.366 252.983L217.591 253.821C216.073 254.317 214.52 254.781 212.976 255.202V255.202ZM160.92 254.7C159.385 254.251 157.84 253.756 156.328 253.23L156.567 252.397C158.068 252.919 159.601 253.409 161.124 253.855L160.92 254.7ZM222.143 252.208L221.883 251.382C223.37 250.813 224.865 250.198 226.329 249.554L226.623 250.366C225.149 251.015 223.642 251.635 222.143 252.208V252.208ZM151.791 251.523C150.3 250.92 148.799 250.269 147.332 249.589L147.64 248.783C149.097 249.458 150.585 250.104 152.065 250.703L151.791 251.523ZM231.011 248.302L230.682 247.507C232.11 246.792 233.546 246.03 234.949 245.241L235.31 246.019C233.896 246.815 232.45 247.583 231.011 248.302V248.302ZM239.51 243.521L239.116 242.761C240.486 241.901 241.853 240.997 243.179 240.074L243.603 240.812C242.267 241.743 240.89 242.654 239.51 243.521V243.521ZM247.581 237.9L247.126 237.184C248.416 236.192 249.703 235.153 250.951 234.097L251.435 234.79C250.177 235.855 248.88 236.901 247.581 237.9V237.9ZM126.521 236.669C125.239 235.644 123.958 234.57 122.714 233.477L123.21 232.794C124.444 233.878 125.715 234.944 126.987 235.961L126.521 236.669ZM255.157 231.49L254.645 230.822C255.847 229.705 257.043 228.542 258.201 227.364L258.74 228.006C257.574 229.193 256.368 230.365 255.157 231.49V231.49ZM119.044 230.098C117.85 228.947 116.664 227.75 115.519 226.539L116.069 225.908C117.206 227.11 118.383 228.298 119.568 229.44L119.044 230.098ZM262.176 224.344L261.61 223.73C262.719 222.495 263.815 221.216 264.868 219.929L265.458 220.514C264.397 221.811 263.293 223.099 262.176 224.344V224.344ZM112.145 222.809C111.05 221.541 109.968 220.231 108.93 218.914L109.53 218.341C110.56 219.648 111.633 220.948 112.721 222.206L112.145 222.809ZM268.578 216.523L267.964 215.968C268.965 214.627 269.951 213.243 270.895 211.855L271.531 212.378C270.58 213.778 269.587 215.172 268.578 216.523ZM105.879 214.863C104.895 213.495 103.927 212.082 103 210.665L103.645 210.154C104.564 211.561 105.526 212.963 106.502 214.321L105.879 214.863ZM274.308 208.089L273.651 207.598C274.537 206.162 275.405 204.684 276.23 203.205L276.907 203.663C276.075 205.153 275.201 206.642 274.308 208.089ZM100.299 206.327C99.4332 204.867 98.5862 203.364 97.7808 201.86L98.465 201.416C99.2643 202.908 100.105 204.4 100.964 205.849L100.299 206.327ZM279.318 199.109L278.623 198.687C279.386 197.168 280.127 195.608 280.826 194.05L281.538 194.438C280.834 196.007 280.087 197.579 279.318 199.109ZM283.56 189.658L282.833 189.307C283.465 187.716 284.073 186.086 284.639 184.464L285.381 184.777C284.81 186.412 284.198 188.054 283.56 189.658ZM91.3805 187.771C90.7716 186.163 90.1885 184.517 89.6475 182.879L90.3941 182.581C90.9308 184.206 91.5095 185.839 92.1135 187.435L91.3805 187.771ZM286.995 179.808L286.241 179.533C286.736 177.889 287.204 176.209 287.631 174.538L288.396 174.775C287.966 176.458 287.494 178.152 286.995 179.808V179.808ZM88.1175 177.892C87.6449 176.226 87.2008 174.524 86.7976 172.833L87.566 172.611C87.966 174.289 88.4068 175.978 88.8757 177.632L88.1175 177.892ZM289.584 169.676L288.81 169.478C289.166 167.793 289.491 166.072 289.776 164.364L290.557 164.522C290.27 166.244 289.942 167.977 289.584 169.676V169.676ZM85.6916 167.711C85.3603 166.004 85.0605 164.264 84.8007 162.54L85.5841 162.396C85.8422 164.108 86.1397 165.834 86.4684 167.529L85.6916 167.711ZM291.315 159.325L290.527 159.207C290.741 157.494 290.921 155.748 291.064 154.017L291.855 154.095C291.711 155.84 291.529 157.6 291.315 159.325H291.315ZM84.1262 157.329C83.9389 155.598 83.7851 153.836 83.669 152.09L84.4613 152.026C84.5763 153.759 84.7291 155.508 84.9151 157.226L84.1262 157.329ZM292.178 148.844L291.385 148.805C291.455 147.073 291.491 145.315 291.491 143.583H292.286C292.286 145.329 292.25 147.099 292.178 148.844V148.844ZM83.4283 146.833C83.4012 145.761 83.3874 144.667 83.3872 143.583C83.3872 142.91 83.3924 142.238 83.4029 141.568L84.1972 141.583C84.1867 142.249 84.1815 142.915 84.1815 143.583C84.1817 144.659 84.1955 145.744 84.2222 146.809L83.4283 146.833ZM84.3857 136.364L83.593 136.309C83.692 134.562 83.829 132.798 83.9994 131.065L84.789 131.159C84.6198 132.879 84.4842 134.63 84.3857 136.364H84.3857ZM290.979 131.03C290.82 129.306 290.602 128.466 290.371 126.75L291.157 126.622C291.389 128.351 291.588 129.671 291.748 131.408L290.979 131.03ZM85.4075 125.98L84.6225 125.847C84.8658 124.117 85.1486 122.374 85.4629 120.665L86.2413 120.838C85.9295 122.534 85.6489 124.264 85.4074 125.98H85.4075ZM289.57 121.602C289.267 119.896 288.925 118.18 288.553 116.499L289.325 116.293C289.7 117.986 290.044 119.716 290.349 121.434L289.57 121.602ZM87.2888 115.743L86.5184 115.531C86.9041 113.838 87.3313 112.13 87.7882 110.456L88.5487 110.707C88.0956 112.369 87.6716 114.063 87.2888 115.743ZM287.325 111.453C286.882 109.789 286.398 108.114 285.886 106.476L286.637 106.191C287.153 107.842 287.641 109.53 288.087 111.208L287.325 111.453ZM90.0231 105.727L89.2738 105.437C89.8016 103.784 90.3716 102.123 90.9677 100.501L91.7042 100.829C91.1125 102.439 90.5469 104.087 90.0231 105.727V105.727ZM284.24 101.576C283.661 99.9671 283.04 98.3523 282.396 96.7764L283.12 96.4174C283.77 98.0055 284.395 99.6326 284.979 101.254L284.24 101.576ZM93.5881 96.0231L92.8663 95.6581C93.5297 94.0679 94.2358 92.4732 94.9649 90.9184L95.6708 91.3193C94.9471 92.8623 94.2465 94.4449 93.5881 96.0231ZM280.353 92.0732C279.642 90.5297 278.889 88.983 278.114 87.4767L278.806 87.0459C279.586 88.564 280.345 90.1224 281.061 91.6779L280.353 92.0732ZM97.9476 86.7271L97.2592 86.2908C98.0515 84.7763 98.8871 83.2604 99.7429 81.7854L100.412 82.2559C99.5631 83.7197 98.7337 85.2241 97.9476 86.7271ZM275.687 82.9959C274.847 81.5252 273.969 80.06 273.075 78.641L273.727 78.1428C274.628 79.5727 275.514 81.049 276.359 82.531L275.687 82.9959ZM103.06 77.9146L102.411 77.4109C103.326 75.9814 104.284 74.5566 105.257 73.176L105.884 73.7117C104.919 75.0821 103.969 76.496 103.06 77.9146ZM270.284 74.4208C269.326 73.0409 268.33 71.669 267.32 70.3435L267.929 69.7819C268.946 71.1176 269.951 72.4998 270.915 73.8902L270.284 74.4208ZM108.88 69.6563L108.275 69.0894C109.302 67.7609 110.374 66.4385 111.458 65.1591L112.039 65.7555C110.962 67.0253 109.9 68.3378 108.88 69.6563ZM264.191 66.4178C263.124 65.1395 262.017 63.8724 260.902 62.6523L261.462 62.032C262.586 63.2617 263.701 64.5382 264.776 65.8261L264.191 66.4178ZM115.355 62.0183L114.8 61.3933C115.935 60.1703 117.111 58.961 118.293 57.7994L118.822 58.4518C117.649 59.6044 116.482 60.8044 115.355 62.0184V62.0183ZM257.461 59.0545C256.291 57.8872 255.084 56.7358 253.872 55.6325L254.379 54.9588C255.599 56.0705 256.816 57.2306 257.994 58.4069L257.461 59.0545ZM122.431 55.0625L121.93 54.3846C123.158 53.2834 124.428 52.1974 125.704 51.1566L126.177 51.8588C124.911 52.892 123.651 53.9697 122.431 55.0626V55.0625ZM130.049 48.8474L129.606 48.1221C130.921 47.1484 132.274 46.1949 133.629 45.2875L134.042 46.0346C132.698 46.9349 131.354 47.8814 130.049 48.8474ZM138.146 43.4262L137.765 42.659C139.156 41.8212 140.582 41.0084 142.004 40.2427L142.353 41.0282C140.942 41.7879 139.527 42.5946 138.146 43.4262H138.146ZM234.005 41.4005C232.592 40.6254 231.144 39.8767 229.702 39.175L230.023 38.3754C231.477 39.0824 232.936 39.8369 234.36 40.618L234.005 41.4005ZM146.654 38.8457L146.338 38.0435C147.792 37.35 149.279 36.6849 150.758 36.0665L151.04 36.884C149.572 37.4975 148.097 38.1575 146.654 38.8457H146.654ZM225.309 37.1694C223.839 36.5417 222.333 35.9427 220.835 35.3894L221.088 34.5604C222.598 35.1181 224.114 35.7216 225.596 36.3545L225.309 37.1694ZM155.514 35.1425L155.266 34.3117C156.776 33.767 158.316 33.2541 159.844 32.7877L160.056 33.6299C158.54 34.0929 157.012 34.6018 155.514 35.1425ZM216.302 33.8425C214.787 33.3672 213.242 32.9245 211.71 32.5268L211.892 31.676C213.436 32.0766 214.993 32.5228 216.52 33.0015L216.302 33.8425ZM164.657 32.3494L164.48 31.4971C166.027 31.108 167.604 30.7535 169.165 30.4435L169.306 31.3037C167.757 31.6115 166.192 31.9633 164.657 32.3494V32.3494ZM207.067 31.4459C205.52 31.1263 203.945 30.842 202.384 30.6008L202.494 29.7351C204.067 29.9782 205.655 30.2646 207.214 30.5865L207.067 31.4459ZM173.995 30.4945L173.889 29.6279C175.462 29.397 177.061 29.2027 178.642 29.0512L178.711 29.9221C177.142 30.0728 175.555 30.2653 173.995 30.4945V30.4945ZM197.671 29.9929C196.106 29.8307 194.514 29.7056 192.937 29.6217L192.976 28.7483C194.564 28.833 196.169 28.959 197.745 29.1225L197.671 29.9929ZM183.447 29.5867L183.414 28.7133C184.874 28.6462 186.361 28.6121 187.836 28.6117L188.196 28.6123L188.194 29.4866L187.836 29.486C186.373 29.4864 184.896 29.5203 183.447 29.5867V29.5867Z" fill="#3F3D56"/>
<path d="M185.735 176.931C203.501 176.931 217.904 161.078 217.904 141.522C217.904 121.966 203.501 106.112 185.735 106.112C167.969 106.112 153.566 121.966 153.566 141.522C153.566 161.078 167.969 176.931 185.735 176.931Z" fill="#3F3D56"/>
<path d="M205.989 138.024H188.912V119.227H182.558V138.024H165.48V145.019H182.558V163.816H188.912V145.019H205.989V138.024Z" fill="white"/>
<path d="M129.261 201.336H85.5146V257.437H129.261V201.336Z" fill="#F2F2F2"/>
<path d="M146.25 257.905H85.0898V190.583H146.25V257.905ZM85.9393 256.97H145.401V191.518H85.9393V256.97Z" fill="#3F3D56"/>
<path d="M135.207 210.219H97.8315V211.154H135.207V210.219Z" fill="#3F3D56"/>
<path d="M135.207 220.504H97.8315V221.439H135.207V220.504Z" fill="#3F3D56"/>
<path d="M135.207 230.789H97.8315V231.724H135.207V230.789Z" fill="#3F3D56"/>
<path d="M234.517 16.9214H146.35V65.0804H234.517V16.9214Z" fill="#F2F2F2"/>
<path d="M252.388 65.5175H145.953V6.93921H252.388V65.5175ZM146.748 64.6432H251.594V7.81351H146.748V64.6432Z" fill="#3F3D56"/>
<path d="M219.016 31.3834H161.851V32.2577H219.016V31.3834Z" fill="#3F3D56"/>
<path d="M219.016 40.5636H161.851V41.4379H219.016V40.5636Z" fill="#3F3D56"/>
<path d="M219.016 49.7438H161.851V50.6181H219.016V49.7438Z" fill="#3F3D56"/>
<path d="M305.276 138.461H267.547V182.614H305.276V138.461Z" fill="#F2F2F2"/>
<path d="M314.807 183.051H267.15V130.593H314.807V183.051ZM267.944 182.177H314.013V131.467H267.944V182.177Z" fill="#3F3D56"/>
<path d="M299.517 154.417H273.306V155.292H299.517V154.417Z" fill="#3F3D56"/>
<path d="M299.517 160.1H273.306V160.975H299.517V160.1Z" fill="#3F3D56"/>
<path d="M299.517 165.783H273.306V166.658H299.517V165.783Z" fill="#3F3D56"/>
<path d="M290.027 64.6432H108.314V65.5176H290.027V64.6432Z" fill="#3F3D56"/>
<path d="M340.821 182.177H241.137V183.051H340.821V182.177Z" fill="#3F3D56"/>
<path d="M174.264 257.367H57.0754V258.241H174.264V257.367Z" fill="#3F3D56"/>
</g>
<path d="M181.712 304.295H0V305.169H181.712V304.295Z" fill="#3F3D56"/>
<path d="M45.1565 273.057L46.2873 290.299C46.2873 290.299 37.9968 307.263 46.7293 307.01C55.4619 306.757 56.1523 305.697 56.1523 305.697L56.1579 300.392L56.1699 288.987L53.6606 271.477L45.1565 273.057Z" fill="#2F2E41"/>
<path d="M79.8519 277.349C79.8519 277.349 81.9125 284.514 80.2989 289.286C78.6853 294.058 77.9842 305.197 79.1329 305.464C80.2816 305.731 85.7953 307.065 85.7953 307.065C85.7953 307.065 99.1179 312.388 104.865 310.275C110.612 308.161 109.696 304.976 109.696 304.976C109.696 304.976 108.322 300.465 103.956 300.194C99.5906 299.923 89.4997 280.811 89.2744 276.567C89.0491 272.323 79.8519 277.349 79.8519 277.349Z" fill="#2F2E41"/>
<path d="M51.269 57.2897C62.5642 57.2897 71.7208 46.7206 71.7208 33.683C71.7208 20.6454 62.5642 10.0764 51.269 10.0764C39.9737 10.0764 30.8171 20.6454 30.8171 33.683C30.8171 46.7206 39.9737 57.2897 51.269 57.2897Z" fill="#4E54C8"/>
<path d="M44.0139 48.9243C44.0139 48.9243 45.84 60.5976 40.3215 63.7728C34.8031 66.948 50.6525 73.0708 50.6525 73.0708L57.5486 70.9586L61.9262 60.0897C61.9262 60.0897 56.4117 59.5515 57.8005 50.0047L44.0139 48.9243Z" fill="#FFB9B9"/>
<path opacity="0.1" d="M44.0139 48.9243C44.0139 48.9243 45.84 60.5976 40.3215 63.7728C34.8031 66.948 50.6525 73.0708 50.6525 73.0708L57.5486 70.9586L61.9262 60.0897C61.9262 60.0897 56.4117 59.5515 57.8005 50.0047L44.0139 48.9243Z" fill="black"/>
<path d="M22.8321 88.6811L22.3456 114.144L16.5549 157.636C16.5549 157.636 16.761 180.182 22.7343 181.516C28.7076 182.851 22.7597 157.379 22.7597 157.379L31.4222 121.387L33.1715 90.0218L22.8321 88.6811Z" fill="#FFB9B9"/>
<path d="M50.5722 55.1668C57.8062 55.1668 63.6706 48.3978 63.6706 40.0479C63.6706 31.698 57.8062 24.929 50.5722 24.929C43.3382 24.929 37.4739 31.698 37.4739 40.0479C37.4739 48.3978 43.3382 55.1668 50.5722 55.1668Z" fill="#FFB9B9"/>
<path d="M71.0602 115.804C73.3534 120.316 72.6585 125.62 70.1307 125.616C67.603 125.613 33.5982 120.791 33.5982 120.791L35.6759 111.775C35.6759 111.775 33.6116 108.059 34.9929 105.674C36.3742 103.289 33.6245 95.8579 33.6245 95.8579L28.3696 66.939L31.1282 65.9402L35.7236 64.2783L40.7833 62.4473C40.7833 62.4473 44.2241 68.2875 52.7285 66.4427C52.7285 66.4427 58.013 67.2458 61.0087 59.2927C61.6537 59.305 62.2956 59.3993 62.9226 59.5739C63.559 59.7658 64.1768 60.0876 64.4543 60.6238C64.7317 61.1573 66.3468 61.523 68.1803 61.7669C70.9031 62.1288 74.104 62.2288 74.104 62.2288L71.5452 91.6672C71.5452 91.6672 68.767 111.291 71.0602 115.804Z" fill="#3F3D56"/>
<path d="M30.2076 66.9415L28.3692 66.9389C28.3692 66.9389 21.0085 73.8249 21.9103 90.2713C21.9103 90.2713 22.598 91.8637 27.8822 92.9321C33.1664 94.0005 35.4672 91.3513 35.4672 91.3513L30.2076 66.9415Z" fill="#3F3D56"/>
<path d="M64.6565 86.3526C64.6565 86.3526 35.2448 84.1894 35.4704 88.1684C35.696 92.1474 33.6184 101.163 34.5359 102.755C35.4534 104.348 36.5655 110.876 35.1986 113.844C34.3792 115.617 33.7642 117.507 33.3693 119.464C33.3693 119.464 31.5315 118.931 30.1457 125.56C28.76 132.189 21.846 151.277 24.5932 161.095C27.3404 170.913 36.2365 233.523 36.2365 233.523L42.1679 274.644C42.1679 274.644 52.0469 276.78 55.4983 272.541L52.332 224.262L50.0894 171.741C50.0894 171.741 65.4321 222.689 67.7283 224.284L77.093 278.406C77.093 278.406 87.6591 282.665 91.3431 275.774L87.0186 236.247C87.0186 236.247 84.499 228.551 85.4223 224.574C86.3457 220.596 83.821 217.675 83.821 217.675L74.4584 161.696C74.4584 161.696 71.7075 155.326 74.0105 150.555C76.3135 145.784 69.9021 124.025 69.9021 124.025C69.9021 124.025 65.7775 112.879 67.163 106.515C68.5485 100.151 64.6565 86.3526 64.6565 86.3526Z" fill="#2F2E41"/>
<path d="M80.9759 82.6621L85.5403 112.641C85.5403 112.641 86.2249 117.151 84.1489 124.575C82.0729 131.999 74.0114 149.759 74.0114 149.759L69.884 141.265L76.8064 114.22L71.0948 82.6483L80.9759 82.6621Z" fill="#FFB9B9"/>
<path d="M40.0677 86.5831L35.7865 89.1049L31.1194 73.5738L31.1274 65.9401L35.723 64.2783L36.4078 70.6635L40.0677 86.5831Z" fill="#2F2E41"/>
<path d="M68.1798 61.7668L64.4256 87.2806L58.4509 87.2723L62.9221 59.5739C63.5584 59.7657 64.1762 60.0875 64.4537 60.6237C64.7312 61.1572 66.3463 61.5229 68.1798 61.7668Z" fill="#2F2E41"/>
<path d="M71.3444 63.8164L74.1036 62.2288C74.1036 62.2288 85.8061 78.425 82.3522 85.0513C78.8983 91.6775 68.7917 87.4194 68.7917 87.4194L71.3444 63.8164Z" fill="#3F3D56"/>
<path d="M53.3619 20.1585C58.1846 20.1585 62.0942 15.6459 62.0942 10.0792C62.0942 4.51263 58.1846 0 53.3619 0C48.5392 0 44.6296 4.51263 44.6296 10.0792C44.6296 15.6459 48.5392 20.1585 53.3619 20.1585Z" fill="#4E54C8"/>
<path d="M61.8493 24.9448C61.8538 20.6966 56.8162 17.2457 50.5975 17.237C44.3788 17.2282 39.3339 20.665 39.3294 24.9132C39.3249 29.1614 44.3626 32.6123 50.5813 32.6211C56.8 32.6298 61.8449 29.193 61.8493 24.9448Z" fill="#4E54C8"/>
<path d="M37.8819 90.6915C38.5165 90.6915 39.0309 90.0978 39.0309 89.3653C39.0309 88.6329 38.5165 88.0391 37.8819 88.0391C37.2473 88.0391 36.7329 88.6329 36.7329 89.3653C36.7329 90.0978 37.2473 90.6915 37.8819 90.6915Z" fill="#3F3D56"/>
<path d="M62.47 90.726C63.1045 90.726 63.619 90.1323 63.619 89.3998C63.619 88.6674 63.1045 88.0736 62.47 88.0736C61.8354 88.0736 61.321 88.6674 61.321 89.3998C61.321 90.1323 61.8354 90.726 62.47 90.726Z" fill="#3F3D56"/>
<defs>
<clipPath id="clip0">
<rect width="427.156" height="316.061" fill="white" transform="translate(15.8442 6.93921)"/>
</clipPath>
</defs>
</svg>
