<svg width="438" height="452" viewBox="0 0 438 452" fill="none" xmlns="http://www.w3.org/2000/svg">
<path d="M33.9667 131.967H101.9L135.867 69.907L101.9 7.84668H33.9667L0 69.907L33.9667 131.967Z" fill="white"/>
<path d="M33.1462 54.6995C34.877 54.6995 36.2802 53.2194 36.2802 51.3936C36.2802 49.5678 34.877 48.0876 33.1462 48.0876C31.4153 48.0876 30.0122 49.5678 30.0122 51.3936C30.0122 53.2194 31.4153 54.6995 33.1462 54.6995Z" fill="#E2E2E2"/>
<path d="M33.1462 73.213C34.877 73.213 36.2802 71.7329 36.2802 69.907C36.2802 68.0812 34.877 66.6011 33.1462 66.6011C31.4153 66.6011 30.0122 68.0812 30.0122 69.907C30.0122 71.7329 31.4153 73.213 33.1462 73.213Z" fill="#E2E2E2"/>
<path d="M33.1462 91.7262C34.877 91.7262 36.2802 90.2461 36.2802 88.4202C36.2802 86.5944 34.877 85.1143 33.1462 85.1143C31.4153 85.1143 30.0122 86.5944 30.0122 88.4202C30.0122 90.2461 31.4153 91.7262 33.1462 91.7262Z" fill="#E2E2E2"/>
<path d="M105.855 48.749H46.309V54.0385H105.855V48.749Z" fill="#E2E2E2"/>
<path d="M105.855 67.2622H46.309V72.5517H105.855V67.2622Z" fill="#E2E2E2"/>
<path d="M105.855 85.7756H46.309V91.0651H105.855V85.7756Z" fill="#E2E2E2"/>
<path d="M335.921 131.967H403.855L437.822 69.907L403.855 7.84668H335.921L301.955 69.907L335.921 131.967Z" fill="white"/>
<path d="M335.101 54.6995C336.832 54.6995 338.235 53.2194 338.235 51.3936C338.235 49.5678 336.832 48.0876 335.101 48.0876C333.37 48.0876 331.967 49.5678 331.967 51.3936C331.967 53.2194 333.37 54.6995 335.101 54.6995Z" fill="#E2E2E2"/>
<path d="M335.101 73.213C336.832 73.213 338.235 71.7329 338.235 69.907C338.235 68.0812 336.832 66.6011 335.101 66.6011C333.37 66.6011 331.967 68.0812 331.967 69.907C331.967 71.7329 333.37 73.213 335.101 73.213Z" fill="#E2E2E2"/>
<path d="M335.101 91.7262C336.832 91.7262 338.235 90.2461 338.235 88.4202C338.235 86.5944 336.832 85.1143 335.101 85.1143C333.37 85.1143 331.967 86.5944 331.967 88.4202C331.967 90.2461 333.37 91.7262 335.101 91.7262Z" fill="#E2E2E2"/>
<path d="M407.809 48.749H348.263V54.0385H407.809V48.749Z" fill="#E2E2E2"/>
<path d="M407.809 67.2622H348.263V72.5517H407.809V67.2622Z" fill="#E2E2E2"/>
<path d="M407.809 85.7756H348.263V91.0651H407.809V85.7756Z" fill="#E2E2E2"/>
<path d="M256.836 0.678955H181.057L143.167 69.9069L181.057 139.135H256.836L294.727 69.9069L256.836 0.678955Z" fill="#E6E6E6"/>
<path d="M185.31 131.365H252.584L286.22 69.9071L252.584 8.44946H185.31L151.673 69.9071L185.31 131.365Z" fill="white"/>
<path d="M184.497 54.8472C186.211 54.8472 187.601 53.3815 187.601 51.5734C187.601 49.7653 186.211 48.2996 184.497 48.2996C182.783 48.2996 181.394 49.7653 181.394 51.5734C181.394 53.3815 182.783 54.8472 184.497 54.8472Z" fill="#F25F5C"/>
<path d="M184.497 73.1807C186.211 73.1807 187.601 71.715 187.601 69.9069C187.601 68.0988 186.211 66.6331 184.497 66.6331C182.783 66.6331 181.394 68.0988 181.394 69.9069C181.394 71.715 182.783 73.1807 184.497 73.1807Z" fill="#F25F5C"/>
<path d="M184.497 91.5145C186.211 91.5145 187.601 90.0487 187.601 88.2406C187.601 86.4325 186.211 84.9668 184.497 84.9668C182.783 84.9668 181.394 86.4325 181.394 88.2406C181.394 90.0487 182.783 91.5145 184.497 91.5145Z" fill="#F25F5C"/>
<path d="M256.5 48.9543H197.532V54.1925H256.5V48.9543Z" fill="#F25F5C"/>
<path d="M256.5 67.2878H197.532V72.526H256.5V67.2878Z" fill="#F25F5C"/>
<path d="M256.5 85.6216H197.532V90.8597H256.5V85.6216Z" fill="#F25F5C"/>
<path d="M268.423 274.156L274.601 288.121L281.662 280.673L277.249 269.5L268.423 274.156Z" fill="#A0616A"/>
<path d="M295.707 121.798C295.707 121.798 301.913 146.222 307.188 147.846C312.462 149.469 279.054 154.538 279.054 154.538L278.317 132.649L295.707 121.798Z" fill="#A0616A"/>
<path d="M345.21 265.777L343.444 278.811L338.149 275.087V261.122L345.21 265.777Z" fill="#A0616A"/>
<path d="M269.306 406.362L266.658 428.706L280.78 429.637L279.015 406.362H269.306Z" fill="#A0616A"/>
<path d="M346.975 406.362L349.622 428.706L335.501 429.637L337.266 406.362H346.975Z" fill="#A0616A"/>
<path d="M275.484 266.708C275.484 266.708 269.306 284.397 270.189 291.845C271.071 299.293 263.128 337.466 265.776 341.19C268.424 344.914 268.424 349.569 266.658 352.362C264.893 355.155 264.011 351.431 264.893 356.086C265.776 360.741 264.011 384.017 264.893 387.741C265.776 391.465 262.245 392.396 264.011 396.12C265.776 399.844 268.423 411.017 268.423 411.017L279.897 410.086L281.662 399.844C281.662 399.844 286.958 398.913 286.075 393.327C285.193 387.741 290.488 350.5 290.488 350.5L305.493 298.362L326.675 345.845C326.675 345.845 327.557 379.362 330.205 383.086C332.853 386.81 327.557 397.051 330.205 400.775C332.853 404.499 335.501 411.017 335.501 411.017H348.74V403.568C348.74 403.568 356.683 398.913 348.74 384.948L346.975 304.88L341.679 266.708H275.484Z" fill="#2F2E41"/>
<path d="M282.545 425.913C282.545 425.913 276.367 423.12 273.719 424.982C271.071 426.844 269.306 424.051 269.306 424.051C269.306 424.051 265.776 422.189 264.893 424.982C264.214 426.944 263.326 428.818 262.245 430.568C262.245 430.568 256.95 440.81 260.48 443.603C264.01 446.396 266.658 448.258 266.658 450.12C266.658 451.982 283.428 452.913 283.428 450.12C283.428 447.327 282.545 425.913 282.545 425.913Z" fill="#2F2E41"/>
<path d="M333.736 425.913C333.736 425.913 339.914 423.12 342.562 424.982C345.209 426.844 346.975 424.051 346.975 424.051C346.975 424.051 350.505 422.189 351.388 424.982C352.066 426.944 352.955 428.818 354.035 430.568C354.035 430.568 359.331 440.81 355.801 443.603C352.27 446.396 349.622 448.258 349.622 450.12C349.622 451.982 332.853 452.913 332.853 450.12C332.853 447.327 333.736 425.913 333.736 425.913Z" fill="#2F2E41"/>
<path d="M327.999 152.657C327.999 152.657 303.286 142.415 290.047 146.14C276.808 149.864 254.743 166.622 255.626 170.346C256.508 174.07 264.893 217.363 264.893 217.363C264.893 217.363 264.893 243.432 269.306 251.811C273.719 260.19 274.602 266.708 274.602 266.708L273.719 276.018C273.719 276.018 296.666 277.88 309.023 272.294C321.379 266.708 341.679 270.432 341.679 270.432C341.679 270.432 331.088 223.88 325.792 216.432C320.497 208.984 327.999 152.657 327.999 152.657Z" fill="#575A89"/>
<path d="M263.128 168.019L255.184 170.812C255.184 170.812 248.124 181.984 248.124 189.432C248.124 196.881 247.241 243.432 250.772 249.949C254.302 256.466 257.832 269.501 263.128 270.432L269.306 278.811L279.897 271.363L276.367 262.984L263.128 168.019Z" fill="#575A89"/>
<path d="M316.084 154.054L324.863 151.452L328.44 153.123C328.44 153.123 341.679 167.088 346.092 181.053C350.505 195.019 351.388 249.018 351.388 249.018C351.388 249.018 352.27 251.811 351.388 252.742C350.505 253.673 349.622 254.604 349.622 256.466C349.622 258.328 347.857 262.053 347.857 262.053L346.975 269.501L338.149 268.57C338.149 268.57 321.379 216.432 321.379 204.329C321.379 192.226 316.084 154.054 316.084 154.054Z" fill="#575A89"/>
<path d="M313.622 147.906C313.622 147.906 313.877 143.347 311.229 142.416C308.582 141.485 305.051 136.829 297.99 138.692C290.93 140.554 272.395 143.347 271.513 145.209C270.63 147.071 267.982 148.002 268.865 149.864C269.747 151.726 271.513 149.864 269.747 151.726C267.982 153.588 267.1 152.657 267.982 153.588C268.865 154.519 268.865 159.174 268.865 159.174C268.865 159.174 282.104 168.484 285.634 167.553C289.164 166.622 310.234 147.073 310.234 147.073L313.622 147.906Z" fill="#575A89"/>
<path opacity="0.2" d="M268.817 208.827L267.922 240.541L274.983 262.885L268.817 208.827Z" fill="black"/>
<path opacity="0.2" d="M329.73 194.971L337.716 225.56L335.871 249.033L329.73 194.971Z" fill="black"/>
<path d="M286.301 139.814C296.647 139.814 305.035 130.966 305.035 120.052C305.035 109.138 296.647 100.29 286.301 100.29C275.955 100.29 267.567 109.138 267.567 120.052C267.567 130.966 275.955 139.814 286.301 139.814Z" fill="#A0616A"/>
<path d="M270.359 118.689C271.681 122.252 273.003 125.814 274.325 129.377C275.95 133.757 277.811 138.443 281.62 140.887C286.324 143.905 292.604 142.434 297.154 139.165C305.275 133.329 309.405 121.936 307.046 111.874C304.687 101.811 295.999 93.7615 286.236 92.5917L286.048 96.1691L281.886 92.4895C280.779 94.8411 277.279 95.3633 275.597 93.4277C276.69 95.818 275.429 98.7332 273.607 100.564C271.369 102.814 264.966 105.517 265.232 109.538C265.409 112.222 269.327 115.908 270.359 118.689Z" fill="#2F2E41"/>
</svg>
