<?xml version="1.0" encoding="UTF-8"?>
<svg xmlns="http://www.w3.org/2000/svg" xmlns:xlink="http://www.w3.org/1999/xlink" width="438pt" height="331pt" viewBox="0 0 438 331" version="1.1">
<defs>
<filter id="alpha" filterUnits="objectBoundingBox" x="0%" y="0%" width="100%" height="100%">
  <feColorMatrix type="matrix" in="SourceGraphic" values="0 0 0 0 1 0 0 0 0 1 0 0 0 0 1 0 0 0 1 0"/>
</filter>
<mask id="mask0">
  <g filter="url(#alpha)">
<rect x="0" y="0" width="438" height="331" style="fill:rgb(0%,0%,0%);fill-opacity:0.101961;stroke:none;"/>
  </g>
</mask>
<clipPath id="clip1">
  <rect x="0" y="0" width="438" height="331"/>
</clipPath>
<g id="surface5" clip-path="url(#clip1)">
<path style=" stroke:none;fill-rule:nonzero;fill:rgb(0%,0%,0%);fill-opacity:1;" d="M 417.5 188.109375 L 417 204.132812 L 407.789062 220.164062 L 415.480469 202.300781 Z M 417.5 188.109375 "/>
</g>
</defs>
<g id="surface1">
<path style=" stroke:none;fill-rule:nonzero;fill:rgb(18.431373%,18.039216%,25.490196%);fill-opacity:1;" d="M 252.484375 16.121094 C 256.242188 24.132812 248.28125 26.398438 239.15625 30.691406 C 230.035156 34.984375 223.207031 39.675781 219.449219 31.667969 C 215.691406 23.660156 212.644531 7.761719 225.546875 1.6875 C 238.898438 -4.59375 248.726562 8.113281 252.484375 16.121094 Z M 252.484375 16.121094 "/>
<path style=" stroke:none;fill-rule:nonzero;fill:rgb(100%,72.156863%,72.156863%);fill-opacity:1;" d="M 246.152344 19.574219 C 246.152344 26.367188 240.65625 31.875 233.875 31.875 C 227.089844 31.875 221.59375 26.367188 221.59375 19.574219 C 221.59375 12.78125 227.089844 7.273438 233.875 7.273438 C 240.65625 7.273438 246.152344 12.78125 246.152344 19.574219 Z M 246.152344 19.574219 "/>
<path style=" stroke:none;fill-rule:nonzero;fill:rgb(18.431373%,18.039216%,25.490196%);fill-opacity:1;" d="M 294.714844 74.117188 C 294.289062 73.5625 293.863281 73.015625 293.433594 72.484375 C 292.878906 71.792969 292.320312 71.125 291.757812 70.476562 C 285.394531 63.121094 278.621094 58.488281 271.167969 57.992188 L 271.15625 57.992188 L 271.046875 57.984375 L 256.191406 72.484375 L 251.144531 77.414062 L 251.253906 77.683594 L 253.976562 84.480469 L 301.722656 84.480469 C 299.570312 80.902344 297.230469 77.445312 294.714844 74.117188 Z M 294.714844 74.117188 "/>
<path style=" stroke:none;fill-rule:nonzero;fill:rgb(18.431373%,18.039216%,25.490196%);fill-opacity:1;" d="M 220.519531 24.527344 L 224.914062 22.457031 L 224.300781 16.105469 L 227.242188 21.363281 L 229.34375 20.371094 L 228.984375 16.667969 L 230.699219 19.734375 L 246.3125 12.386719 C 243.257812 5.878906 235.515625 3.082031 229.019531 6.140625 L 226.757812 7.203125 C 220.257812 10.261719 217.464844 18.019531 220.519531 24.527344 Z M 220.519531 24.527344 "/>
<path style=" stroke:none;fill-rule:nonzero;fill:rgb(94.901961%,94.901961%,94.901961%);fill-opacity:1;" d="M 322.261719 247.773438 L 65.84375 247.773438 C 61.289062 247.769531 57.597656 244.074219 57.59375 239.511719 L 57.59375 85.203125 C 57.597656 81.859375 60.300781 79.152344 63.636719 79.148438 L 324.363281 79.148438 C 327.757812 79.152344 330.507812 81.90625 330.511719 85.304688 L 330.511719 239.511719 C 330.507812 244.074219 326.816406 247.769531 322.261719 247.773438 Z M 322.261719 247.773438 "/>
<path style=" stroke:none;fill-rule:nonzero;fill:rgb(100%,100%,100%);fill-opacity:1;" d="M 73.84375 239.511719 L 314.261719 239.511719 C 318.679688 239.511719 322.261719 235.925781 322.261719 231.5 L 322.261719 100.527344 C 322.261719 96.101562 318.679688 92.515625 314.261719 92.515625 L 73.84375 92.515625 C 69.425781 92.515625 65.84375 96.101562 65.84375 100.527344 L 65.84375 231.5 C 65.84375 235.925781 69.425781 239.511719 73.84375 239.511719 Z M 73.84375 239.511719 "/>
<path style=" stroke:none;fill-rule:nonzero;fill:rgb(42.352941%,38.823529%,100%);fill-opacity:1;" d="M 330.398438 84.730469 L 57.476562 84.730469 L 57.476562 80.523438 C 57.484375 75.945312 61.1875 72.238281 65.757812 72.234375 L 322.117188 72.234375 C 326.6875 72.238281 330.390625 75.945312 330.398438 80.523438 Z M 330.398438 84.730469 "/>
<path style=" stroke:none;fill-rule:nonzero;fill:rgb(100%,100%,100%);fill-opacity:1;" d="M 74.667969 78.496094 C 74.667969 79.679688 73.707031 80.640625 72.527344 80.640625 C 71.34375 80.640625 70.382812 79.679688 70.382812 78.496094 C 70.382812 77.308594 71.34375 76.351562 72.527344 76.351562 C 73.707031 76.351562 74.667969 77.308594 74.667969 78.496094 Z M 74.667969 78.496094 "/>
<path style=" stroke:none;fill-rule:nonzero;fill:rgb(100%,100%,100%);fill-opacity:1;" d="M 82.796875 78.496094 C 82.796875 79.679688 81.839844 80.640625 80.65625 80.640625 C 79.472656 80.640625 78.511719 79.679688 78.511719 78.496094 C 78.511719 77.308594 79.472656 76.351562 80.65625 76.351562 C 81.839844 76.351562 82.796875 77.308594 82.796875 78.496094 Z M 82.796875 78.496094 "/>
<path style=" stroke:none;fill-rule:nonzero;fill:rgb(100%,100%,100%);fill-opacity:1;" d="M 90.925781 78.496094 C 90.925781 79.679688 89.96875 80.640625 88.785156 80.640625 C 87.601562 80.640625 86.644531 79.679688 86.644531 78.496094 C 86.644531 77.308594 87.601562 76.351562 88.785156 76.351562 C 89.96875 76.351562 90.925781 77.308594 90.925781 78.496094 Z M 90.925781 78.496094 "/>
<path style=" stroke:none;fill-rule:nonzero;fill:rgb(80%,80%,80%);fill-opacity:1;" d="M 201.554688 211.109375 L 180.054688 211.109375 C 177.433594 211.105469 175.308594 208.976562 175.304688 206.351562 L 175.304688 184.820312 C 175.308594 182.191406 177.433594 180.066406 180.054688 180.0625 L 201.554688 180.0625 C 204.175781 180.066406 206.300781 182.191406 206.304688 184.820312 L 206.304688 206.351562 C 206.300781 208.976562 204.175781 211.105469 201.554688 211.109375 Z M 180.054688 181.0625 C 177.984375 181.066406 176.308594 182.746094 176.304688 184.820312 L 176.304688 206.351562 C 176.308594 208.425781 177.984375 210.105469 180.054688 210.105469 L 201.554688 210.105469 C 203.625 210.105469 205.304688 208.425781 205.304688 206.351562 L 205.304688 184.820312 C 205.304688 182.746094 203.625 181.066406 201.554688 181.0625 Z M 180.054688 181.0625 "/>
<path style=" stroke:none;fill-rule:nonzero;fill:rgb(80%,80%,80%);fill-opacity:1;" d="M 197.304688 205.097656 L 184.304688 205.097656 C 183.476562 205.097656 182.804688 204.425781 182.804688 203.597656 L 182.804688 187.574219 C 182.804688 186.742188 183.476562 186.070312 184.304688 186.070312 L 193.726562 186.070312 C 194.066406 186.070312 194.398438 186.1875 194.664062 186.402344 L 198.246094 189.285156 C 198.601562 189.566406 198.804688 190 198.804688 190.453125 L 198.804688 203.597656 C 198.804688 204.425781 198.132812 205.097656 197.304688 205.097656 Z M 184.304688 187.070312 C 184.027344 187.074219 183.804688 187.296875 183.804688 187.574219 L 183.804688 203.597656 C 183.804688 203.875 184.027344 204.097656 184.304688 204.097656 L 197.304688 204.097656 C 197.582031 204.097656 197.804688 203.875 197.804688 203.597656 L 197.804688 190.453125 C 197.804688 190.300781 197.738281 190.160156 197.617188 190.0625 L 194.039062 187.183594 C 193.949219 187.109375 193.839844 187.070312 193.726562 187.070312 Z M 184.304688 187.070312 "/>
<path style=" stroke:none;fill-rule:nonzero;fill:rgb(80%,80%,80%);fill-opacity:1;" d="M 194.804688 193.082031 L 186.804688 193.082031 C 186.527344 193.082031 186.304688 192.855469 186.304688 192.582031 C 186.304688 192.304688 186.527344 192.078125 186.804688 192.078125 L 194.804688 192.078125 C 195.082031 192.078125 195.304688 192.304688 195.304688 192.582031 C 195.304688 192.855469 195.082031 193.082031 194.804688 193.082031 Z M 194.804688 193.082031 "/>
<path style=" stroke:none;fill-rule:nonzero;fill:rgb(80%,80%,80%);fill-opacity:1;" d="M 194.804688 196.085938 L 186.804688 196.085938 C 186.527344 196.085938 186.304688 195.863281 186.304688 195.585938 C 186.304688 195.308594 186.527344 195.085938 186.804688 195.085938 L 194.804688 195.085938 C 195.082031 195.085938 195.304688 195.308594 195.304688 195.585938 C 195.304688 195.863281 195.082031 196.085938 194.804688 196.085938 Z M 194.804688 196.085938 "/>
<path style=" stroke:none;fill-rule:nonzero;fill:rgb(80%,80%,80%);fill-opacity:1;" d="M 194.804688 199.089844 L 186.804688 199.089844 C 186.527344 199.089844 186.304688 198.867188 186.304688 198.589844 C 186.304688 198.3125 186.527344 198.089844 186.804688 198.089844 L 194.804688 198.089844 C 195.082031 198.089844 195.304688 198.3125 195.304688 198.589844 C 195.304688 198.867188 195.082031 199.089844 194.804688 199.089844 Z M 194.804688 199.089844 "/>
<path style=" stroke:none;fill-rule:nonzero;fill:rgb(80%,80%,80%);fill-opacity:1;" d="M 252.554688 211.109375 L 231.054688 211.109375 C 228.433594 211.105469 226.308594 208.976562 226.304688 206.351562 L 226.304688 184.820312 C 226.308594 182.191406 228.433594 180.066406 231.054688 180.0625 L 252.554688 180.0625 C 255.175781 180.066406 257.300781 182.191406 257.304688 184.820312 L 257.304688 206.351562 C 257.300781 208.976562 255.175781 211.105469 252.554688 211.109375 Z M 231.054688 181.0625 C 228.984375 181.066406 227.308594 182.746094 227.304688 184.820312 L 227.304688 206.351562 C 227.308594 208.425781 228.984375 210.105469 231.054688 210.105469 L 252.554688 210.105469 C 254.625 210.105469 256.304688 208.425781 256.304688 206.351562 L 256.304688 184.820312 C 256.304688 182.746094 254.625 181.066406 252.554688 181.0625 Z M 231.054688 181.0625 "/>
<path style=" stroke:none;fill-rule:nonzero;fill:rgb(80%,80%,80%);fill-opacity:1;" d="M 248.804688 201.09375 L 234.804688 201.09375 C 233.976562 201.09375 233.304688 200.421875 233.304688 199.589844 L 233.304688 191.578125 C 233.304688 190.75 233.976562 190.078125 234.804688 190.078125 L 248.804688 190.078125 C 249.632812 190.078125 250.304688 190.75 250.304688 191.578125 L 250.304688 199.589844 C 250.304688 200.421875 249.632812 201.09375 248.804688 201.09375 Z M 234.804688 191.078125 C 234.527344 191.078125 234.304688 191.300781 234.304688 191.578125 L 234.304688 199.589844 C 234.304688 199.867188 234.527344 200.089844 234.804688 200.089844 L 248.804688 200.089844 C 249.082031 200.089844 249.304688 199.867188 249.304688 199.589844 L 249.304688 191.578125 C 249.304688 191.300781 249.082031 191.078125 248.804688 191.078125 Z M 234.804688 191.078125 "/>
<path style=" stroke:none;fill-rule:nonzero;fill:rgb(80%,80%,80%);fill-opacity:1;" d="M 241.804688 196.90625 C 241.523438 196.90625 241.25 196.828125 241.011719 196.679688 L 233.539062 192.003906 C 233.304688 191.855469 233.234375 191.546875 233.382812 191.3125 C 233.527344 191.078125 233.835938 191.007812 234.070312 191.152344 L 241.539062 195.828125 C 241.703125 195.929688 241.90625 195.929688 242.070312 195.828125 L 249.539062 191.152344 C 249.773438 191.007812 250.082031 191.078125 250.226562 191.3125 C 250.375 191.546875 250.304688 191.855469 250.070312 192.003906 L 242.601562 196.679688 C 242.363281 196.828125 242.085938 196.90625 241.804688 196.90625 Z M 241.804688 196.90625 "/>
<path style=" stroke:none;fill-rule:nonzero;fill:rgb(80%,80%,80%);fill-opacity:1;" d="M 150.554688 211.109375 L 129.054688 211.109375 C 126.433594 211.105469 124.308594 208.976562 124.304688 206.351562 L 124.304688 184.820312 C 124.308594 182.191406 126.433594 180.066406 129.054688 180.0625 L 150.554688 180.0625 C 153.175781 180.066406 155.300781 182.191406 155.304688 184.820312 L 155.304688 206.351562 C 155.300781 208.976562 153.175781 211.105469 150.554688 211.109375 Z M 129.054688 181.0625 C 126.984375 181.066406 125.308594 182.746094 125.304688 184.820312 L 125.304688 206.351562 C 125.308594 208.425781 126.984375 210.105469 129.054688 210.105469 L 150.554688 210.105469 C 152.625 210.105469 154.304688 208.425781 154.304688 206.351562 L 154.304688 184.820312 C 154.304688 182.746094 152.625 181.066406 150.554688 181.0625 Z M 129.054688 181.0625 "/>
<path style=" stroke:none;fill-rule:nonzero;fill:rgb(80%,80%,80%);fill-opacity:1;" d="M 146.804688 201.09375 L 132.804688 201.09375 C 131.976562 201.09375 131.304688 200.421875 131.304688 199.589844 L 131.304688 191.578125 C 131.304688 190.75 131.976562 190.078125 132.804688 190.078125 L 146.804688 190.078125 C 147.632812 190.078125 148.304688 190.75 148.304688 191.578125 L 148.304688 199.589844 C 148.304688 200.421875 147.632812 201.09375 146.804688 201.09375 Z M 132.804688 191.078125 C 132.527344 191.078125 132.304688 191.300781 132.304688 191.578125 L 132.304688 199.589844 C 132.304688 199.867188 132.527344 200.089844 132.804688 200.089844 L 146.804688 200.089844 C 147.082031 200.089844 147.304688 199.867188 147.304688 199.589844 L 147.304688 191.578125 C 147.304688 191.300781 147.082031 191.078125 146.804688 191.078125 Z M 132.804688 191.078125 "/>
<path style=" stroke:none;fill-rule:nonzero;fill:rgb(80%,80%,80%);fill-opacity:1;" d="M 144.585938 201.09375 L 134.523438 201.09375 C 134.167969 201.09375 133.835938 200.902344 133.65625 200.59375 C 133.480469 200.28125 133.480469 199.902344 133.65625 199.589844 L 136.6875 194.332031 C 136.867188 194.023438 137.199219 193.832031 137.554688 193.832031 C 137.914062 193.832031 138.242188 194.023438 138.421875 194.332031 L 140.378906 197.730469 L 141.511719 195.761719 C 141.691406 195.453125 142.019531 195.261719 142.378906 195.261719 C 142.734375 195.261719 143.066406 195.453125 143.246094 195.761719 L 145.453125 199.589844 C 145.632812 199.902344 145.632812 200.28125 145.453125 200.59375 C 145.273438 200.902344 144.945312 201.09375 144.585938 201.09375 Z M 144.585938 200.089844 L 142.378906 196.261719 L 140.8125 198.980469 C 140.722656 199.136719 140.558594 199.230469 140.378906 199.230469 C 140.199219 199.230469 140.035156 199.136719 139.945312 198.980469 L 137.554688 194.832031 L 134.523438 200.089844 Z M 144.585938 200.089844 "/>
<path style=" stroke:none;fill-rule:nonzero;fill:rgb(80%,80%,80%);fill-opacity:1;" d="M 146.304688 193.082031 C 146.304688 193.632812 145.855469 194.082031 145.304688 194.082031 C 144.753906 194.082031 144.304688 193.632812 144.304688 193.082031 C 144.304688 192.527344 144.753906 192.078125 145.304688 192.078125 C 145.855469 192.078125 146.304688 192.527344 146.304688 193.082031 Z M 146.304688 193.082031 "/>
<path style=" stroke:none;fill-rule:nonzero;fill:rgb(100%,72.156863%,72.156863%);fill-opacity:1;" d="M 384.414062 324.566406 L 378.28125 324.566406 L 375.367188 300.886719 L 384.414062 300.886719 Z M 384.414062 324.566406 "/>
<path style=" stroke:none;fill-rule:nonzero;fill:rgb(18.431373%,18.039216%,25.490196%);fill-opacity:1;" d="M 385.976562 330.515625 L 366.210938 330.515625 L 366.210938 330.265625 C 366.210938 326.011719 369.65625 322.558594 373.902344 322.558594 L 385.976562 322.5625 Z M 385.976562 330.515625 "/>
<path style=" stroke:none;fill-rule:nonzero;fill:rgb(100%,72.156863%,72.156863%);fill-opacity:1;" d="M 409.414062 324.566406 L 403.28125 324.566406 L 400.367188 300.886719 L 409.414062 300.886719 Z M 409.414062 324.566406 "/>
<path style=" stroke:none;fill-rule:nonzero;fill:rgb(18.431373%,18.039216%,25.490196%);fill-opacity:1;" d="M 410.976562 330.515625 L 391.210938 330.515625 L 391.210938 330.265625 C 391.210938 326.011719 394.65625 322.558594 398.902344 322.558594 L 410.976562 322.5625 Z M 410.976562 330.515625 "/>
<path style=" stroke:none;fill-rule:nonzero;fill:rgb(18.431373%,18.039216%,25.490196%);fill-opacity:1;" d="M 407.574219 314.300781 L 401.898438 312.570312 C 401.03125 312.308594 400.410156 311.550781 400.316406 310.652344 L 395.023438 260.410156 C 395.011719 260.285156 394.910156 260.1875 394.78125 260.1875 C 394.65625 260.175781 394.542969 260.265625 394.527344 260.394531 L 385.660156 309.066406 C 385.554688 309.664062 385.207031 310.191406 384.707031 310.53125 C 384.203125 310.867188 383.585938 310.992188 382.996094 310.867188 L 375.738281 309.371094 C 374.636719 309.140625 373.875 308.136719 373.949219 307.011719 L 379.339844 227.234375 L 415.910156 223.285156 L 410.476562 312.28125 C 410.402344 313.46875 409.421875 314.394531 408.234375 314.398438 C 408.011719 314.398438 407.789062 314.363281 407.574219 314.300781 Z M 407.574219 314.300781 "/>
<path style=" stroke:none;fill-rule:nonzero;fill:rgb(100%,72.156863%,72.156863%);fill-opacity:1;" d="M 419.820312 145.464844 C 419.820312 152.253906 414.324219 157.761719 407.539062 157.761719 C 400.757812 157.761719 395.257812 152.253906 395.257812 145.464844 C 395.257812 138.671875 400.757812 133.164062 407.539062 133.164062 C 414.324219 133.164062 419.820312 138.671875 419.820312 145.464844 Z M 419.820312 145.464844 "/>
<path style=" stroke:none;fill-rule:nonzero;fill:rgb(42.352941%,38.823529%,100%);fill-opacity:1;" d="M 379.285156 227.703125 L 387.214844 177.703125 C 388.066406 172.324219 391.1875 167.574219 395.78125 164.660156 C 400.375 161.746094 405.996094 160.953125 411.214844 162.480469 C 420.5625 165.1875 426.324219 174.570312 424.515625 184.144531 L 416.222656 228.796875 Z M 379.285156 227.703125 "/>
<path style=" stroke:none;fill-rule:nonzero;fill:rgb(100%,72.156863%,72.156863%);fill-opacity:1;" d="M 410.929688 236.648438 C 412.171875 235.828125 412.988281 234.5 413.15625 233.019531 C 413.324219 231.539062 412.828125 230.058594 411.804688 228.980469 L 420.003906 213.078125 L 410.769531 214.066406 L 404.398438 229.011719 C 402.664062 230.898438 402.613281 233.789062 404.277344 235.738281 C 405.945312 237.683594 408.800781 238.078125 410.929688 236.648438 Z M 410.929688 236.648438 "/>
<path style=" stroke:none;fill-rule:nonzero;fill:rgb(42.352941%,38.823529%,100%);fill-opacity:1;" d="M 412.6875 226.175781 C 412.230469 226.109375 411.808594 225.910156 411.472656 225.597656 L 408.335938 222.695312 C 407.640625 222.050781 407.425781 221.039062 407.789062 220.164062 L 414.058594 205.28125 L 413.167969 175.878906 C 413.707031 171.902344 417.363281 169.117188 421.332031 169.660156 C 425.300781 170.203125 428.078125 173.867188 427.53125 177.839844 L 429.054688 196.324219 C 429.515625 201.933594 427.929688 207.523438 424.585938 212.046875 L 414.808594 225.28125 C 414.429688 225.796875 413.847656 226.125 413.210938 226.1875 C 413.035156 226.203125 412.859375 226.199219 412.6875 226.175781 Z M 412.6875 226.175781 "/>
<path style=" stroke:none;fill-rule:nonzero;fill:rgb(100%,72.156863%,72.156863%);fill-opacity:1;" d="M 336.820312 138.761719 C 337.089844 140.226562 337.996094 141.496094 339.292969 142.230469 C 340.585938 142.964844 342.140625 143.082031 343.535156 142.558594 L 354.957031 156.320312 L 357.648438 147.417969 L 346.390625 135.71875 C 345.332031 133.382812 342.695312 132.207031 340.253906 132.984375 C 337.8125 133.761719 336.335938 136.242188 336.820312 138.761719 Z M 336.820312 138.761719 "/>
<path style=" stroke:none;fill-rule:nonzero;fill:rgb(42.352941%,38.823529%,100%);fill-opacity:1;" d="M 345.769531 144.464844 C 346.003906 144.074219 346.355469 143.761719 346.769531 143.570312 L 350.664062 141.808594 C 351.527344 141.421875 352.542969 141.613281 353.203125 142.292969 L 364.441406 153.878906 L 391.824219 164.523438 C 394.054688 165.84375 395.410156 168.257812 395.378906 170.855469 C 395.347656 173.449219 393.933594 175.832031 391.671875 177.101562 C 389.414062 178.367188 386.648438 178.332031 384.421875 177.003906 L 366.832031 171.199219 C 361.492188 169.4375 356.976562 165.796875 354.117188 160.949219 L 345.761719 146.769531 C 345.433594 146.21875 345.359375 145.554688 345.550781 144.945312 C 345.605469 144.777344 345.679688 144.617188 345.769531 144.464844 Z M 345.769531 144.464844 "/>
<use xlink:href="#surface5" mask="url(#mask0)"/>
<path style=" stroke:none;fill-rule:nonzero;fill:rgb(18.431373%,18.039216%,25.490196%);fill-opacity:1;" d="M 406.132812 147.773438 C 404.539062 147.980469 403.035156 146.976562 402.617188 145.417969 C 402.222656 143.65625 400.882812 142.253906 399.140625 141.777344 C 396.890625 141.261719 394.136719 142.324219 392.484375 140.613281 C 391.769531 139.824219 391.476562 138.734375 391.699219 137.6875 C 392.003906 136.027344 393.1875 134.773438 394.480469 133.769531 C 397.195312 131.667969 400.484375 130.4375 403.914062 130.238281 C 405.6875 130.1875 407.460938 130.277344 409.222656 130.503906 C 411.066406 130.621094 412.890625 130.953125 414.65625 131.496094 C 418.742188 133.042969 421.757812 136.570312 422.65625 140.851562 C 423.472656 145.128906 422.363281 149.550781 419.628906 152.933594 C 418.007812 154.953125 415.921875 156.546875 413.546875 157.570312 C 412.980469 157.839844 412.332031 157.871094 411.742188 157.664062 C 410.265625 157.074219 410.507812 155.238281 411.179688 154.015625 C 411.902344 152.707031 413.011719 151.4375 412.433594 149.847656 C 412.140625 149.105469 411.582031 148.503906 410.867188 148.160156 C 409.398438 147.410156 407.753906 147.585938 406.175781 147.769531 Z M 406.132812 147.773438 "/>
<path style=" stroke:none;fill-rule:nonzero;fill:rgb(100%,100%,100%);fill-opacity:1;" d="M 332.714844 154.71875 L 180.714844 154.71875 C 176.164062 154.714844 172.472656 151.019531 172.464844 146.457031 L 172.464844 113.910156 C 172.472656 109.347656 176.164062 105.652344 180.714844 105.644531 L 332.714844 105.644531 C 337.269531 105.652344 340.960938 109.347656 340.964844 113.910156 L 340.964844 146.457031 C 340.960938 151.019531 337.269531 154.714844 332.714844 154.71875 Z M 332.714844 154.71875 "/>
<path style=" stroke:none;fill-rule:nonzero;fill:rgb(24.705882%,23.921569%,33.72549%);fill-opacity:1;" d="M 332.714844 154.96875 L 180.714844 154.96875 C 176.023438 154.964844 172.222656 151.15625 172.214844 146.457031 L 172.214844 113.910156 C 172.222656 109.210938 176.023438 105.402344 180.714844 105.394531 L 332.714844 105.394531 C 337.410156 105.402344 341.210938 109.210938 341.214844 113.910156 L 341.214844 146.457031 C 341.210938 151.15625 337.410156 154.964844 332.714844 154.96875 Z M 180.714844 106.398438 C 176.578125 106.402344 173.222656 109.761719 173.214844 113.910156 L 173.214844 146.457031 C 173.222656 150.605469 176.578125 153.964844 180.714844 153.96875 L 332.714844 153.96875 C 336.855469 153.964844 340.210938 150.605469 340.214844 146.457031 L 340.214844 113.910156 C 340.210938 109.761719 336.855469 106.402344 332.714844 106.398438 Z M 180.714844 106.398438 "/>
<path style=" stroke:none;fill-rule:nonzero;fill:rgb(94.901961%,94.901961%,94.901961%);fill-opacity:1;" d="M 314.214844 146.707031 L 199.214844 146.707031 C 194.664062 146.703125 190.972656 143.007812 190.964844 138.445312 L 190.964844 121.417969 C 190.972656 116.859375 194.664062 113.164062 199.214844 113.15625 L 314.214844 113.15625 C 318.769531 113.164062 322.460938 116.859375 322.464844 121.417969 L 322.464844 138.445312 C 322.460938 143.007812 318.769531 146.703125 314.214844 146.707031 Z M 314.214844 146.707031 "/>
<path style=" stroke:none;fill-rule:nonzero;fill:rgb(100%,39.607843%,51.764706%);fill-opacity:1;" d="M 233.832031 127.648438 C 233.832031 133.105469 229.414062 137.53125 223.964844 137.53125 C 218.515625 137.53125 214.097656 133.105469 214.097656 127.648438 C 214.097656 122.191406 218.515625 117.769531 223.964844 117.769531 C 229.414062 117.769531 233.832031 122.191406 233.832031 127.648438 Z M 233.832031 127.648438 "/>
<path style=" stroke:none;fill-rule:nonzero;fill:rgb(24.705882%,23.921569%,33.72549%);fill-opacity:1;" d="M 307.070312 145.710938 L 293.144531 134.011719 L 279.457031 122.519531 C 278.710938 121.890625 277.625 121.894531 276.882812 122.523438 L 263.238281 134.070312 L 259.90625 136.890625 L 254.882812 132.671875 L 239.613281 119.847656 C 238.871094 119.222656 237.78125 119.222656 237.039062 119.851562 L 221.820312 132.734375 L 206.363281 145.820312 C 206.199219 145.957031 206.140625 146.179688 206.214844 146.378906 C 206.289062 146.574219 206.476562 146.707031 206.683594 146.707031 L 238.378906 146.644531 L 248.410156 146.625 L 248.3125 146.707031 L 278.214844 146.648438 L 306.75 146.59375 C 306.960938 146.59375 307.148438 146.464844 307.21875 146.265625 C 307.289062 146.066406 307.230469 145.847656 307.070312 145.710938 Z M 307.070312 145.710938 "/>
<path style=" stroke:none;fill-rule:nonzero;fill:rgb(80%,80%,80%);fill-opacity:1;" d="M 437.636719 331.238281 L 341.636719 331.238281 C 341.359375 331.238281 341.136719 331.011719 341.136719 330.734375 C 341.136719 330.460938 341.359375 330.234375 341.636719 330.234375 L 437.636719 330.234375 C 437.910156 330.234375 438.136719 330.460938 438.136719 330.734375 C 438.136719 331.011719 437.910156 331.238281 437.636719 331.238281 Z M 437.636719 331.238281 "/>
<path style=" stroke:none;fill-rule:nonzero;fill:rgb(100%,72.156863%,72.156863%);fill-opacity:1;" d="M 302.027344 66.054688 C 301.222656 64.742188 299.910156 63.820312 298.402344 63.503906 C 298.128906 63.445312 297.851562 63.410156 297.574219 63.398438 L 259.476562 29.285156 C 258.730469 28.515625 257.730469 28.039062 256.664062 27.9375 C 256.453125 27.914062 256.238281 27.90625 256.027344 27.917969 C 254.230469 28 252.65625 29.136719 252.007812 30.820312 C 251.363281 32.5 251.769531 34.402344 253.046875 35.671875 L 267.632812 48.402344 L 291.582031 69.3125 C 291.601562 69.703125 291.660156 70.09375 291.757812 70.476562 C 292.34375 72.746094 294.269531 74.414062 296.59375 74.667969 C 297.628906 74.789062 298.675781 74.617188 299.617188 74.167969 C 300.363281 73.820312 301.027344 73.3125 301.558594 72.679688 C 301.613281 72.617188 301.664062 72.554688 301.714844 72.484375 C 303.144531 70.617188 303.269531 68.054688 302.027344 66.054688 Z M 302.027344 66.054688 "/>
<path style=" stroke:none;fill-rule:nonzero;fill:rgb(100%,72.156863%,72.156863%);fill-opacity:1;" d="M 236.867188 98.929688 L 236.511719 84.480469 L 236.214844 72.484375 L 236.007812 64.09375 L 235.601562 47.734375 C 235.4375 45.945312 234.234375 44.421875 232.53125 43.851562 C 230.832031 43.28125 228.953125 43.773438 227.746094 45.105469 C 227.609375 45.253906 227.484375 45.414062 227.371094 45.585938 C 226.757812 46.46875 226.480469 47.542969 226.59375 48.613281 L 227.484375 72.484375 L 227.929688 84.480469 L 228.496094 99.777344 C 228.332031 100 228.183594 100.238281 228.054688 100.484375 C 227.335938 101.847656 227.207031 103.449219 227.699219 104.910156 C 228.210938 106.445312 229.355469 107.683594 230.84375 108.320312 C 232.332031 108.953125 234.015625 108.921875 235.476562 108.230469 C 237.183594 107.421875 238.371094 105.820312 238.652344 103.953125 C 238.929688 102.085938 238.261719 100.203125 236.867188 98.929688 Z M 236.867188 98.929688 "/>
<path style=" stroke:none;fill-rule:nonzero;fill:rgb(80%,80%,80%);fill-opacity:1;" d="M 271.167969 57.992188 L 267.632812 48.402344 L 261.914062 32.871094 C 261.078125 30.582031 259.246094 28.796875 256.9375 28.023438 C 256.847656 27.992188 256.753906 27.964844 256.664062 27.9375 C 254.429688 27.257812 252.011719 27.59375 250.042969 28.851562 L 230.777344 41.089844 C 227.109375 43.414062 225.945312 48.230469 228.144531 51.980469 C 230.550781 56.152344 233.175781 60.195312 236.007812 64.09375 C 238.253906 67.152344 242.433594 67.476562 243.15625 72.484375 L 257.363281 72.484375 L 271.742188 59.554688 Z M 271.167969 57.992188 "/>
<path style=" stroke:none;fill-rule:nonzero;fill:rgb(62.745098%,38.039216%,41.568627%);fill-opacity:1;" d="M 62.167969 163.589844 C 62.167969 169.996094 56.980469 175.191406 50.582031 175.191406 C 44.183594 175.191406 38.996094 169.996094 38.996094 163.589844 C 38.996094 157.179688 44.183594 151.984375 50.582031 151.984375 C 56.980469 151.984375 62.167969 157.179688 62.167969 163.589844 Z M 62.167969 163.589844 "/>
<path style=" stroke:none;fill-rule:nonzero;fill:rgb(62.745098%,38.039216%,41.568627%);fill-opacity:1;" d="M 79.027344 155.601562 C 79.140625 155.691406 79.25 155.789062 79.359375 155.890625 C 80.433594 156.90625 81.027344 158.332031 80.988281 159.8125 C 80.945312 161.292969 80.277344 162.6875 79.148438 163.644531 C 79.019531 163.753906 78.882812 163.855469 78.742188 163.953125 L 79.527344 190.464844 C 79.570312 192.246094 78.445312 193.847656 76.753906 194.402344 L 76.707031 194.414062 L 55.210938 196.707031 C 53.621094 196.875 52.0625 196.175781 51.128906 194.875 C 50.195312 193.578125 50.03125 191.875 50.695312 190.417969 C 51.363281 188.960938 52.757812 187.976562 54.351562 187.835938 L 69.671875 186.484375 L 72.324219 163.523438 C 72.148438 163.371094 71.988281 163.207031 71.835938 163.027344 C 70.117188 160.988281 70.21875 157.972656 72.074219 156.054688 C 73.929688 154.136719 76.9375 153.941406 79.027344 155.601562 Z M 79.027344 155.601562 "/>
<path style=" stroke:none;fill-rule:nonzero;fill:rgb(62.745098%,38.039216%,41.568627%);fill-opacity:1;" d="M 69.664062 325.078125 L 75.449219 325.078125 L 78.199219 302.738281 L 69.664062 302.738281 Z M 69.664062 325.078125 "/>
<path style=" stroke:none;fill-rule:nonzero;fill:rgb(18.431373%,18.039216%,25.490196%);fill-opacity:1;" d="M 68.1875 323.1875 L 79.578125 323.1875 C 83.585938 323.1875 86.835938 326.441406 86.835938 330.457031 L 86.835938 330.691406 L 68.1875 330.691406 Z M 68.1875 323.1875 "/>
<path style=" stroke:none;fill-rule:nonzero;fill:rgb(62.745098%,38.039216%,41.568627%);fill-opacity:1;" d="M 12.183594 317.070312 L 17.152344 320.03125 L 30.929688 302.246094 L 23.59375 297.875 Z M 12.183594 317.070312 "/>
<path style=" stroke:none;fill-rule:nonzero;fill:rgb(18.431373%,18.039216%,25.490196%);fill-opacity:1;" d="M 11.882812 314.691406 L 21.667969 320.523438 C 25.113281 322.578125 26.242188 327.039062 24.191406 330.488281 L 24.070312 330.691406 L 8.046875 321.136719 Z M 11.882812 314.691406 "/>
<path style=" stroke:none;fill-rule:nonzero;fill:rgb(18.431373%,18.039216%,25.490196%);fill-opacity:1;" d="M 76.8125 317.1875 L 70.335938 317.1875 C 69.25 317.1875 68.339844 316.367188 68.226562 315.285156 L 61.695312 253.824219 C 61.664062 253.507812 61.421875 253.25 61.105469 253.199219 C 60.789062 253.148438 60.480469 253.316406 60.347656 253.609375 L 48.570312 279.726562 L 27.71875 313.78125 C 27.160156 314.683594 26.027344 315.035156 25.054688 314.613281 L 16.722656 310.941406 C 16.167969 310.699219 15.742188 310.222656 15.558594 309.644531 C 15.371094 309.0625 15.445312 308.429688 15.757812 307.90625 L 34.925781 275.761719 L 40.804688 248.679688 C 38.957031 236.933594 46.882812 219.472656 46.960938 219.296875 L 47 219.210938 L 68.835938 210.664062 L 68.945312 210.796875 C 77.554688 239.097656 82.800781 269.554688 78.929688 315.238281 C 78.828125 316.335938 77.914062 317.179688 76.8125 317.1875 Z M 76.8125 317.1875 "/>
<path style=" stroke:none;fill-rule:nonzero;fill:rgb(24.705882%,23.921569%,33.72549%);fill-opacity:1;" d="M 46.121094 222.070312 L 46.019531 221.859375 C 45.972656 221.753906 41.117188 211.5 37.375 200.539062 C 35.917969 196.253906 36.324219 191.554688 38.492188 187.582031 C 40.6875 183.570312 44.464844 180.664062 48.898438 179.570312 C 56.773438 177.679688 64.839844 181.847656 67.863281 189.371094 C 70.832031 196.804688 69.886719 204.738281 68.996094 210.980469 L 68.976562 211.105469 L 68.863281 211.160156 Z M 46.121094 222.070312 "/>
<path style=" stroke:none;fill-rule:nonzero;fill:rgb(18.431373%,18.039216%,25.490196%);fill-opacity:1;" d="M 64.628906 157.035156 L 46.234375 157.035156 L 46.234375 149.003906 C 50.269531 147.394531 54.222656 146.03125 56.609375 149.003906 C 61.039062 149.003906 64.628906 152.597656 64.628906 157.035156 Z M 64.628906 157.035156 "/>
<path style=" stroke:none;fill-rule:nonzero;fill:rgb(18.431373%,18.039216%,25.490196%);fill-opacity:1;" d="M 45.214844 147.585938 C 34.214844 147.585938 31.136719 161.390625 31.136719 169.179688 C 31.136719 173.523438 33.097656 175.078125 36.183594 175.605469 L 37.269531 169.789062 L 39.820312 175.855469 C 40.6875 175.859375 41.59375 175.839844 42.539062 175.824219 L 43.402344 174.042969 L 45.332031 175.792969 C 53.050781 175.804688 59.289062 176.929688 59.289062 169.179688 C 59.289062 161.390625 56.589844 147.585938 45.214844 147.585938 Z M 45.214844 147.585938 "/>
<path style=" stroke:none;fill-rule:nonzero;fill:rgb(80%,80%,80%);fill-opacity:1;" d="M 96.5 331.238281 L 0.5 331.238281 C 0.222656 331.238281 0 331.011719 0 330.734375 C 0 330.460938 0.222656 330.234375 0.5 330.234375 L 96.5 330.234375 C 96.777344 330.234375 97 330.460938 97 330.734375 C 97 331.011719 96.777344 331.238281 96.5 331.238281 Z M 96.5 331.238281 "/>
<path style=" stroke:none;fill-rule:nonzero;fill:rgb(100%,100%,100%);fill-opacity:1;" d="M 98.304688 166.488281 L 76.804688 166.488281 C 74.183594 166.484375 72.058594 164.355469 72.054688 161.730469 L 72.054688 140.199219 C 72.058594 137.570312 74.183594 135.445312 76.804688 135.441406 L 98.304688 135.441406 C 100.925781 135.445312 103.050781 137.570312 103.054688 140.199219 L 103.054688 161.730469 C 103.050781 164.355469 100.925781 166.484375 98.304688 166.488281 Z M 98.304688 166.488281 "/>
<path style=" stroke:none;fill-rule:nonzero;fill:rgb(24.705882%,23.921569%,33.72549%);fill-opacity:1;" d="M 98.304688 166.488281 L 76.804688 166.488281 C 74.183594 166.484375 72.058594 164.355469 72.054688 161.730469 L 72.054688 140.199219 C 72.058594 137.570312 74.183594 135.445312 76.804688 135.441406 L 98.304688 135.441406 C 100.925781 135.445312 103.050781 137.570312 103.054688 140.199219 L 103.054688 161.730469 C 103.050781 164.355469 100.925781 166.484375 98.304688 166.488281 Z M 76.804688 136.441406 C 74.734375 136.445312 73.058594 138.125 73.054688 140.199219 L 73.054688 161.730469 C 73.058594 163.804688 74.734375 165.484375 76.804688 165.488281 L 98.304688 165.488281 C 100.375 165.484375 102.054688 163.804688 102.054688 161.730469 L 102.054688 140.199219 C 102.054688 138.125 100.375 136.445312 98.304688 136.441406 Z M 76.804688 136.441406 "/>
<path style=" stroke:none;fill-rule:nonzero;fill:rgb(42.352941%,38.823529%,100%);fill-opacity:1;" d="M 94.554688 157.726562 L 80.554688 157.726562 C 79.726562 157.722656 79.054688 157.050781 79.054688 156.222656 L 79.054688 145.707031 C 79.054688 144.878906 79.726562 144.207031 80.554688 144.203125 L 84.496094 144.203125 C 85.019531 144.203125 85.503906 144.472656 85.773438 144.917969 L 86.871094 146.707031 L 94.554688 146.707031 C 95.382812 146.707031 96.054688 147.382812 96.054688 148.210938 L 96.054688 156.222656 C 96.054688 157.050781 95.382812 157.722656 94.554688 157.726562 Z M 94.554688 157.726562 "/>
<path style=" stroke:none;fill-rule:nonzero;fill:rgb(62.745098%,38.039216%,41.568627%);fill-opacity:1;" d="M 94.101562 163.039062 C 94.167969 163.164062 94.234375 163.296875 94.292969 163.433594 C 94.890625 164.789062 94.886719 166.332031 94.273438 167.683594 C 93.664062 169.03125 92.507812 170.054688 91.097656 170.496094 C 90.933594 170.546875 90.769531 170.589844 90.601562 170.621094 L 81.054688 195.363281 C 80.40625 197.023438 78.746094 198.0625 76.972656 197.914062 L 76.925781 197.90625 L 56.226562 191.667969 C 54.695312 191.203125 53.527344 189.957031 53.171875 188.394531 C 52.8125 186.832031 53.320312 185.199219 54.5 184.117188 C 55.679688 183.035156 57.347656 182.667969 58.867188 183.15625 L 73.515625 187.867188 L 84.851562 167.734375 C 84.75 167.527344 84.667969 167.308594 84.597656 167.089844 C 83.800781 164.539062 85.0625 161.800781 87.515625 160.753906 C 89.972656 159.710938 92.816406 160.695312 94.101562 163.039062 Z M 94.101562 163.039062 "/>
</g>
</svg>
