<svg width="470" height="475" viewBox="0 0 470 475" fill="none" xmlns="http://www.w3.org/2000/svg">
<path d="M100.55 160.878V160.887L92.9498 167.487L40.6842 179.549C39.0757 180.225 37.611 181.223 36.3739 182.487C35.1368 183.751 34.1514 185.255 33.474 186.915C32.1058 190.266 32.0752 194.045 33.3889 197.42C34.0394 199.091 35.0003 200.613 36.2168 201.898C37.4333 203.183 38.8815 204.207 40.4789 204.911C43.7048 206.332 47.3421 206.364 50.5906 204.999L83.8818 199.176C85.7259 198.858 87.5467 198.409 89.3316 197.832C90.0333 197.614 90.7262 197.368 91.4097 197.112C94.3685 183.718 98.5239 170.639 103.822 158.047L100.55 160.878Z" fill="#2F2E41"/>
<path d="M84.0785 460.536L95.2516 460.535L100.567 415.763L84.0767 415.763L84.0785 460.536Z" fill="#FFB8B8"/>
<path d="M116.799 473.207L81.6847 473.208L81.6841 459.113L103.232 459.112C106.83 459.112 110.281 460.597 112.825 463.24C115.37 465.883 116.799 469.468 116.799 473.207Z" fill="#2F2E41"/>
<path d="M28.4866 460.536L39.6597 460.535L44.9746 415.763L28.4847 415.763L28.4866 460.536Z" fill="#FFB8B8"/>
<path d="M61.2075 473.207L26.0928 473.208L26.0921 459.113L47.6399 459.112C51.2381 459.112 54.689 460.597 57.2334 463.24C59.7778 465.883 61.2074 469.468 61.2075 473.207Z" fill="#2F2E41"/>
<path d="M87.1325 278.056L96.9539 358.9C98.3041 370.014 99.2488 381.169 99.7879 392.366L102.434 447.346C102.459 447.858 102.383 448.371 102.211 448.852C102.039 449.333 101.775 449.773 101.434 450.145C101.094 450.517 100.684 450.813 100.23 451.015C99.7761 451.218 99.2872 451.322 98.7932 451.322H83.8869C83.0149 451.322 82.1717 450.997 81.5105 450.407C80.8492 449.816 80.4136 448.999 80.2828 448.103L66.8768 356.344C66.8122 355.902 66.5989 355.498 66.2747 355.203C65.9505 354.909 65.5363 354.743 65.1057 354.735C64.6751 354.728 64.2558 354.879 63.9221 355.162C63.5885 355.445 63.3621 355.841 63.283 356.281L47.1326 446.149C46.9728 446.957 46.5636 447.688 45.9671 448.233C45.3707 448.777 44.6195 449.104 43.8278 449.164L30.1085 450.068C29.5991 450.107 29.0876 450.034 28.6071 449.854C28.1266 449.675 27.6878 449.392 27.3192 449.025C26.9506 448.657 26.6604 448.214 26.4674 447.722C26.2743 447.231 26.1828 446.703 26.1988 446.173L30.6291 298.886L87.1325 278.056Z" fill="#2F2E41"/>
<path d="M43.6176 162.905C55.9797 162.905 66.0011 152.494 66.0011 139.65C66.0011 126.807 55.9797 116.396 43.6176 116.396C31.2555 116.396 21.234 126.807 21.234 139.65C21.234 152.494 31.2555 162.905 43.6176 162.905Z" fill="#FFB8B8"/>
<path d="M26.0724 300.779C31.5405 314.035 55.2354 323.503 60.7035 304.567C64.9323 289.929 81.6826 283.775 89.0735 281.739C90.0028 281.482 90.7973 280.855 91.2851 279.994C91.7729 279.132 91.9149 278.106 91.6803 277.137L71.0198 192.824C69.8165 187.913 67.4198 183.405 64.0593 179.731C60.6988 176.057 56.4869 173.341 51.8268 171.843C35.4048 166.56 18.0893 177.439 15.3094 195.059C14.5502 199.999 14.0664 204.982 13.8605 209.98C12.1468 247.181 22.4724 292.05 26.0724 300.779Z" fill="#3F3D56"/>
<path d="M26.6281 158.671C27.1102 158.968 27.6515 159.146 28.2103 159.19C28.7691 159.235 29.3302 159.145 29.8503 158.929C30.3705 158.712 30.8355 158.374 31.2096 157.94C31.5837 157.507 31.8567 156.989 32.0076 156.429L32.0201 156.376C32.4263 154.611 32.089 152.768 31.9724 150.957C31.8558 149.146 32.0264 147.157 33.2134 145.826C35.4262 143.344 39.3628 144.66 42.5624 144.032C44.4365 143.598 46.094 142.469 47.2246 140.856C48.3552 139.244 48.8815 137.258 48.7049 135.272C48.6593 134.895 48.5879 134.519 48.5078 134.142C48.3076 133.188 48.3231 132.199 48.5529 131.252C48.7827 130.305 49.2207 129.426 49.8323 128.685C50.444 127.944 51.2127 127.36 52.0782 126.979C52.9436 126.598 53.8823 126.431 54.8204 126.491C58.054 126.683 61.5443 127.7 64.2196 125.212C65.2004 124.231 65.8813 122.971 66.1774 121.59C66.4734 120.209 66.3714 118.768 65.8842 117.447C64.3566 112.866 60.0392 110.468 55.7666 109.15C50.4825 107.563 44.9245 107.221 39.4967 108.146C34.069 109.071 28.9079 111.241 24.3887 114.499C21.6901 116.475 19.1698 118.958 18.0196 122.173C16.8694 125.389 17.4243 129.445 20.018 131.568C18.0075 133.779 16.5917 136.501 15.9126 139.459C15.2334 142.418 15.3147 145.511 16.1482 148.427C17.4293 152.715 23.5433 156.827 26.6281 158.671Z" fill="#2F2E41"/>
<path d="M376.009 194.57L368.764 194.522L364.891 194.503L342.7 154.198C342.886 153.776 343.048 153.343 343.183 152.901C345.653 144.985 339.136 139.541 332.93 139.655C332.224 139.654 331.521 139.74 330.834 139.91C343.059 162.894 351.258 187.951 355.048 213.913C355.678 214.098 356.322 214.231 356.972 214.311C360.357 214.628 363.767 214.507 367.124 213.951C371.644 213.354 375.919 212.512 378.197 212.692L376.009 194.57Z" fill="#A0616A"/>
<path d="M350.363 460.721H339.191L333.875 415.949L350.366 415.95L350.363 460.721Z" fill="#A0616A"/>
<path d="M331.21 459.298H352.757V473.393H317.643C317.643 471.542 317.994 469.709 318.675 467.999C319.357 466.289 320.357 464.735 321.616 463.426C322.876 462.117 324.372 461.079 326.018 460.371C327.664 459.663 329.428 459.298 331.21 459.298Z" fill="#2F2E41"/>
<path d="M429.65 460.721H418.478L413.162 415.949L429.653 415.95L429.65 460.721Z" fill="#A0616A"/>
<path d="M410.497 459.298H432.044V473.393H396.93C396.93 471.542 397.281 469.709 397.962 467.999C398.644 466.289 399.644 464.735 400.903 463.426C402.163 462.117 403.659 461.079 405.305 460.371C406.951 459.663 408.715 459.298 410.497 459.298Z" fill="#2F2E41"/>
<path d="M350.552 432.992C350.431 432.992 350.309 432.986 350.187 432.976L334.373 431.661C333.746 431.609 333.136 431.423 332.581 431.113C332.027 430.804 331.54 430.379 331.151 429.865C330.763 429.35 330.481 428.758 330.324 428.125C330.167 427.492 330.137 426.832 330.238 426.186L354.214 272.122L355.82 250.392C355.891 249.376 356.277 248.411 356.92 247.643C357.564 246.874 358.43 246.344 359.389 246.13L383.504 240.65C384.391 240.444 385.316 240.52 386.161 240.868C387.005 241.216 387.729 241.82 388.239 242.601L394.119 251.53C396.428 255.001 398.937 258.324 401.633 261.48C405.805 266.416 412.899 277.377 413.535 295.314C413.706 301.207 414.295 307.078 415.297 312.881L434.712 421.537C434.81 422.174 434.782 422.826 434.629 423.451C434.477 424.076 434.202 424.663 433.823 425.174C433.444 425.685 432.969 426.11 432.426 426.423C431.883 426.737 431.284 426.931 430.666 426.995L415.676 428.175C414.604 428.285 413.529 427.995 412.643 427.357C411.758 426.718 411.12 425.774 410.844 424.691L384.254 321.962C384.202 321.76 384.087 321.582 383.928 321.456C383.769 321.329 383.574 321.261 383.373 321.261C383.172 321.261 382.977 321.33 382.818 321.457C382.659 321.585 382.545 321.763 382.494 321.964L354.953 429.475C354.694 430.483 354.123 431.374 353.327 432.009C352.531 432.645 351.556 432.99 350.552 432.992Z" fill="#2F2E41"/>
<path d="M392.604 170.829C404.966 170.829 414.988 160.418 414.988 147.575C414.988 134.731 404.966 124.32 392.604 124.32C380.242 124.32 370.221 134.731 370.221 147.575C370.221 160.418 380.242 170.829 392.604 170.829Z" fill="#A0616A"/>
<path d="M354.665 253.888L354.202 220.679C352.497 199.44 361.551 188.288 369.447 182.678C371.483 181.25 373.777 180.267 376.19 179.787C378.603 179.307 381.085 179.341 383.485 179.887L401.101 183.843C403.554 184.399 405.873 185.465 407.918 186.978C409.963 188.491 411.691 190.419 412.998 192.646C414.248 194.746 415.069 197.092 415.41 199.537C415.751 201.981 415.604 204.472 414.978 206.855C413.754 211.315 411.04 215.176 407.323 217.745C392.187 228.846 391.12 247.493 391.111 247.681L391.093 248.066L354.665 253.888Z" fill="#3F3D56"/>
<path d="M365.547 226.803L353.057 217.28C352.181 216.61 351.597 215.607 351.432 214.491C351.267 213.374 351.535 212.235 352.177 211.324L368.084 188.806C369.004 187.503 370.162 186.4 371.493 185.562C372.823 184.724 374.3 184.166 375.838 183.92C377.376 183.675 378.945 183.747 380.457 184.131C381.968 184.516 383.392 185.207 384.646 186.163C385.901 187.12 386.962 188.323 387.768 189.706C388.575 191.088 389.111 192.622 389.347 194.22C389.583 195.818 389.514 197.449 389.143 199.019C388.772 200.589 388.107 202.068 387.186 203.371L371.28 225.889C370.636 226.799 369.67 227.406 368.596 227.577C367.521 227.749 366.425 227.47 365.547 226.803Z" fill="#3F3D56"/>
<path d="M387.163 141.763C383.999 142.803 380.713 143.391 377.396 143.51C374.082 143.471 370.638 142.377 368.4 139.837C365.221 136.23 365.263 130.353 367.723 126.183C370.183 122.014 374.6 119.416 379.166 118.227C383.732 117.037 388.502 117.094 393.209 117.159C398.799 112.925 406.95 113.57 412.686 117.587C418.421 121.605 421.926 128.415 423.414 135.434C424.902 142.452 424.578 149.739 424.013 156.902C423.704 160.827 424.021 165.924 427.63 167.127C429.908 167.886 432.37 166.493 434.002 164.676C435.635 162.86 436.775 160.602 438.481 158.86C442.117 155.148 447.952 154.395 452.756 156.169C457.56 157.942 461.391 161.892 464.093 166.384C467.779 172.512 469.579 179.661 469.255 186.879C468.93 194.096 466.495 201.04 462.275 206.784C458.055 212.527 452.25 216.798 445.634 219.027C439.018 221.256 431.906 221.336 425.244 219.259C412.919 215.414 403.614 204.607 397.626 192.773C389.949 177.522 386.773 160.257 388.496 143.139L387.163 141.763Z" fill="#2F2E41"/>
<path d="M399.896 195.337L373.266 191.493C372.291 191.353 371.3 191.582 370.473 192.138C369.647 192.694 369.04 193.54 368.764 194.522C368.708 194.721 368.665 194.923 368.637 195.128L366.504 211.063C366.36 212.181 366.646 213.312 367.299 214.212C367.952 215.113 368.921 215.709 369.995 215.873L396.624 219.717C399.736 220.168 402.893 219.316 405.4 217.348C407.907 215.381 409.559 212.459 409.993 209.226C410.427 205.993 409.607 202.713 407.713 200.109C405.82 197.504 403.007 195.787 399.896 195.337V195.337Z" fill="#3F3D56"/>
<g filter="url(#filter0_d)">
<path d="M355.111 164.094V164.897C355.092 166.913 355.035 168.92 354.937 170.917C353.198 205.106 338.449 237.335 313.712 261C288.975 284.664 256.124 297.972 221.891 298.196C187.657 298.42 154.635 285.543 129.59 262.204C104.546 238.865 89.3761 206.832 87.1899 172.669C87.0074 169.832 86.9162 166.974 86.9162 164.094C86.8681 136.321 95.4879 109.225 111.574 86.5843C112.86 84.7598 114.198 82.9689 115.587 81.2114C116.545 79.989 117.531 78.7941 118.525 77.6082C141.162 50.7916 173.408 33.9154 208.345 30.6002C243.282 27.285 278.127 37.7948 305.404 59.875C307.018 61.1794 308.605 62.5295 310.156 63.9069C311.397 65.0107 312.616 66.1388 313.814 67.2912C337.409 89.8602 351.933 120.281 354.645 152.819C354.956 156.541 355.111 160.299 355.111 164.094Z" fill="#48BFE3"/>
</g>
<path d="M115.588 81.2109C115.653 81.2384 115.715 81.2753 115.77 81.3203C116.491 81.9132 115.588 83.0535 115.697 83.9931C115.825 85.1972 117.43 85.4617 118.644 85.5803C119.857 85.708 121.389 86.684 120.815 87.7604C117.768 88.8095 114.685 87.7787 111.574 86.5837C95.4879 109.224 86.8681 136.32 86.9162 164.093C86.9162 166.976 87.0074 169.834 87.1899 172.668C87.4449 172.854 87.7242 173.004 88.02 173.115C88.9322 173.461 89.9904 173.397 90.8297 173.89C91.4956 174.282 91.9426 174.976 92.6085 175.34C94.5151 176.38 97.1606 174.383 98.9394 175.623C99.3992 176.042 99.8347 176.487 100.244 176.955C101.886 178.378 104.586 177.42 106.484 178.488C107.706 179.172 108.335 180.54 108.992 181.781C110.625 184.882 113.271 187.929 116.764 188.175C117.866 188.124 118.971 188.161 120.067 188.285C121.143 188.531 122.201 189.47 122.028 190.556C121.727 192.426 122.648 194.469 122.402 196.339C121.955 199.76 117.111 201.256 116.701 204.677C116.699 205.43 116.657 206.182 116.573 206.93C116.354 207.824 115.679 208.554 115.442 209.448C114.986 211.135 116.199 212.823 117.522 213.954C118.853 215.094 120.441 216.079 121.171 217.666C121.937 219.354 121.563 221.315 121.809 223.149C122.356 227.153 125.814 230.118 129.371 232.034C130.512 232.51 131.524 233.247 132.327 234.186C133.239 235.509 133.148 237.251 133.458 238.829C134.206 242.688 137.454 245.872 137.545 249.803C137.609 252.604 136.058 255.139 135.128 257.776C134.17 260.539 133.886 263.491 134.298 266.387C139.499 270.798 145.028 274.808 150.836 278.382C151.152 277.915 151.384 277.397 151.52 276.85C151.631 276.245 151.555 275.621 151.302 275.061C151.05 274.5 150.633 274.03 150.107 273.712C151.087 273.341 151.979 272.77 152.725 272.033C153.091 271.656 153.333 271.176 153.418 270.657C153.503 270.139 153.426 269.606 153.199 269.133C154.805 269.333 156.711 269.434 157.769 268.202C158.618 267.217 158.563 265.739 158.225 264.489C157.888 263.231 157.322 262.017 157.313 260.713C161.033 260.894 164.761 260.769 168.461 260.339C167.925 258.535 166.708 257.01 165.067 256.088C166.746 255.805 168.269 253.799 168.798 252.184C169.256 250.537 169.281 248.799 168.871 247.139C168.744 246.713 168.725 246.261 168.816 245.826C169.086 245.247 169.561 244.789 170.148 244.54C172.921 242.943 175.695 241.35 178.468 239.76C178.963 239.51 179.413 239.18 179.8 238.784C180.666 237.753 180.539 236.211 180.092 234.943C179.645 233.675 178.933 232.48 178.76 231.149C178.249 227.162 182.518 224.298 183.959 220.54C184.45 219.039 184.714 217.475 184.744 215.897C184.863 214.2 184.872 212.239 183.576 211.153C182.327 210.104 180.384 210.341 179.079 209.365C177.884 208.471 177.474 206.747 176.169 206.027C174.983 205.37 173.505 205.79 172.183 205.479C169.865 204.941 168.406 202.269 166.034 202.022C164.702 201.876 163.188 202.533 162.093 201.758C161.126 201.064 161.09 199.687 160.907 198.519C160.583 196.701 159.71 195.025 158.406 193.717C157.101 192.409 155.427 191.532 153.61 191.204C152.232 190.985 150.736 191.067 149.559 190.31C148.373 189.543 147.835 188.111 146.895 187.044C145.399 185.338 143.028 184.727 140.811 184.207C137.801 183.505 134.793 182.799 131.789 182.091C130.193 181.708 128.131 181.507 127.264 182.912C127.008 183.446 126.83 184.014 126.735 184.599C126.409 185.652 125.759 186.575 124.878 187.237C123.997 187.899 122.929 188.265 121.827 188.285C121.073 186.997 119.851 186.049 118.416 185.639C117.478 185.482 116.551 185.262 115.642 184.982C115.168 184.75 114.746 184.423 114.402 184.022C114.058 183.62 113.799 183.153 113.642 182.648C113.485 182.144 113.432 181.612 113.488 181.087C113.543 180.561 113.705 180.052 113.964 179.591C114.481 178.666 114.68 177.596 114.53 176.546C114.38 175.496 113.89 174.524 113.134 173.781C111.601 172.403 109.384 172.066 107.323 172.202C106.785 171.026 107.688 169.703 108.655 168.846C109.631 167.997 110.808 167.158 111.017 165.881C111.355 163.874 108.792 162.351 106.848 162.944C104.905 163.546 103.665 165.434 102.844 167.295C102.446 168.393 101.903 169.433 101.229 170.387C100.884 170.859 100.415 171.227 99.8742 171.449C99.3332 171.671 98.7414 171.739 98.1641 171.646C96.5585 171.236 95.9473 169.329 95.5915 167.724C95.0214 165.578 94.7332 163.367 94.734 161.147C94.748 158.905 95.6385 156.757 97.2153 155.163C99.8699 152.718 103.957 152.955 107.542 153.347C107.158 152.835 106.974 152.201 107.024 151.563C107.074 150.924 107.356 150.327 107.815 149.881C108.295 149.455 108.872 149.153 109.495 149C110.118 148.847 110.769 148.849 111.391 149.005C112.472 149.229 113.446 149.811 114.155 150.656C115.177 151.897 115.469 153.585 116.235 154.989C117.011 156.403 118.744 157.607 120.158 156.85C121.389 156.193 121.581 154.497 121.28 153.138C120.97 151.788 120.322 150.465 120.432 149.078C120.641 146.442 123.387 144.846 125.805 143.76C128.222 142.675 130.986 141.206 131.369 138.579C131.387 138.068 131.485 137.563 131.661 137.083C131.929 136.654 132.303 136.302 132.747 136.061C139.798 131.4 146.978 126.675 155.042 124.13C155.461 123.993 155.507 124.139 155.936 124.039C156.538 123.692 156.136 122.734 155.562 122.351C154.987 121.968 154.221 121.667 154.075 120.992C153.974 120.499 154.266 120.007 154.339 119.505C154.358 119.202 154.303 118.899 154.177 118.622C154.052 118.346 153.861 118.104 153.62 117.919C153.38 117.733 153.098 117.609 152.799 117.558C152.499 117.507 152.192 117.53 151.904 117.626C151.256 116.768 152.533 115.774 153.573 115.482C156.687 114.629 159.882 114.109 163.106 113.931C163.478 113.87 163.86 113.934 164.191 114.114C164.428 114.343 164.569 114.653 164.584 114.982C164.6 115.311 164.488 115.634 164.273 115.884C163.835 116.371 163.349 116.814 162.823 117.206C162.3 117.715 161.926 118.357 161.743 119.063C161.559 119.769 161.573 120.512 161.783 121.211C163.471 122.068 165.295 122.953 167.165 122.652C169.026 122.351 170.677 120.253 169.802 118.584C168.99 117.024 166.536 116.668 166.116 114.962C165.624 112.964 168.451 111.186 167.813 109.234C167.539 108.376 166.682 107.865 166.025 107.254C165.252 106.493 164.726 105.517 164.516 104.453C164.306 103.389 164.422 102.286 164.848 101.288C163.78 101.475 162.683 101.403 161.648 101.08C160.614 100.756 159.672 100.189 158.9 99.4274C157.477 97.9953 156.346 95.7239 154.321 95.7969C152.469 95.8516 150.873 98.0135 149.139 97.3568C148.711 97.1926 148.264 96.8642 147.853 97.0557C147.718 97.1428 147.604 97.2595 147.52 97.3969C147.436 97.5344 147.385 97.6891 147.37 97.8493C146.932 99.9565 147.689 102.356 146.54 104.18C145.29 106.159 142.398 106.433 140.884 108.221C140.063 109.188 139.744 110.492 138.986 111.514C138.229 112.536 136.633 113.192 135.721 112.299C136.167 111.383 136.29 110.342 136.068 109.348C135.845 108.354 135.292 107.464 134.498 106.825C133.658 106.274 132.751 105.832 131.798 105.512C130.734 105.063 129.722 104.5 128.778 103.833C128.309 103.547 127.927 103.137 127.675 102.648C127.475 102.032 127.501 101.366 127.748 100.768C128.21 99.451 129.022 98.2843 130.097 97.3939C131.172 96.5035 132.47 95.923 133.851 95.7149C135.055 95.5507 136.459 95.6054 137.262 94.6841C137.682 94.2006 137.901 93.4617 138.521 93.2702C138.912 93.1886 139.319 93.2366 139.68 93.407C141.185 93.9361 142.681 94.4652 144.186 94.9942C144.688 95.2244 145.242 95.3158 145.792 95.2588C146.064 95.2237 146.312 95.0863 146.487 94.8745C146.661 94.6627 146.749 94.3924 146.731 94.1185C146.585 93.3705 145.436 93.0148 145.545 92.2576C145.598 92.0103 145.73 91.7865 145.919 91.6191C147.546 89.8886 149.536 88.539 151.745 87.667C153.955 86.7949 156.329 86.4219 158.7 86.5746C159.265 87.5142 158.371 88.618 157.614 89.4116C156.866 90.2143 156.264 91.6373 157.176 92.2485C157.544 92.4415 157.956 92.5358 158.371 92.5222C159.481 92.671 160.559 92.9975 161.564 93.4891C163.124 94.1641 164.657 94.9121 166.153 95.7149C165.932 94.7368 165.97 93.7184 166.262 92.7593C166.427 92.2886 166.761 91.8961 167.2 91.6583C167.638 91.4205 168.149 91.3545 168.634 91.4731C169.528 91.8198 169.984 93.0056 170.942 93.1151C172.21 93.261 172.712 91.3819 172.183 90.2143C171.653 89.0467 170.595 88.0798 170.513 86.7936C170.449 85.9361 170.778 84.8688 170.094 84.3489C169.85 84.1877 169.572 84.0876 169.282 84.057C163.553 83.0079 157.821 81.9559 152.086 80.9008C151.064 80.7092 149.596 80.8552 149.55 81.886C149.523 82.4698 150.043 83.0444 149.815 83.5735C149.568 84.1391 148.766 84.0935 148.182 84.2941C147.743 84.4931 147.381 84.8296 147.151 85.2525C146.92 85.6755 146.834 86.162 146.905 86.6385C147.061 87.587 147.428 88.4881 147.981 89.2747C146.859 88.8095 145.171 88.7274 144.049 88.2531C143.886 86.9539 143.555 85.6814 143.064 84.4675C143.036 84.2743 142.966 84.0896 142.859 83.9264C142.752 83.7631 142.61 83.6254 142.444 83.5228C142.278 83.4202 142.091 83.3552 141.897 83.3325C141.704 83.3097 141.507 83.3297 141.322 83.3911C139.844 83.6191 138.366 83.838 136.888 84.0661C136.517 84.0837 136.162 84.2214 135.876 84.4583C135.301 85.0695 135.867 86.0456 135.848 86.8848C135.795 87.354 135.597 87.795 135.281 88.1465C134.966 88.4979 134.548 88.7424 134.088 88.846C133.159 89.0345 132.201 89.0221 131.278 88.8095C129.207 88.4902 127.146 88.171 125.075 87.8517C126.903 87.2693 128.528 86.1814 129.764 84.7138C130.585 83.7468 131.023 81.9407 129.837 81.4846C129.486 81.3884 129.121 81.3605 128.76 81.4025C125.951 81.4207 123.734 79.0764 121.107 78.0821C120.281 77.7739 119.407 77.6134 118.525 77.6078L115.588 81.2109Z" fill="#E5E5E5"/>
<path d="M354.943 170.917C354.621 171.349 354.198 171.696 353.712 171.926C353.225 172.157 352.689 172.265 352.151 172.24C349.296 171.994 348.092 167.88 345.264 167.414C345.014 167.35 344.749 167.376 344.516 167.487C344.096 167.716 344.023 168.281 343.996 168.755C343.877 171.109 343.777 173.554 344.698 175.725C346.039 178.899 349.515 181.563 348.785 184.929C344.863 183.113 342.819 178.708 341.898 174.484C340.967 170.261 340.821 165.827 339.161 161.832C337.893 163.446 335.248 162.115 334.098 160.418C333.004 158.812 332.328 156.952 331.27 155.319C330.212 153.695 328.588 152.235 326.654 152.144C324.62 152.053 322.85 153.449 321.3 154.771C319.951 155.768 318.818 157.028 317.97 158.475C316.884 160.664 317.167 163.237 317.112 165.672C317.058 168.299 316.501 171.082 314.704 173.015C312.907 174.94 309.596 175.615 307.616 173.873C306.659 172.875 305.977 171.646 305.637 170.306C303.485 164.035 301.694 157.645 300.273 151.168C299.944 152.646 298.64 154.553 297.399 153.686C297.122 153.45 296.898 153.158 296.742 152.828C294.425 148.915 290.147 146.562 285.814 145.148C281.49 143.743 276.938 143.086 272.659 141.535C270.26 140.664 267.968 139.523 265.827 138.133C265.283 138.934 264.965 139.867 264.908 140.833C264.85 141.8 265.054 142.764 265.498 143.624C265.979 144.466 266.725 145.125 267.619 145.5C268.513 145.874 269.506 145.943 270.443 145.695C271.391 145.385 272.194 144.728 273.134 144.4C274.073 144.08 275.341 144.236 275.752 145.148C276.153 146.014 275.551 147.063 275.852 147.976C276.299 149.353 278.388 149.462 279.118 150.721C279.333 151.22 279.382 151.774 279.259 152.302C279.136 152.831 278.847 153.306 278.434 153.659C277.594 154.343 276.668 154.914 275.679 155.355C272.614 157.061 270.434 159.971 267.752 162.233C265.07 164.505 261.284 166.156 258.091 164.705C258.848 160.847 254.26 158.019 253.411 154.179C253.129 152.911 253.275 151.57 252.882 150.338C252.308 148.55 250.72 147.328 249.425 145.978C247.851 144.32 246.625 142.365 245.818 140.227C245.011 138.088 244.64 135.81 244.727 133.526C244.8 131.939 245.092 130.324 244.727 128.774C244.371 127.232 243.085 125.736 241.498 125.8C237.876 125.964 233.306 126.238 231.408 123.145C230.724 122.042 230.432 120.427 231.417 119.579C232.111 118.986 233.132 119.041 234.036 119.132C236.763 119.396 239.482 119.67 242.209 119.935C244.116 120.117 246.177 120.272 247.819 119.278C249.461 118.283 250.173 115.629 248.649 114.452C247.546 113.595 245.557 113.64 245.229 112.281C244.964 111.141 246.223 109.855 245.539 108.897C245.055 108.222 243.961 108.404 243.295 108.915C242.714 109.518 242.082 110.071 241.406 110.566C240.102 111.241 238.551 110.594 237.146 110.156C235.741 109.718 233.862 109.681 233.187 110.986C232.421 112.436 233.853 114.352 233.105 115.811C232.102 117.736 228.726 116.641 227.321 118.302C225.716 120.199 228.416 123.045 227.878 125.472C227.185 125.815 226.415 125.973 225.642 125.93C224.87 125.887 224.122 125.644 223.472 125.225C222.834 124.791 222.325 124.192 222.001 123.491C221.676 122.791 221.548 122.016 221.629 121.248C221.757 120.153 222.332 119.031 221.948 118.001C221.535 117.205 220.853 116.581 220.024 116.24C217.378 114.771 214.733 113.309 212.087 111.852C211.348 113.221 212.279 114.908 213.446 115.939C214.605 116.961 216.065 117.736 216.831 119.086C217.316 120.022 217.426 121.107 217.137 122.121C216.849 123.135 216.185 124.001 215.28 124.541C215.165 124.62 215.035 124.673 214.898 124.697C214.761 124.72 214.621 124.714 214.486 124.678C214.36 124.604 214.25 124.505 214.162 124.387C214.074 124.27 214.011 124.136 213.976 123.994C212.58 120.409 210.473 116.879 207.116 115.009C203.749 113.129 198.924 113.522 196.716 116.669C196.196 117.417 195.84 118.274 195.384 119.068C192.967 123.273 187.767 125.262 182.914 125.134C182.439 125.164 181.966 125.053 181.555 124.815C180.77 124.277 180.807 123.127 180.925 122.179C181.099 120.838 181.263 119.506 181.436 118.165C181.44 117.346 181.757 116.56 182.321 115.966C183.224 115.255 184.52 115.702 185.669 115.684C186.536 115.645 187.371 115.339 188.058 114.809C188.746 114.278 189.252 113.548 189.509 112.719C189.741 111.882 189.739 110.998 189.504 110.162C189.269 109.326 188.811 108.57 188.178 107.976C187.658 107.483 186.955 106.863 187.229 106.197C187.34 106.013 187.49 105.856 187.668 105.737C187.846 105.617 188.048 105.537 188.26 105.504C190.312 104.911 192.492 104.756 194.508 104.044C196.534 103.342 198.495 101.9 198.978 99.8114C199.124 99.1728 199.188 98.3975 199.763 98.0782C200.053 97.9618 200.362 97.8999 200.675 97.8958C201.772 97.7385 202.77 97.1769 203.474 96.3212C204.178 95.4654 204.537 94.3774 204.479 93.2709C205.446 92.5959 206.805 93.0976 207.745 93.8182C208.675 94.5389 209.506 95.4875 210.646 95.7977C212.771 96.3815 214.824 94.4932 217.031 94.4841C217.962 94.4841 218.92 94.8125 219.786 94.4932C220.671 94.174 221.2 93.2983 221.875 92.6506C222.56 91.9938 223.745 91.6016 224.375 92.304C224.192 90.9813 224.019 89.6677 223.837 88.3541C224.911 88.6248 226.032 88.6622 227.122 88.464C228.212 88.2657 229.248 87.8364 230.159 87.2048C227.86 86.4294 225.57 85.654 223.271 84.8787C223.03 84.8191 222.807 84.6999 222.623 84.532C222.122 83.9938 222.623 83.1546 223.025 82.5434C224.001 81.0748 224.165 78.6574 222.56 77.9277C221.465 77.426 220.215 78.028 219.166 78.6118C217.488 79.5423 215.809 80.4818 214.131 81.4123C213.976 82.3701 215.143 82.9174 215.864 83.5559C216.303 83.9455 216.614 84.4589 216.756 85.0285C216.897 85.5981 216.863 86.1973 216.658 86.7473C216.453 87.2972 216.086 87.772 215.605 88.1093C215.125 88.4466 214.553 88.6305 213.966 88.6369C214.297 89.0685 214.527 89.5686 214.639 90.1005C214.751 90.6325 214.742 91.1828 214.614 91.711C213.492 91.7931 212.361 91.8752 211.23 91.9573C211.042 91.9948 210.848 91.9947 210.661 91.9571C210.473 91.9196 210.294 91.8452 210.135 91.7384C209.77 91.4191 209.825 90.8536 209.734 90.3792C209.583 89.8122 209.267 89.3033 208.824 88.918C208.382 88.5326 207.835 88.2886 207.252 88.2173C206.09 88.0866 204.914 88.1953 203.795 88.5366C203.309 88.7079 202.776 88.6949 202.299 88.5001C202.028 88.3209 201.823 88.0583 201.715 87.7521C201.517 87.1266 201.483 86.4604 201.617 85.818C201.751 85.1756 202.049 84.5787 202.481 84.085C203.357 83.1123 204.323 82.2236 205.364 81.4305C207.724 79.3641 209.459 76.6782 210.372 73.6768C212.233 72.8923 214.158 71.8342 216.028 71.0497C217.531 70.353 219.107 69.8238 220.726 69.4716C222.25 69.2389 223.794 69.1655 225.333 69.2527C227.431 69.2891 229.538 69.3256 231.636 69.3712C233.509 69.2925 235.381 69.5616 237.155 70.1649C238.879 70.8764 240.403 72.418 240.521 74.2789C240.557 74.491 240.538 74.7087 240.467 74.9114C240.395 75.1142 240.272 75.2952 240.111 75.4374C239.869 75.5713 239.594 75.6345 239.317 75.6198C237.575 75.6746 236.836 76.1124 235.094 76.1763C236.198 77.353 237.438 78.5936 239.044 78.8034C241.872 79.1683 243.906 76.2401 245.21 73.6951C245.257 74.3429 245.555 74.9468 246.041 75.378C246.526 75.8092 247.161 76.0334 247.81 76.0029C248.509 75.8828 249.176 75.6221 249.772 75.2367C255.382 72.1704 261.668 70.5466 268.062 70.5115C267.999 70.0274 268.118 69.5373 268.396 69.1362C268.674 68.735 269.092 68.4515 269.567 68.3405C270.871 68.085 272.039 69.207 272.669 70.3747C273.289 71.5423 273.681 72.8923 274.685 73.768C275.679 74.6437 277.604 74.5982 277.996 73.3393C278.379 72.1261 277.111 71.0862 276.062 70.3656C275.004 69.654 273.9 68.3313 274.612 67.2731C279.976 66.0782 285.385 64.8923 290.886 64.6551C291.821 64.6834 292.752 64.5221 293.622 64.1808C294.054 63.9982 294.413 63.6784 294.643 63.271C294.874 62.8636 294.964 62.3914 294.9 61.9276C293.699 62.2078 292.443 62.1249 291.29 61.6897C290.136 61.2544 289.139 60.4863 288.423 59.4829C294.07 59.0177 299.981 58.6073 305.409 59.8752L310.161 63.9071C309.258 64.8467 308.054 65.7315 308.711 66.6711C308.927 66.8869 309.19 67.0507 309.479 67.1502C309.769 67.2498 310.077 67.2824 310.38 67.2458C311.53 67.264 312.679 67.2914 313.819 67.2914C337.415 89.8604 351.938 120.282 354.651 152.819C352.735 152.746 350.974 155.173 351.221 157.289C351.513 159.743 353.282 161.713 354.55 163.83C354.76 164.174 354.949 164.53 355.116 164.897L354.943 170.917Z" fill="#E5E5E5"/>
<path d="M150.399 224.822C149.297 224.031 148.041 223.501 146.72 223.269C145.399 223.036 144.045 223.108 142.753 223.478C141.462 223.848 140.264 224.508 139.245 225.411C138.225 226.314 137.408 227.438 136.852 228.704L104.429 225.528L112.379 241.05L141.95 241.686C144.059 242.516 146.388 242.512 148.496 241.677C150.603 240.842 152.343 239.232 153.384 237.153C154.426 235.075 154.697 232.671 154.147 230.399C153.597 228.126 152.263 226.142 150.399 224.822Z" fill="#FFB8B8"/>
<path d="M134.275 242.084C133.89 242.529 133.419 242.885 132.893 243.129C132.367 243.372 131.797 243.498 131.221 243.498L88.8978 242.493C78.6534 242.485 68.7605 238.611 61.0594 231.592L35.6825 208.47C34.1588 207.604 32.8144 206.435 31.7262 205.028C30.638 203.622 29.8274 202.007 29.3407 200.275C28.854 198.543 28.7008 196.728 28.8899 194.934C29.079 193.141 29.6067 191.403 30.4427 189.822C31.2787 188.24 32.4067 186.845 33.762 185.717C35.1174 184.589 36.6737 183.749 38.3417 183.247C40.0096 182.744 41.7567 182.588 43.4828 182.787C45.209 182.987 46.8803 183.538 48.4013 184.409L90.4305 218.864L131.353 227.058C132.171 227.266 132.908 227.731 133.464 228.389C134.02 229.047 134.368 229.867 134.461 230.737L135.301 238.777C135.391 239.639 135.226 240.509 134.827 241.272C134.675 241.564 134.489 241.837 134.275 242.084Z" fill="#2F2E41"/>
<path d="M305.775 234.47C304.862 235.602 303.729 236.52 302.45 237.164C301.172 237.808 299.776 238.163 298.355 238.206C296.935 238.248 295.522 237.978 294.209 237.412C292.897 236.846 291.715 235.997 290.741 234.922C281.913 225.304 296.344 210.861 305.205 220.5C305.517 220.833 305.807 221.187 306.073 221.561L350.754 220.407L356.087 210.273L372.478 216.885C369.331 221.955 365.718 241.852 357.488 240.884C356.409 240.914 306.878 234.552 305.775 234.47Z" fill="#A0616A"/>
<defs>
<filter id="filter0_d" x="56.916" y="0" width="328.195" height="328.199" filterUnits="userSpaceOnUse" color-interpolation-filters="sRGB">
<feFlood flood-opacity="0" result="BackgroundImageFix"/>
<feColorMatrix in="SourceAlpha" type="matrix" values="0 0 0 0 0 0 0 0 0 0 0 0 0 0 0 0 0 0 127 0"/>
<feOffset/>
<feGaussianBlur stdDeviation="15"/>
<feColorMatrix type="matrix" values="0 0 0 0 0.476863 0 0 0 0 0.282353 0 0 0 0 0.890196 0 0 0 0.5 0"/>
<feBlend mode="normal" in2="BackgroundImageFix" result="effect1_dropShadow"/>
<feBlend mode="normal" in="SourceGraphic" in2="effect1_dropShadow" result="shape"/>
</filter>
</defs>
</svg>
