<svg width="518" height="368" viewBox="0 0 518 368" fill="none" xmlns="http://www.w3.org/2000/svg">
<path d="M518 366.982H297.642V368H518V366.982Z" fill="#3F3D56"/>
<path d="M501.144 352.221H280.786V353.239H501.144V352.221Z" fill="#3F3D56"/>
<path d="M431.31 337.461H210.953V338.479H431.31V337.461Z" fill="#3F3D56"/>
<path d="M158.57 292.963C157.234 292.963 155.884 292.941 154.56 292.897L154.59 291.88C156.492 291.942 158.434 291.96 160.345 291.932L160.358 292.95C159.763 292.958 159.167 292.963 158.57 292.963ZM166.153 292.727L166.097 291.711C168.002 291.592 169.932 291.425 171.833 291.215L171.933 292.227C170.018 292.439 168.074 292.608 166.153 292.727H166.153ZM148.769 292.568C146.848 292.413 144.907 292.209 142.999 291.961L143.116 290.951C145.01 291.196 146.936 291.399 148.843 291.553L148.769 292.568ZM177.685 291.449L177.54 290.443C179.433 290.139 181.341 289.787 183.209 289.395L183.396 290.393C181.514 290.788 179.592 291.143 177.685 291.449ZM137.261 291.077C135.363 290.737 133.447 290.346 131.567 289.914L131.771 288.919C133.637 289.348 135.538 289.735 137.422 290.072L137.261 291.077ZM189.057 289.06L188.826 288.072C190.684 287.586 192.552 287.049 194.38 286.477L194.653 287.453C192.812 288.03 190.929 288.571 189.057 289.06ZM125.93 288.476C124.068 287.953 122.195 287.377 120.361 286.765L120.651 285.794C122.471 286.402 124.33 286.973 126.177 287.492L125.93 288.476ZM200.174 285.575L199.857 284.613C201.661 283.951 203.474 283.234 205.249 282.484L205.606 283.429C203.819 284.185 201.991 284.907 200.174 285.575ZM114.859 284.777C113.051 284.075 111.231 283.317 109.452 282.525L109.826 281.586C111.592 282.373 113.397 283.125 115.191 283.822L114.859 284.777ZM210.927 281.027L210.529 280.1C212.26 279.269 214.001 278.381 215.702 277.462L216.14 278.369C214.426 279.295 212.672 280.189 210.927 281.027ZM221.233 275.459L220.756 274.576C222.417 273.574 224.075 272.521 225.683 271.446L226.197 272.306C224.577 273.39 222.907 274.451 221.233 275.459ZM231.021 268.915L230.47 268.081C232.033 266.926 233.594 265.717 235.108 264.487L235.695 265.294C234.17 266.534 232.597 267.752 231.021 268.915ZM84.2146 267.482C82.6599 266.288 81.1069 265.038 79.5984 263.765L80.1994 262.97C81.6964 264.233 83.2377 265.473 84.7803 266.657L84.2146 267.482ZM240.209 261.452L239.588 260.674C241.045 259.374 242.496 258.02 243.9 256.648L244.553 257.395C243.139 258.778 241.677 260.142 240.209 261.452ZM75.1482 259.831C73.7003 258.491 72.2619 257.097 70.873 255.688L71.5399 254.953C72.9184 256.352 74.3459 257.735 75.7827 259.065L75.1482 259.831ZM248.72 253.132L248.034 252.417C249.378 250.978 250.707 249.489 251.984 247.991L252.7 248.672C251.413 250.182 250.074 251.682 248.72 253.132ZM66.7817 251.344C65.4533 249.868 64.1413 248.342 62.8823 246.809L63.6099 246.142C64.8593 247.664 66.1611 249.178 67.4796 250.643L66.7817 251.344ZM256.484 244.025L255.739 243.379C256.953 241.818 258.148 240.207 259.293 238.59L260.064 239.199C258.911 240.829 257.707 242.453 256.484 244.025ZM59.183 242.093C57.99 240.5 56.8154 238.855 55.6915 237.204L56.4732 236.61C57.5886 238.247 58.7542 239.88 59.9383 241.461L59.183 242.093ZM263.432 234.205L262.636 233.633C263.71 231.962 264.762 230.241 265.762 228.519L266.584 229.052C265.575 230.787 264.515 232.521 263.432 234.205ZM52.4158 232.154C51.3662 230.453 50.3391 228.704 49.3625 226.952L50.1921 226.435C51.1614 228.173 52.1808 229.91 53.2224 231.597L52.4158 232.154ZM269.508 223.75L268.665 223.258C269.59 221.49 270.488 219.673 271.336 217.859L272.2 218.311C271.346 220.138 270.44 221.968 269.508 223.75ZM274.652 212.745L273.77 212.337C274.537 210.484 275.274 208.587 275.96 206.698L276.86 207.063C276.168 208.967 275.425 210.878 274.652 212.745ZM41.601 210.549C40.8626 208.676 40.1555 206.76 39.4994 204.853L40.4047 204.505C41.0557 206.397 41.7574 208.299 42.4899 210.157L41.601 210.549ZM278.817 201.277L277.903 200.957C278.504 199.043 279.071 197.086 279.588 195.141L280.516 195.417C279.994 197.377 279.422 199.348 278.817 201.277ZM37.644 199.046C37.0709 197.106 36.5324 195.124 36.0435 193.155L36.9752 192.897C37.4603 194.851 37.9948 196.818 38.5634 198.743L37.644 199.046ZM281.956 189.48L281.018 189.249C281.449 187.287 281.844 185.284 282.19 183.295L283.137 183.479C282.788 185.483 282.391 187.502 281.956 189.48ZM34.7021 187.192C34.3005 185.204 33.9369 183.179 33.6218 181.171L34.5719 181.004C34.8849 182.997 35.2456 185.007 35.6442 186.98L34.7021 187.192ZM284.056 177.428L283.101 177.29C283.36 175.296 283.579 173.263 283.751 171.247L284.711 171.339C284.537 173.371 284.316 175.419 284.056 177.428H284.056ZM32.8039 175.104C32.5768 173.089 32.3903 171.036 32.2494 169.004L33.2103 168.929C33.3497 170.947 33.535 172.983 33.7606 174.984L32.8039 175.104ZM285.103 165.225L284.141 165.179C284.226 163.162 284.27 161.116 284.27 159.098H285.233C285.233 161.131 285.189 163.193 285.103 165.225ZM31.9576 162.883C31.9246 161.634 31.908 160.361 31.9077 159.098C31.9077 158.315 31.9141 157.533 31.9268 156.753L32.89 156.771C32.8773 157.545 32.8709 158.321 32.8709 159.098C32.8712 160.352 32.8879 161.616 32.9203 162.855L31.9576 162.883ZM33.1186 150.693L32.1572 150.63C32.2774 148.596 32.4434 146.541 32.6501 144.524L33.6077 144.633C33.4024 146.636 33.238 148.675 33.1185 150.693H33.1186ZM283.648 144.483C283.456 142.476 283.191 141.497 282.912 139.499L283.865 139.351C284.146 141.364 284.387 142.901 284.581 144.923L283.648 144.483ZM34.3576 138.603L33.4057 138.448C33.7008 136.434 34.0437 134.404 34.4249 132.414L35.3688 132.616C34.9907 134.591 34.6504 136.605 34.3576 138.603H34.3576ZM281.94 133.505C281.572 131.52 281.158 129.521 280.707 127.564L281.643 127.324C282.097 129.295 282.515 131.309 282.885 133.31L281.94 133.505ZM36.6391 126.684L35.7048 126.437C36.1726 124.465 36.6906 122.477 37.2447 120.528L38.1669 120.821C37.6174 122.755 37.1033 124.728 36.6391 126.684ZM279.217 121.689C278.68 119.751 278.093 117.801 277.473 115.894L278.383 115.563C279.009 117.485 279.601 119.45 280.142 121.403L279.217 121.689ZM39.9549 115.022L39.0462 114.684C39.6863 112.76 40.3775 110.826 41.1003 108.937L41.9935 109.319C41.276 111.193 40.59 113.112 39.9549 115.022ZM275.477 110.189C274.774 108.315 274.022 106.435 273.24 104.6L274.119 104.182C274.906 106.031 275.665 107.926 276.372 109.814L275.477 110.189ZM44.2781 103.723L43.4028 103.298C44.2073 101.447 45.0635 99.59 45.9477 97.7797L46.8037 98.2465C45.9261 100.043 45.0764 101.886 44.2781 103.723ZM270.763 99.1243C269.901 97.3272 268.987 95.5263 268.048 93.7724L268.886 93.2709C269.833 95.0384 270.753 96.853 271.622 98.664L270.763 99.1243ZM49.5647 92.8996L48.7299 92.3916C49.6907 90.6283 50.704 88.8632 51.7418 87.1459L52.5536 87.6937C51.5238 89.3981 50.518 91.1497 49.5647 92.8996ZM265.104 88.5553C264.086 86.8429 263.02 85.137 261.936 83.4848L262.727 82.9047C263.82 84.5696 264.894 86.2885 265.92 88.014L265.104 88.5553ZM55.7644 82.639L54.9771 82.0525C56.0875 80.3881 57.2485 78.7291 58.4286 77.1216L59.1895 77.7455C58.0187 79.341 56.8662 80.9873 55.7644 82.639ZM258.552 78.5711C257.391 76.9643 256.183 75.367 254.958 73.8236L255.697 73.1698C256.93 74.7251 258.148 76.3343 259.318 77.9532L258.552 78.5711ZM62.8216 73.0236L62.0884 72.3635C63.3345 70.8167 64.6333 69.277 65.9485 67.7873L66.6526 68.4817C65.3474 69.9602 64.0585 71.4884 62.8216 73.0236ZM251.164 69.2529C249.87 67.7645 248.528 66.2892 247.175 64.8686L247.854 64.1464C249.217 65.5782 250.569 67.0644 251.873 68.564L251.164 69.2529ZM70.674 64.1304L70.0005 63.4027C71.3779 61.9787 72.8032 60.5707 74.2365 59.2182L74.878 59.9777C73.4555 61.3198 72.041 62.7171 70.674 64.1305V64.1304ZM243.002 60.6796C241.584 59.3204 240.12 57.9798 238.65 56.6952L239.265 55.9108C240.745 57.2052 242.22 58.5559 243.649 59.9256L243.002 60.6796ZM79.2555 56.0316L78.6474 55.2422C80.1371 53.9601 81.6767 52.6956 83.2236 51.4837L83.7974 52.3014C82.262 53.5043 80.734 54.7591 79.2555 56.0316V56.0316ZM88.4937 48.7951L87.9562 47.9506C89.5506 46.8168 91.192 45.7066 92.835 44.6501L93.3354 45.52C91.7051 46.5683 90.0761 47.6703 88.4937 48.7951ZM98.3126 42.483L97.8503 41.5897C99.5371 40.6143 101.267 39.6678 102.991 38.7764L103.414 39.691C101.703 40.5755 99.9867 41.5147 98.3126 42.483H98.3126ZM214.558 40.1244C212.844 39.222 211.089 38.3501 209.34 37.5332L209.729 36.6022C211.492 37.4254 213.261 38.3039 214.988 39.2133L214.558 40.1244ZM108.63 37.1497L108.247 36.2157C110.009 35.4083 111.813 34.6338 113.606 33.9139L113.948 34.8657C112.168 35.58 110.379 36.3485 108.63 37.1497H108.63ZM204.013 35.198C202.229 34.4671 200.404 33.7697 198.587 33.1255L198.894 32.1602C200.724 32.8097 202.564 33.5123 204.361 34.2491L204.013 35.198ZM119.374 32.838L119.073 31.8707C120.904 31.2365 122.772 30.6392 124.624 30.0962L124.882 31.0769C123.043 31.6159 121.19 32.2085 119.374 32.838ZM193.09 31.3244C191.253 30.771 189.379 30.2555 187.521 29.7925L187.742 28.8019C189.615 29.2683 191.503 29.7878 193.354 30.3452L193.09 31.3244ZM130.461 29.586L130.247 28.5936C132.123 28.1405 134.035 27.7277 135.928 27.3668L136.099 28.3684C134.22 28.7268 132.323 29.1364 130.461 29.586ZM181.891 28.5339C180.015 28.1619 178.105 27.8308 176.212 27.55L176.346 26.542C178.253 26.825 180.178 27.1586 182.069 27.5334L181.891 28.5339ZM141.785 27.4262L141.657 26.4172C143.564 26.1483 145.503 25.9221 147.421 25.7457L147.504 26.7597C145.601 26.9351 143.677 27.1593 141.785 27.4262ZM170.496 26.8422C168.599 26.6533 166.668 26.5077 164.756 26.41L164.803 25.393C166.729 25.4917 168.675 25.6383 170.587 25.8287L170.496 26.8422ZM153.248 26.3692L153.207 25.3522C154.978 25.2742 156.782 25.2344 158.57 25.2339L159.006 25.2347L159.004 26.2527L158.57 26.2519C156.795 26.2524 155.005 26.2919 153.248 26.3692Z" fill="#3F3D56"/>
<path d="M374.912 118.779L372.504 136.085C372.504 136.085 361.909 158.48 368.652 181.385L377.321 175.786C377.321 175.786 384.063 148.3 384.063 146.264C384.063 144.228 386.953 120.306 386.953 120.306L374.912 118.779Z" fill="#FFB9B9"/>
<path d="M379.728 174.259L368.17 182.403L373.949 212.433C373.949 212.433 375.394 253.152 374.912 254.679C374.431 256.206 365.762 318.303 365.762 318.303C365.762 318.303 375.875 323.393 385.026 320.339C385.026 320.339 394.177 274.53 394.177 261.296L404.772 214.978L421.147 267.913C421.147 267.913 422.11 303.542 424.036 315.249C425.963 326.956 425.963 328.483 425.963 328.483C425.963 328.483 441.374 333.064 445.227 328.483C445.227 328.483 443.301 268.422 441.856 262.314L438.484 189.528L379.728 174.259Z" fill="#2F2E41"/>
<path d="M369.615 318.303C369.615 318.303 368.652 316.776 365.762 320.848C362.872 324.92 353.722 332.555 353.722 332.555C353.722 332.555 328.678 351.387 347.461 352.405C366.244 353.423 369.615 343.244 369.615 343.244C369.615 343.244 385.508 340.19 385.99 336.627C386.471 333.064 384.063 318.812 384.063 318.812L369.615 318.303Z" fill="#2F2E41"/>
<path d="M426.926 327.465C426.926 327.465 423.555 339.681 424.518 344.771C425.482 349.86 422.592 368.693 436.077 367.166C449.562 365.639 445.227 349.351 445.227 349.351L440.893 328.483L426.926 327.465Z" fill="#2F2E41"/>
<path d="M407.903 61.0084C416.68 61.0084 423.796 53.4883 423.796 44.2117C423.796 34.9352 416.68 27.4151 407.903 27.4151C399.125 27.4151 392.01 34.9352 392.01 44.2117C392.01 53.4883 399.125 61.0084 407.903 61.0084Z" fill="#FFB9B9"/>
<path d="M398.511 53.1191C398.511 53.1191 403.327 70.9338 399.474 77.5506C395.622 84.1675 425.481 78.5686 427.408 72.4607C427.408 72.4607 417.776 61.263 419.22 50.5742L398.511 53.1191Z" fill="#FFB9B9"/>
<path d="M406.217 77.0417C406.217 77.0417 419.401 77.9836 425.812 70.3868L449.562 81.1136L439.448 140.156C439.448 140.156 459.676 190.038 441.375 194.618C423.074 199.199 370.097 194.618 372.505 177.822C374.913 161.025 384.545 140.665 384.545 140.665C384.545 140.665 386.953 118.27 381.655 108.09C376.358 97.9103 379.729 86.2035 379.729 86.2035L400.928 71.3588C400.928 71.3588 401.883 77.0417 406.217 77.0417Z" fill="#575A89"/>
<path d="M385.508 86.7124H379.729C379.729 86.7124 372.986 88.2394 374.431 107.581L371.06 121.324C371.06 121.324 387.916 125.905 390.324 123.36C392.732 120.815 385.508 86.7124 385.508 86.7124Z" fill="#575A89"/>
<path d="M455.341 117.252L453.415 135.067C453.415 135.067 455.823 158.48 447.635 176.804L444.746 185.966C444.746 185.966 441.856 212.433 434.15 212.433C426.445 212.433 434.15 182.403 434.15 182.403L438.003 152.372C438.003 152.372 440.893 140.665 438.966 135.576C437.04 130.486 436.558 119.797 436.558 119.797L455.341 117.252Z" fill="#FFB9B9"/>
<path d="M403.998 33.2211C406.357 32.8312 408.734 32.582 411.119 32.4749C412.848 32.3973 414.648 32.4096 416.21 33.1956C418.564 34.3808 419.884 37.0599 420.747 39.6607C421.611 42.2615 422.224 45.0409 423.826 47.2157C426.492 44.2747 427.025 39.9022 427.422 35.8509C427.701 33.0014 427.949 29.963 426.702 27.4192C425.934 25.8524 424.667 24.6315 423.384 23.5027C417.258 18.1142 409.478 13.8742 401.59 15.0845L401.406 16.3715C400.06 16.3287 398.713 16.4181 397.383 16.6387L397.664 19.8316L393.475 20.1124L393.314 23.4401L389.077 23.5953C389.159 24.874 389.685 26.0756 390.555 26.9685C389.903 27.4662 389.163 27.8196 388.379 28.0074C389.085 30.8979 389.771 33.7951 390.501 36.6791C391.039 38.8037 390.943 40.6808 393.099 39.644C394.741 38.8545 395.851 36.3441 397.511 35.3069C399.467 34.085 401.781 33.5876 403.998 33.2211Z" fill="#2F2E41"/>
<path d="M442.819 81.6225H449.562C449.562 81.6225 460.639 120.815 458.712 121.324C456.786 121.833 434.15 123.36 434.15 123.36L442.819 81.6225Z" fill="#575A89"/>
<path d="M156.022 197.927C177.567 197.927 195.032 179.468 195.032 156.699C195.032 133.929 177.567 115.47 156.022 115.47C134.477 115.47 117.012 133.929 117.012 156.699C117.012 179.468 134.477 197.927 156.022 197.927Z" fill="#3F3D56"/>
<path d="M180.584 152.627H159.875V130.74H152.169V152.627H131.46V160.771H152.169V182.657H159.875V160.771H180.584V152.627Z" fill="white"/>
<path d="M87.5377 226.343H34.4873V291.663H87.5377V226.343Z" fill="#F2F2F2"/>
<path d="M108.14 292.208H33.9722V213.823H108.14V292.208ZM35.0023 291.119H107.11V214.912H35.0023V291.119Z" fill="#3F3D56"/>
<path d="M94.7484 236.685H49.4238V237.774H94.7484V236.685Z" fill="#3F3D56"/>
<path d="M94.7484 248.661H49.4238V249.749H94.7484V248.661Z" fill="#3F3D56"/>
<path d="M94.7484 260.636H49.4238V261.725H94.7484V260.636Z" fill="#3F3D56"/>
<path d="M215.178 11.6226H108.261V67.6957H215.178V11.6226Z" fill="#F2F2F2"/>
<path d="M236.851 68.2047H107.78V0H236.851V68.2047ZM108.743 67.1867H235.887V1.01798H108.743V67.1867Z" fill="#3F3D56"/>
<path d="M196.38 28.4612H127.059V29.4792H196.38V28.4612Z" fill="#3F3D56"/>
<path d="M196.38 39.15H127.059V40.168H196.38V39.15Z" fill="#3F3D56"/>
<path d="M196.38 49.8388H127.059V50.8568H196.38V49.8388Z" fill="#3F3D56"/>
<path d="M300.986 153.136H255.233V204.544H300.986V153.136Z" fill="#F2F2F2"/>
<path d="M312.544 205.053H254.751V143.974H312.544V205.053ZM255.715 204.035H311.581V144.992H255.715V204.035Z" fill="#3F3D56"/>
<path d="M294.002 171.714H262.216V172.732H294.002V171.714Z" fill="#3F3D56"/>
<path d="M294.002 178.331H262.216V179.349H294.002V178.331Z" fill="#3F3D56"/>
<path d="M294.002 184.948H262.216V185.966H294.002V184.948Z" fill="#3F3D56"/>
<path d="M282.494 67.1867H62.1362V68.2047H282.494V67.1867Z" fill="#3F3D56"/>
<path d="M344.09 204.035H223.207V205.053H344.09V204.035Z" fill="#3F3D56"/>
<path d="M142.112 291.581H0V292.599H142.112V291.581Z" fill="#3F3D56"/>
</svg>
