<svg width="810" height="510" viewBox="0 0 810 510" fill="none" xmlns="http://www.w3.org/2000/svg">
<g opacity="0.5">
<path opacity="0.5" d="M810 0H483.305V329.134H810V0Z" fill="url(#paint0_linear)"/>
</g>
<path d="M808.361 2.53223H484.944V326.602H808.361V2.53223Z" fill="white"/>
<g opacity="0.5">
<path opacity="0.5" d="M775.525 29.4412H517.78V235.161H775.525V29.4412Z" fill="#F25F5C"/>
</g>
<g opacity="0.5">
<path opacity="0.5" d="M695.472 171.106C695.331 162.991 692.107 155.255 686.488 149.554C681.427 144.443 674.622 138.578 667.248 135.03H667.203C664.08 133.466 660.733 132.427 657.291 131.951V119.358C659.806 117.042 661.885 114.268 663.422 111.176V112.185C663.422 112.185 675.168 99.9849 674.899 85.6684C675.071 77.0708 671.051 67.6111 657.568 59.4984C626.259 40.7175 614.266 68.0267 611.983 74.346C611.835 74.6519 611.725 74.9749 611.653 75.3081L611.563 75.6006C611.525 75.8969 611.525 76.1972 611.563 76.4935V76.4935V76.5858C611.553 76.7448 611.553 76.9042 611.563 77.0631C611.563 79.1721 613.308 81.1117 616.265 82.6973C613.94 86.2653 612.44 90.3326 611.88 94.5882C611.319 98.8437 611.713 103.175 613.031 107.25C614.349 111.325 616.556 115.036 619.483 118.099C622.41 121.163 625.98 123.497 629.92 124.923V133.005L629.314 131.828C629.314 131.828 625.129 134.406 619.731 138.362C610.687 144.99 598.23 155.488 596.358 164.163C593.364 178.018 596.358 236.654 596.358 236.654L696.722 238.193L695.472 171.106ZM663.572 111.076L663.609 111.038L663.572 111.076ZM611.825 77.5018V77.548V77.5018ZM612.013 77.9559V78.0175V77.9559ZM612.252 78.4024L612.297 78.4793L612.252 78.4024ZM612.544 78.8411L612.604 78.9258L612.544 78.8411ZM612.888 79.2721L612.971 79.3645L612.888 79.2721ZM613.285 79.6955L613.383 79.7955L613.285 79.6955ZM616.684 82.0046L616.789 82.0585L616.684 82.0046ZM613.734 80.088L613.854 80.1958L613.734 80.088ZM614.229 80.496L614.371 80.6037L614.229 80.496ZM614.775 80.8885L614.94 81.004L614.775 80.8885ZM615.366 81.2734L615.561 81.3888L615.366 81.2734ZM616.003 81.6428L616.22 81.766L616.003 81.6428Z" fill="url(#paint1_linear)"/>
</g>
<path d="M656.999 119.743H630.354V159.922H656.999V119.743Z" fill="#FDA57D"/>
<path opacity="0.05" d="M631.238 126.132C634.023 127.148 635.221 127.956 638.342 127.956C644.905 127.957 651.235 125.456 656.108 120.936V120.652H631.238V126.132Z" fill="black"/>
<path d="M639.233 127.048C653.949 127.048 665.878 114.783 665.878 99.6539C665.878 84.5247 653.949 72.26 639.233 72.26C624.518 72.26 612.589 84.5247 612.589 99.6539C612.589 114.783 624.518 127.048 639.233 127.048Z" fill="#FDA57D"/>
<path d="M636.299 87.3078C649.451 87.3078 660.113 83.1415 660.113 78.002C660.113 72.8626 649.451 68.6963 636.299 68.6963C623.146 68.6963 612.484 72.8626 612.484 78.002C612.484 83.1415 623.146 87.3078 636.299 87.3078Z" fill="black"/>
<path d="M641.06 81.4351L662.965 95.1436V112.077C662.965 112.077 691.541 82.3818 657.253 61.823C622.965 41.2641 612.484 77.4942 612.484 77.4942C612.484 77.4942 622.007 85.3529 641.06 81.4351Z" fill="black"/>
<path d="M663.976 104.218C665.448 104.218 666.641 102.175 666.641 99.654C666.641 97.1331 665.448 95.0896 663.976 95.0896C662.504 95.0896 661.311 97.1331 661.311 99.654C661.311 102.175 662.504 104.218 663.976 104.218Z" fill="#FDA57D"/>
<g opacity="0.05">
<path opacity="0.05" d="M662.966 95.1433L648.382 86.0223C644.421 86.8983 640.38 87.3293 636.329 87.3077C623.527 87.3077 613.12 83.3591 612.544 78.4099V78.4946C612.534 78.6484 612.534 78.8026 612.544 78.9564C612.544 84.098 623.205 88.2621 636.359 88.2621C640.422 88.2865 644.476 87.8555 648.449 86.9767L663.025 96.0978L662.966 95.1433Z" fill="black"/>
<path opacity="0.05" d="M662.966 112.108V113.085C662.966 113.085 674.382 101.216 674.12 87.2847C673.851 100.785 662.966 112.108 662.966 112.108Z" fill="black"/>
</g>
<path d="M629.755 132.197C629.755 132.197 600.603 150.178 597.691 163.663C594.779 177.148 597.691 234.199 597.691 234.199L695.345 235.7L694.102 170.413C693.961 162.513 690.816 154.984 685.343 149.439C678.051 142.073 667.023 133.075 655.988 132.197L642.872 157.675L629.755 132.197Z" fill="#4D8AF0"/>
<path opacity="0.05" d="M616.295 162.716C616.295 162.716 608.674 203.842 615.344 216.596Z" fill="black"/>
<path opacity="0.05" d="M671.515 162.716C671.515 162.716 679.136 203.842 672.466 216.596Z" fill="black"/>
<path d="M629.628 132.351L657.306 131.951L639.158 179.357L629.628 132.351Z" fill="white"/>
<path d="M629.628 129.418V132.351H657.253L657.306 129.418H629.628Z" fill="white"/>
<path d="M644.871 129.418H641.06V133.336H644.871V129.418Z" fill="black"/>
<path d="M629.628 132.351L623.916 138.232L636.299 159.922L629.628 132.351Z" fill="#4D8AF0"/>
<path d="M656.295 134.314L661.064 139.209L646.772 158.79L656.295 134.314Z" fill="#4D8AF0"/>
<path opacity="0.1" d="M629.628 132.351L623.916 138.232L636.299 159.922L629.628 132.351Z" fill="white"/>
<path opacity="0.1" d="M656.295 134.314L661.064 139.209L646.772 158.79L656.295 134.314Z" fill="white"/>
<path d="M642.962 131.374L627.727 197.414L637.249 212.1L649.632 197.414L642.962 131.374Z" fill="black"/>
<path d="M763.584 264.056H535.995V274.832H763.584V264.056Z" fill="#E0E0E0"/>
<path d="M727.274 285.607H572.304V296.383H727.274V285.607Z" fill="#E0E0E0"/>
<g opacity="0.5">
<path opacity="0.5" d="M326.695 88.1467H0V417.281H326.695V88.1467Z" fill="url(#paint2_linear)"/>
</g>
<path d="M325.056 90.6792H1.63953V414.749H325.056V90.6792Z" fill="white"/>
<g opacity="0.5">
<path opacity="0.5" d="M292.22 117.588H34.4753V323.308H292.22V117.588Z" fill="#F25F5C"/>
</g>
<path opacity="0.05" d="M159.013 206.15C161.798 207.166 162.996 207.975 166.118 207.975C172.68 207.976 179.01 205.475 183.883 200.955V200.67H159.013V206.15Z" fill="black"/>
<path d="M184.766 199.762H158.122V239.941H184.766V199.762Z" fill="#A0616A"/>
<path d="M167.008 207.067C181.724 207.067 193.653 194.802 193.653 179.673C193.653 164.543 181.724 152.279 167.008 152.279C152.293 152.279 140.364 164.543 140.364 179.673C140.364 194.802 152.293 207.067 167.008 207.067Z" fill="#A0616A"/>
<path d="M221.031 282.583H205.332V322.8H221.031V282.583Z" fill="#A0616A"/>
<path d="M118.047 282.583V323.623H130.819L132.301 285.592L118.047 282.583Z" fill="#A0616A"/>
<path d="M168.828 166.349L190.733 175.162V192.096C190.733 192.096 216.981 171.633 182.67 151.051C151.841 132.578 143.36 154.711 147.947 158.56C147.857 158.659 152.534 164.551 147.947 156.25C147.901 156.378 148.602 159.336 148.607 159.472C148.612 159.608 153.127 164.913 147.947 156.25C148.003 156.374 148.509 159.38 148.607 159.472C152.417 163.159 151.848 169.844 168.828 166.349Z" fill="#4D4545"/>
<path d="M191.744 184.237C193.216 184.237 194.409 182.194 194.409 179.673C194.409 177.152 193.216 175.108 191.744 175.108C190.272 175.108 189.079 177.152 189.079 179.673C189.079 182.194 190.272 184.237 191.744 184.237Z" fill="#A0616A"/>
<path d="M204.269 271.091V282.582H225.021L223.756 269.451L204.269 271.091Z" fill="white"/>
<path d="M167.54 225.132L158.272 213.64C158.272 213.64 121.259 226.771 121.259 269.451L132.436 282.582L130.841 323.623H196.303C196.303 323.623 201.094 280.943 199.5 267.812L204.291 271.098H223.449C223.449 271.098 230.816 225.132 184.519 210.361L167.54 225.132Z" fill="#235067"/>
<path d="M121.236 269.451L116.452 282.582L132.129 289.972L132.413 282.582L121.236 269.451Z" fill="white"/>
<path opacity="0.05" d="M151.691 218.243L157.965 232.675L166.926 225.101L158.272 214.617L151.691 218.243Z" fill="black"/>
<path d="M151.691 217.265L157.965 231.69L166.926 224.123L158.272 213.64L151.691 217.265Z" fill="white"/>
<path opacity="0.05" d="M185.021 210.415L190.733 214.333L174.547 229.996L168.88 224.939L185.021 210.415Z" fill="black"/>
<path d="M185.021 209.437L190.733 213.347L174.547 229.019L168.88 223.962L185.021 209.437Z" fill="white"/>
<path opacity="0.05" d="M133.589 278.957C133.571 266.241 137.585 253.866 145.021 243.705Z" fill="black"/>
<path opacity="0.05" d="M197.404 269.166V263.286L203.116 267.204L199.305 266.226L197.404 269.166Z" fill="black"/>
<path opacity="0.05" d="M205.025 282.875L205.332 283.93H221.031L221.211 282.875H205.025Z" fill="black"/>
<path opacity="0.05" d="M118.047 283.337V284.46L132.047 290.641L131.687 289.725L118.047 283.337Z" fill="black"/>
<path d="M271.722 347.954H44.1328V358.73H271.722V347.954Z" fill="#E0E0E0"/>
<path d="M235.412 369.505H80.4423V380.281H235.412V369.505Z" fill="#E0E0E0"/>
<g opacity="0.5">
<path opacity="0.5" d="M569.968 180.866H243.273V510H569.968V180.866Z" fill="url(#paint3_linear)"/>
</g>
<path d="M568.329 183.398H244.913V507.468H568.329V183.398Z" fill="white"/>
<g opacity="0.5">
<path opacity="0.5" d="M535.493 210.315H277.749V416.034H535.493V210.315Z" fill="#F25F5C"/>
</g>
<g opacity="0.5">
<path opacity="0.5" d="M429.335 338.733L430.084 338.155L431.154 337.339L481.134 299.17L463.952 228.518C463.952 228.518 463.952 228.434 463.952 228.287C464.095 226.132 464.896 209.453 456.129 212.462C447.564 215.395 450.739 227.718 451.353 229.811L451.45 230.119L462.38 289.533L427.643 310.361L422.822 309.807C428.316 302.058 431.233 292.694 431.139 283.106C431.139 260.938 416.458 242.966 398.341 242.966C380.224 242.966 365.543 260.938 365.543 283.106C365.543 299.708 373.778 313.963 385.524 320.052L373.089 326.448V326.517C369.525 325.748 356.005 325.978 361.485 376.995C362.83 389.354 359.97 401.811 353.392 412.247L349.963 417.15L435.571 417.689H435.833C435.833 417.689 423.713 397.715 429.335 338.733Z" fill="url(#paint4_linear)"/>
</g>
<path d="M374.601 326.871C374.601 326.871 356.933 319.028 362.084 372.931C363.482 387.301 360.085 401.734 352.449 413.856L351.363 415.572H367.788L380.156 402.103L374.601 326.871Z" fill="#3AD29F"/>
<path d="M462.829 230.543C462.829 230.543 462.829 230.466 462.829 230.319L450.477 231.813L450.566 232.12L461.28 290.356L424.536 312.393L426.033 340.726L479.614 299.801L462.829 230.543Z" fill="#3AD29F"/>
<path d="M398.535 323.4C416.29 323.4 430.682 305.783 430.682 284.052C430.682 262.322 416.29 244.705 398.535 244.705C380.781 244.705 366.388 262.322 366.388 284.052C366.388 305.783 380.781 323.4 398.535 323.4Z" fill="#FFFF00"/>
<path d="M414.609 297.43H391.648V332.059H414.609V297.43Z" fill="#FDA57D"/>
<path d="M398.535 326.586L392.412 317.142L374.04 326.586V342.211C374.04 342.211 367.369 354.296 372.804 368.212C371.307 388.671 367.25 415.488 367.25 415.488L435.309 416.003C435.309 416.003 423.061 395.814 429.185 336.008L427.688 310.823L413.913 309.283L398.535 326.586Z" fill="#3AD29F"/>
<path opacity="0.05" d="M427.62 310.815L429.155 312.385L430.682 337.208L428.901 338.571L427.62 310.815Z" fill="black"/>
<path opacity="0.05" d="M392.411 302.941C394.807 303.811 395.848 304.481 398.535 304.481C404.191 304.481 409.646 302.326 413.845 298.431V298.184H392.411V302.941Z" fill="black"/>
<path d="M399.299 303.726C411.98 303.726 422.26 293.157 422.26 280.119C422.26 267.082 411.98 256.512 399.299 256.512C386.618 256.512 376.338 267.082 376.338 280.119C376.338 293.157 386.618 303.726 399.299 303.726Z" fill="#FDA57D"/>
<path d="M422.268 284.052C423.537 284.052 424.566 282.291 424.566 280.119C424.566 277.947 423.537 276.186 422.268 276.186C420.998 276.186 419.969 277.947 419.969 280.119C419.969 282.291 420.998 284.052 422.268 284.052Z" fill="#FDA57D"/>
<path opacity="0.05" d="M379.25 272.73V273.839H418.667V274.947H378.711L379.25 272.73Z" fill="black"/>
<path d="M418.442 254.149H378.636V274.608H418.442V254.149Z" fill="#FFFF00"/>
<path d="M455.156 214.802C446.763 217.681 449.87 229.758 450.469 231.813L462.822 230.319C462.986 228.203 463.773 211.854 455.156 214.802Z" fill="#FDA57D"/>
<g opacity="0.05">
<path opacity="0.05" d="M368.605 415.488C368.605 415.488 372.632 388.671 374.159 368.212C368.762 354.357 375.425 342.211 375.425 342.211V326.586L392.561 317.773L392.15 317.142L373.785 326.586V342.211C373.785 342.211 367.122 354.334 372.52 368.212C371.023 388.671 366.965 415.488 366.965 415.488L435.025 416.003L368.605 415.488Z" fill="black"/>
<path opacity="0.05" d="M399.92 326.548L415.081 309.407L413.591 309.237L399.224 325.478L399.92 326.548Z" fill="black"/>
</g>
<path opacity="0.05" d="M386.647 320.96L398.408 348.808L419.969 310.777L414.01 309.992L399.232 325.178L392.666 317.589L386.647 320.96Z" fill="black"/>
<path d="M386.647 320.113L398.408 347.969L419.969 309.938L414.01 309.145L399.232 324.339L392.666 316.742L386.647 320.113Z" fill="white"/>
<path d="M521.022 438.009H293.433V448.785H521.022V438.009Z" fill="#E0E0E0"/>
<path d="M484.712 459.561H329.742V470.337H484.712V459.561Z" fill="#E0E0E0"/>
<defs>
<linearGradient id="paint0_linear" x1="646.652" y1="329.134" x2="646.652" y2="0" gradientUnits="userSpaceOnUse">
<stop stop-color="#808080" stop-opacity="0.25"/>
<stop offset="0.54" stop-color="#808080" stop-opacity="0.12"/>
<stop offset="1" stop-color="#808080" stop-opacity="0.1"/>
</linearGradient>
<linearGradient id="paint1_linear" x1="87425" y1="57068.4" x2="101239" y2="57068.4" gradientUnits="userSpaceOnUse">
<stop stop-color="#808080" stop-opacity="0.25"/>
<stop offset="0.54" stop-color="#808080" stop-opacity="0.12"/>
<stop offset="1" stop-color="#808080" stop-opacity="0.1"/>
</linearGradient>
<linearGradient id="paint2_linear" x1="71281.6" y1="178522" x2="71281.6" y2="37780.6" gradientUnits="userSpaceOnUse">
<stop stop-color="#808080" stop-opacity="0.25"/>
<stop offset="0.54" stop-color="#808080" stop-opacity="0.12"/>
<stop offset="1" stop-color="#808080" stop-opacity="0.1"/>
</linearGradient>
<linearGradient id="paint3_linear" x1="177684" y1="218262" x2="177684" y2="77520.8" gradientUnits="userSpaceOnUse">
<stop stop-color="#808080" stop-opacity="0.25"/>
<stop offset="0.54" stop-color="#808080" stop-opacity="0.12"/>
<stop offset="1" stop-color="#808080" stop-opacity="0.1"/>
</linearGradient>
<linearGradient id="paint4_linear" x1="69412.7" y1="108726" x2="92392.5" y2="108726" gradientUnits="userSpaceOnUse">
<stop stop-color="#808080" stop-opacity="0.25"/>
<stop offset="0.54" stop-color="#808080" stop-opacity="0.12"/>
<stop offset="1" stop-color="#808080" stop-opacity="0.1"/>
</linearGradient>
</defs>
</svg>
