<svg width="389" height="417" viewBox="0 0 389 417" fill="none" xmlns="http://www.w3.org/2000/svg">
<path d="M151.517 416.115C168.786 416.115 182.786 401.688 182.786 383.891C182.786 366.094 168.786 351.667 151.517 351.667C134.247 351.667 120.248 366.094 120.248 383.891C120.248 401.688 134.247 416.115 151.517 416.115Z" fill="#8E8BDE"/>
<path d="M57.0328 97.3737C66.0429 97.3737 73.347 89.8464 73.347 80.561C73.347 71.2755 66.0429 63.7482 57.0328 63.7482C48.0226 63.7482 40.7185 71.2755 40.7185 80.561C40.7185 89.8464 48.0226 97.3737 57.0328 97.3737Z" fill="#F2F2F2"/>
<path d="M152.878 33.6256C161.888 33.6256 169.192 26.0982 169.192 16.8128C169.192 7.52734 161.888 0 152.878 0C143.868 0 136.564 7.52734 136.564 16.8128C136.564 26.0982 143.868 33.6256 152.878 33.6256Z" fill="#F2F2F2"/>
<path d="M212.695 105.079C221.705 105.079 229.01 97.5521 229.01 88.2666C229.01 78.9812 221.705 71.4539 212.695 71.4539C203.685 71.4539 196.381 78.9812 196.381 88.2666C196.381 97.5521 203.685 105.079 212.695 105.079Z" fill="#F2F2F2"/>
<path d="M131.806 187.743C140.816 187.743 148.121 180.216 148.121 170.93C148.121 161.645 140.816 154.117 131.806 154.117C122.796 154.117 115.492 161.645 115.492 170.93C115.492 180.216 122.796 187.743 131.806 187.743Z" fill="#F2F2F2"/>
<path d="M29.1634 227.673C38.1735 227.673 45.4776 220.146 45.4776 210.86C45.4776 201.575 38.1735 194.048 29.1634 194.048C20.1533 194.048 12.8491 201.575 12.8491 210.86C12.8491 220.146 20.1533 227.673 29.1634 227.673Z" fill="#F2F2F2"/>
<path d="M137.924 290.021C146.934 290.021 154.238 282.493 154.238 273.208C154.238 263.922 146.934 256.395 137.924 256.395C128.914 256.395 121.61 263.922 121.61 273.208C121.61 282.493 128.914 290.021 137.924 290.021Z" fill="#F2F2F2"/>
<path d="M254.844 325.046C263.854 325.046 271.158 317.519 271.158 308.233C271.158 298.948 263.854 291.421 254.844 291.421C245.834 291.421 238.53 298.948 238.53 308.233C238.53 317.519 245.834 325.046 254.844 325.046Z" fill="#F2F2F2"/>
<path d="M371.761 317.341C380.771 317.341 388.075 309.813 388.075 300.528C388.075 291.242 380.771 283.715 371.761 283.715C362.75 283.715 355.446 291.242 355.446 300.528C355.446 309.813 362.75 317.341 371.761 317.341Z" fill="#F2F2F2"/>
<path d="M148.171 47.6388C99.3022 47.9945 59.2886 88.9211 58.5944 139.28C58.5879 139.745 58.585 143.014 58.5854 147.29C58.5857 153.559 61.0024 159.572 65.304 164.005C69.6055 168.438 75.4396 170.929 81.5231 170.93H81.5232C84.5389 170.929 87.5248 170.316 90.3105 169.126C93.0962 167.936 95.627 166.191 97.7582 163.992C99.8895 161.794 101.579 159.184 102.732 156.312C103.884 153.439 104.475 150.362 104.473 147.254C104.47 144.345 104.469 142.332 104.469 142.208C104.467 134.425 106.432 126.776 110.169 120.013C113.906 113.25 119.287 107.606 125.783 103.636C132.279 99.6658 139.665 97.5069 147.216 97.3714C154.767 97.2359 162.222 99.1284 168.848 102.863C175.474 106.597 181.043 112.045 185.006 118.67C188.97 125.295 191.191 132.869 191.453 140.647C191.714 148.425 190.006 156.14 186.497 163.031C182.988 169.923 177.799 175.755 171.439 179.953L171.447 179.963C171.447 179.963 138.799 201.623 128.846 231.336L128.854 231.339C127.104 237.426 126.217 243.742 126.221 250.09C126.221 252.7 126.37 275.535 126.658 294.068C126.759 300.463 129.295 306.561 133.719 311.046C138.143 315.531 144.101 318.044 150.307 318.042H150.307C153.425 318.042 156.513 317.406 159.392 316.172C162.271 314.937 164.885 313.128 167.083 310.849C169.281 308.57 171.02 305.865 172.2 302.89C173.38 299.915 173.978 296.73 173.959 293.516C173.859 276.543 173.805 256.779 173.805 255.344C173.805 237.099 190.884 218.92 204.913 207.065C221.068 193.414 232.693 174.811 237.363 153.826C238.396 149.505 238.966 145.081 239.062 140.632C239.062 128.363 236.706 116.216 232.13 104.889C227.554 93.5626 220.849 83.2811 212.4 74.6371C203.952 65.9931 193.927 59.1573 182.904 54.5237C171.88 49.8901 160.076 47.5501 148.171 47.6388Z" fill="#8E8BDE"/>
<path d="M285.468 191.243C296.731 191.243 305.861 181.834 305.861 170.227C305.861 158.62 296.731 149.211 285.468 149.211C274.205 149.211 265.075 158.62 265.075 170.227C265.075 181.834 274.205 191.243 285.468 191.243Z" fill="#2F2E41"/>
<path d="M247.787 407.8H239.454L235.489 374.673H247.789L247.787 407.8Z" fill="#A0616A"/>
<path d="M233.501 405.346H249.573V415.775H223.382C223.382 414.406 223.643 413.05 224.152 411.784C224.66 410.519 225.406 409.369 226.346 408.401C227.285 407.433 228.401 406.664 229.629 406.14C230.856 405.616 232.172 405.346 233.501 405.346Z" fill="#2F2E41"/>
<path d="M312.364 407.8H304.03L300.065 374.673H312.366L312.364 407.8Z" fill="#A0616A"/>
<path d="M298.076 405.346H314.149V415.775H287.957C287.957 414.406 288.219 413.05 288.727 411.784C289.236 410.519 289.981 409.369 290.921 408.401C291.861 407.433 292.976 406.664 294.204 406.14C295.432 405.616 296.747 405.346 298.076 405.346Z" fill="#2F2E41"/>
<path d="M282.369 191.365C291.59 191.365 299.065 183.662 299.065 174.159C299.065 164.657 291.59 156.953 282.369 156.953C273.149 156.953 265.674 164.657 265.674 174.159C265.674 183.662 273.149 191.365 282.369 191.365Z" fill="#A0616A"/>
<path d="M292.319 246.872L299.789 229.183C301.604 225.034 302.124 220.406 301.277 215.939C300.431 211.472 298.261 207.386 295.065 204.244C294.409 203.576 293.712 202.951 292.978 202.374C289.292 199.402 284.749 197.783 280.07 197.771C276.923 197.784 273.816 198.496 270.961 199.859C270.716 199.971 270.478 200.09 270.233 200.209C269.764 200.441 269.302 200.693 268.854 200.952C265.927 202.684 263.437 205.1 261.583 208.006C259.729 210.911 258.564 214.225 258.181 217.681L254.884 246.15C254.055 248.385 224.472 329.086 234.818 390.698C234.928 391.356 235.239 391.961 235.707 392.423C236.174 392.886 236.772 393.182 237.415 393.269L247.903 394.74C248.669 394.848 249.446 394.653 250.078 394.194C250.71 393.736 251.15 393.047 251.309 392.268L268.908 305.815C269.018 305.278 269.299 304.794 269.707 304.441C270.115 304.088 270.625 303.886 271.158 303.867C271.69 303.849 272.213 304.015 272.643 304.338C273.073 304.662 273.386 305.125 273.53 305.654L298.396 396.569C298.573 397.229 298.956 397.812 299.485 398.227C300.014 398.642 300.661 398.867 301.326 398.867C301.524 398.865 301.722 398.847 301.917 398.811L314.73 396.268C315.475 396.124 316.141 395.699 316.598 395.076C317.054 394.452 317.269 393.676 317.198 392.898C315.315 371.259 305.309 262.865 292.319 246.872Z" fill="#2F2E41"/>
<path d="M217.488 188.478C217.372 189.501 217.475 190.537 217.79 191.515C218.105 192.492 218.624 193.386 219.311 194.135C219.997 194.883 220.835 195.467 221.764 195.846C222.694 196.224 223.692 196.388 224.69 196.326L234.022 219.438L241.081 208.654L231.137 188.36C230.925 186.64 230.107 185.06 228.84 183.919C227.573 182.779 225.944 182.157 224.262 182.171C222.579 182.186 220.96 182.836 219.712 183.998C218.464 185.16 217.672 186.754 217.488 188.478L217.488 188.478Z" fill="#A0616A"/>
<path d="M281.443 270.145C282.436 270.022 283.39 269.677 284.239 269.134C285.088 268.591 285.811 267.862 286.357 267C286.903 266.137 287.259 265.162 287.4 264.142C287.54 263.123 287.462 262.084 287.171 261.099L306.807 246.36L294.985 241.798L278.152 256.493C276.578 257.107 275.278 258.294 274.497 259.83C273.715 261.365 273.508 263.143 273.914 264.826C274.32 266.508 275.31 267.979 276.698 268.96C278.086 269.94 279.774 270.362 281.443 270.145Z" fill="#A0616A"/>
<path d="M249.437 234.847C248.684 234.846 247.933 234.77 247.194 234.619C245.408 234.268 243.734 233.471 242.317 232.296C240.901 231.121 239.787 229.605 239.073 227.882L225.998 211.453C225.722 211.105 225.521 210.701 225.408 210.267C225.296 209.833 225.275 209.379 225.346 208.936C225.418 208.493 225.58 208.071 225.823 207.698C226.066 207.324 226.383 207.009 226.754 206.773L236.056 200.839C236.399 200.619 236.781 200.473 237.18 200.406C237.579 200.34 237.986 200.356 238.379 200.453C238.772 200.55 239.142 200.727 239.469 200.972C239.795 201.217 240.071 201.527 240.281 201.883L249.496 217.528L267.143 204.087C268.548 203.328 270.172 203.115 271.716 203.488C273.261 203.86 274.625 204.793 275.557 206.115C276.49 207.438 276.93 209.062 276.797 210.691C276.663 212.32 275.966 213.846 274.831 214.989L257.217 231.547C255.147 233.661 252.351 234.847 249.437 234.847Z" fill="#2F2E41"/>
<path d="M297.119 259.557C297.095 259.557 297.071 259.557 297.048 259.556C296.619 259.545 296.197 259.442 295.809 259.252C295.421 259.063 295.076 258.792 294.797 258.456L286.527 248.513C286.245 248.175 286.036 247.778 285.914 247.35C285.792 246.922 285.76 246.473 285.819 246.031C285.878 245.589 286.028 245.165 286.257 244.787C286.487 244.409 286.792 244.086 287.152 243.839L302.638 233.199L288.609 215.817C287.793 214.415 287.494 212.757 287.766 211.146C288.038 209.536 288.863 208.08 290.091 207.044C291.319 206.009 292.867 205.463 294.453 205.507C296.039 205.551 297.557 206.181 298.729 207.283L315.78 224.455C317.122 225.718 318.146 227.298 318.765 229.06C319.384 230.821 319.579 232.71 319.333 234.566C319.088 236.422 318.409 238.189 317.355 239.715C316.3 241.241 314.903 242.481 313.281 243.328L299.346 258.567C299.059 258.879 298.714 259.128 298.331 259.298C297.949 259.469 297.536 259.557 297.119 259.557Z" fill="#2F2E41"/>
<path d="M278.123 222.919C277.99 222.919 277.858 222.91 277.726 222.893C277.15 222.821 276.606 222.58 276.159 222.199C275.712 221.818 275.381 221.313 275.204 220.743L268.989 201.108C268.834 200.611 268.858 200.074 269.057 199.594C269.256 199.114 269.617 198.725 270.073 198.499L270.274 198.4C270.457 198.311 270.638 198.222 270.823 198.137C273.721 196.752 276.876 196.03 280.07 196.02C284.217 196.028 288.271 197.283 291.736 199.632C292.2 199.951 292.525 200.444 292.639 201.007C292.754 201.57 292.649 202.156 292.348 202.641L280.69 221.462C280.417 221.909 280.038 222.277 279.589 222.532C279.14 222.787 278.636 222.92 278.123 222.919Z" fill="#E6E6E6"/>
<path d="M301.549 160.845C305.234 160.845 308.222 157.766 308.222 153.968C308.222 150.17 305.234 147.091 301.549 147.091C297.863 147.091 294.876 150.17 294.876 153.968C294.876 157.766 297.863 160.845 301.549 160.845Z" fill="#2F2E41"/>
<path d="M278.67 146.409C273.982 146.409 269.487 148.328 266.172 151.744C262.858 155.159 260.996 159.792 260.996 164.623V172.329H270.193L274.591 164.623L275.911 172.329H303.821L296.343 164.623C296.343 159.792 294.481 155.159 291.167 151.744C287.852 148.328 283.357 146.409 278.67 146.409Z" fill="#2F2E41"/>
<path d="M304.978 149.256C305.716 146.878 307.244 144.844 309.293 143.513C311.342 142.181 313.781 141.636 316.181 141.974C320.434 142.706 323.796 146.229 325.8 150.164C327.803 154.098 328.728 158.502 330.075 162.723C331.422 166.944 333.332 171.188 336.732 173.92C340.132 176.652 345.349 177.394 348.689 174.583C348.307 177.512 347.042 180.244 345.071 182.391C343.101 184.539 340.525 185.993 337.708 186.55C334.891 187.106 331.976 186.735 329.375 185.491C326.774 184.246 324.618 182.19 323.213 179.613C321.451 176.383 320.996 172.596 320.474 168.93C319.951 165.263 319.272 161.469 317.169 158.463C315.065 155.458 311.127 153.495 307.785 154.864L304.978 149.256Z" fill="#2F2E41"/>
<path d="M87.9946 159.748C81.9111 159.748 76.0769 157.257 71.7754 152.823C67.4738 148.39 65.057 142.378 65.0567 136.108C65.0563 131.832 65.0593 128.563 65.0656 128.098C65.2589 113.452 68.838 99.0653 75.506 86.1302C64.5507 101.586 58.5269 120.168 58.268 139.307C58.2617 139.772 58.2587 143.041 58.2591 147.317C58.2594 153.586 60.6762 159.599 64.9778 164.032C69.2793 168.465 75.1135 170.956 81.197 170.957C86.196 170.955 91.0577 169.272 95.0436 166.162C99.0296 163.053 101.922 158.688 103.281 153.73C99.0808 157.612 93.6361 159.755 87.9946 159.748Z" fill="#3F3D56"/>
<path d="M149.723 97.4511C156.756 97.7973 163.603 99.8973 169.675 103.571C175.747 107.244 180.863 112.382 184.583 118.542C188.304 124.702 190.519 131.701 191.037 138.937C191.555 146.174 190.362 153.432 187.558 160.088C191.613 155.18 194.593 149.43 196.296 143.227C197.998 137.025 198.383 130.518 197.424 124.149C196.465 117.779 194.185 111.698 190.738 106.319C187.292 100.941 182.761 96.3912 177.454 92.9808C172.147 89.5704 166.188 87.3795 159.985 86.5573C153.782 85.7351 147.48 86.3011 141.508 88.2165C135.536 90.132 130.035 93.352 125.38 97.6569C120.726 101.962 117.026 107.251 114.535 113.162C118.841 107.942 124.253 103.81 130.355 101.086C136.456 98.3618 143.082 97.1183 149.723 97.4511Z" fill="#3F3D56"/>
<path d="M156.78 306.861C150.574 306.862 144.616 304.349 140.192 299.864C135.768 295.379 133.232 289.281 133.131 282.887C132.844 264.353 132.694 241.519 132.694 238.909C132.69 232.56 133.577 226.244 135.328 220.157L135.319 220.155C136.353 217.1 137.601 214.126 139.054 211.258C134.594 217.383 131.044 224.16 128.522 231.364L128.53 231.366C126.78 237.453 125.893 243.769 125.897 250.117C125.897 252.727 126.046 275.562 126.334 294.095C126.434 300.49 128.97 306.588 133.395 311.073C137.819 315.558 143.777 318.07 149.983 318.069C155.099 318.068 160.078 316.357 164.172 313.194C168.266 310.03 171.254 305.584 172.688 300.522C168.339 304.608 162.665 306.869 156.78 306.861Z" fill="#3F3D56"/>
<path d="M144.632 408.257C140.19 406.263 136.259 403.232 133.148 399.405C130.037 395.577 127.832 391.056 126.707 386.2C125.581 381.343 125.567 376.284 126.664 371.42C127.761 366.557 129.94 362.023 133.028 358.176C129.447 360.871 126.463 364.319 124.274 368.293C122.086 372.267 120.742 376.675 120.333 381.225C119.923 385.775 120.458 390.363 121.9 394.684C123.343 399.005 125.661 402.96 128.7 406.287C131.739 409.614 135.43 412.237 139.528 413.982C143.626 415.726 148.038 416.553 152.47 416.406C156.901 416.26 161.252 415.143 165.233 413.131C169.214 411.119 172.734 408.258 175.56 404.736C171.153 408.056 165.978 410.128 160.552 410.746C155.125 411.364 149.636 410.505 144.632 408.257Z" fill="#3F3D56"/>
</svg>
