<svg width="214" height="373" viewBox="0 0 214 373" fill="none" xmlns="http://www.w3.org/2000/svg">
<path d="M213.989 363.217C213.995 358.085 184.129 353.885 147.281 353.835C110.434 353.786 80.5583 357.906 80.5527 363.037C80.547 368.169 110.413 372.37 147.261 372.419C184.108 372.469 213.984 368.349 213.989 363.217Z" fill="#3F3D56" fill-opacity="0.5"/>
<path opacity="0.1" d="M196.507 363.194C196.511 359.407 174.471 356.307 147.279 356.27C120.087 356.234 98.0395 359.274 98.0354 363.061C98.0312 366.848 120.072 369.948 147.264 369.985C174.456 370.021 196.503 366.981 196.507 363.194Z" fill="black"/>
<path d="M124.986 332.086L126.091 348.266C126.091 348.266 117.988 364.185 126.523 363.948C135.058 363.711 135.733 362.716 135.733 362.716L135.739 357.738L135.75 347.035L133.298 330.604L124.986 332.086Z" fill="#2F2E41"/>
<path d="M158.896 336.114C158.896 336.114 160.91 342.837 159.332 347.315C157.755 351.794 157.07 362.247 158.193 362.497C159.316 362.748 164.704 363.999 164.704 363.999C164.704 363.999 177.725 368.995 183.343 367.011C188.96 365.028 188.064 362.04 188.064 362.04C188.064 362.04 186.722 357.806 182.455 357.552C178.188 357.297 168.325 339.363 168.105 335.38C167.885 331.397 158.896 336.114 158.896 336.114Z" fill="#2F2E41"/>
<path d="M130.96 129.609C141.999 129.609 150.949 119.691 150.949 107.456C150.949 95.2217 141.999 85.3036 130.96 85.3036C119.92 85.3036 110.971 95.2217 110.971 107.456C110.971 119.691 119.92 129.609 130.96 129.609Z" fill="#4E54C8"/>
<path d="M123.869 121.759C123.869 121.759 125.653 132.713 120.26 135.693C114.866 138.672 130.357 144.418 130.357 144.418L137.097 142.436L141.376 132.236C141.376 132.236 135.986 131.731 137.343 122.773L123.869 121.759Z" fill="#FFB9B9"/>
<path opacity="0.1" d="M123.869 121.759C123.869 121.759 125.653 132.713 120.26 135.693C114.866 138.672 130.357 144.418 130.357 144.418L137.097 142.436L141.376 132.236C141.376 132.236 135.986 131.731 137.343 122.773L123.869 121.759Z" fill="black"/>
<path d="M103.166 159.067L102.69 182.961L97.0308 223.774C97.0308 223.774 97.2322 244.931 103.07 246.184C108.908 247.436 103.095 223.533 103.095 223.533L111.562 189.758L113.271 160.325L103.166 159.067Z" fill="#FFB9B9"/>
<path d="M130.279 127.617C137.349 127.617 143.081 121.265 143.081 113.429C143.081 105.593 137.349 99.2414 130.279 99.2414C123.209 99.2414 117.477 105.593 117.477 113.429C117.477 121.265 123.209 127.617 130.279 127.617Z" fill="#FFB9B9"/>
<path d="M150.303 184.519C152.544 188.753 151.865 193.73 149.394 193.727C146.924 193.724 113.689 189.199 113.689 189.199L115.719 180.739C115.719 180.739 113.702 177.251 115.052 175.013C116.402 172.775 113.715 165.802 113.715 165.802L108.579 138.664L111.275 137.727L115.766 136.167L120.711 134.449C120.711 134.449 124.074 139.929 132.386 138.198C132.386 138.198 137.551 138.952 140.479 131.489C141.109 131.5 141.737 131.588 142.35 131.752C142.971 131.932 143.575 132.234 143.847 132.738C144.118 133.238 145.696 133.581 147.488 133.81C150.149 134.15 153.278 134.244 153.278 134.244L150.777 161.869C150.777 161.869 148.062 180.284 150.303 184.519Z" fill="#3F3D56"/>
<path d="M110.375 138.666L108.578 138.664C108.578 138.664 101.384 145.126 102.265 160.559C102.265 160.559 102.937 162.053 108.102 163.056C113.267 164.059 115.515 161.572 115.515 161.572L110.375 138.666Z" fill="#3F3D56"/>
<path d="M144.044 156.882C144.044 156.882 115.298 154.852 115.518 158.586C115.739 162.32 113.708 170.78 114.605 172.274C115.502 173.769 116.589 179.895 115.253 182.68C114.452 184.344 113.851 186.117 113.465 187.954C113.465 187.954 111.669 187.454 110.314 193.674C108.96 199.895 102.202 217.807 104.887 227.02C107.572 236.234 116.267 294.987 116.267 294.987L122.064 333.575C122.064 333.575 131.72 335.58 135.093 331.602L131.998 286.297L129.806 237.01C129.806 237.01 144.802 284.82 147.046 286.317L156.199 337.106C156.199 337.106 166.526 341.102 170.126 334.636L165.9 297.543C165.9 297.543 163.437 290.322 164.34 286.589C165.242 282.857 162.775 280.115 162.775 280.115L153.624 227.584C153.624 227.584 150.935 221.607 153.186 217.129C155.437 212.652 149.171 192.233 149.171 192.233C149.171 192.233 145.139 181.774 146.494 175.802C147.848 169.83 144.044 156.882 144.044 156.882Z" fill="#2F2E41"/>
<path d="M159.994 153.419L164.455 181.551C164.455 181.551 165.124 185.783 163.095 192.75C161.066 199.716 153.187 216.383 153.187 216.383L149.153 208.412L155.918 183.033L150.336 153.406L159.994 153.419Z" fill="#FFB9B9"/>
<path d="M120.012 157.098L115.828 159.465L111.266 144.89L111.274 137.726L115.766 136.167L116.435 142.159L120.012 157.098Z" fill="#2F2E41"/>
<path d="M147.488 133.81L143.818 157.753L137.979 157.745L142.349 131.752C142.971 131.932 143.575 132.234 143.846 132.738C144.117 133.238 145.696 133.581 147.488 133.81Z" fill="#2F2E41"/>
<path d="M150.58 135.734L153.277 134.244C153.277 134.244 164.715 149.442 161.339 155.661C157.963 161.879 148.085 157.883 148.085 157.883L150.58 135.734Z" fill="#3F3D56"/>
<path d="M133.005 94.7648C137.719 94.7648 141.54 90.5301 141.54 85.3063C141.54 80.0826 137.719 75.8479 133.005 75.8479C128.292 75.8479 124.471 80.0826 124.471 85.3063C124.471 90.5301 128.292 94.7648 133.005 94.7648Z" fill="#4E54C8"/>
<path d="M141.3 99.2563C141.304 95.2697 136.381 92.0314 130.303 92.0232C124.225 92.015 119.294 95.2401 119.29 99.2266C119.285 103.213 124.209 106.452 130.287 106.46C136.365 106.468 141.296 103.243 141.3 99.2563Z" fill="#4E54C8"/>
<path d="M117.875 160.953C118.496 160.953 118.998 160.396 118.998 159.709C118.998 159.022 118.496 158.464 117.875 158.464C117.255 158.464 116.752 159.022 116.752 159.709C116.752 160.396 117.255 160.953 117.875 160.953Z" fill="#3F3D56"/>
<path d="M141.908 160.986C142.528 160.986 143.031 160.429 143.031 159.741C143.031 159.054 142.528 158.497 141.908 158.497C141.287 158.497 140.785 159.054 140.785 159.741C140.785 160.429 141.287 160.986 141.908 160.986Z" fill="#3F3D56"/>
<path d="M93.3618 124.785C99.2687 121.17 101.786 114.072 98.985 108.93C96.1836 103.788 89.1242 102.549 83.2174 106.164C77.3105 109.778 74.7929 116.876 77.5942 122.018C80.3955 127.16 87.4549 128.399 93.3618 124.785Z" fill="#8E8BDE"/>
<path d="M10.873 52.466C13.9548 50.5803 15.2683 46.8768 13.8068 44.194C12.3452 41.5112 8.66206 40.865 5.5802 42.7507C2.49834 44.6363 1.18482 48.3398 2.64638 51.0226C4.10793 53.7054 7.7911 54.3516 10.873 52.466Z" fill="#F2F2F2"/>
<path d="M33.6225 13.9887C36.7043 12.103 38.0178 8.39956 36.5563 5.71676C35.0947 3.03396 31.4116 2.38775 28.3297 4.27342C25.2479 6.15908 23.9343 9.86255 25.3959 12.5454C26.8574 15.2282 30.5406 15.8744 33.6225 13.9887Z" fill="#F2F2F2"/>
<path d="M65.329 22.1147C68.4109 20.2291 69.7244 16.5256 68.2628 13.8428C66.8013 11.16 63.1181 10.5138 60.0363 12.3995C56.9544 14.2851 55.6409 17.9886 57.1024 20.6714C58.564 23.3542 62.2472 24.0004 65.329 22.1147Z" fill="#F2F2F2"/>
<path d="M50.6732 62.927C53.7551 61.0414 55.0686 57.3379 53.6071 54.6551C52.1455 51.9723 48.4623 51.3261 45.3805 53.2118C42.2986 55.0974 40.9851 58.8009 42.4467 61.4837C43.9082 64.1665 47.5914 64.8127 50.6732 62.927Z" fill="#F2F2F2"/>
<path d="M68.8647 91.1973C71.9465 89.3117 73.26 85.6082 71.7985 82.9254C70.3369 80.2426 66.6538 79.5964 63.5719 81.4821C60.49 83.3677 59.1765 87.0712 60.6381 89.754C62.0996 92.4368 65.7828 93.083 68.8647 91.1973Z" fill="#F2F2F2"/>
<path d="M34.218 19.0224C17.5585 29.3527 10.3141 49.5516 18.0032 64.2469C18.0742 64.3825 18.5878 65.3277 19.261 66.563C20.2479 68.3744 22.0209 69.6058 24.19 69.9864C26.3592 70.3671 28.7468 69.8658 30.8277 68.5928L30.8277 68.5928C31.8591 67.9615 32.784 67.1594 33.5494 66.2325C34.3149 65.3056 34.9059 64.2719 35.2888 63.1906C35.6717 62.1093 35.8389 61.0015 35.7809 59.9306C35.7229 58.8596 35.4408 57.8465 34.9507 56.9491C34.4921 56.1092 34.1748 55.5279 34.1553 55.4922C32.9297 53.2438 32.3976 50.6227 32.6113 47.8865C32.825 45.1503 33.7772 42.3934 35.3742 39.8869C36.9712 37.3805 39.1579 35.2108 41.7193 33.5914C44.2808 31.9719 47.1286 30.9585 49.9828 30.6507C52.837 30.343 55.5992 30.7515 57.9976 31.8362C60.396 32.9209 62.3481 34.6443 63.6619 36.8369C64.9756 39.0295 65.6057 41.6158 65.4902 44.3414C65.3747 47.067 64.5176 49.8379 63.0031 52.3817L63.0074 52.3829C63.0074 52.3829 55.2498 65.4737 56.5223 76.1419L56.5255 76.1407C56.885 78.2657 57.5758 80.2762 58.5765 82.1096C58.9873 82.8637 62.6325 89.43 65.6481 94.7245C66.6891 96.5511 68.5163 97.7821 70.7356 98.152C72.9548 98.522 75.3882 98.0011 77.5107 96.7019L77.5107 96.7019C78.5773 96.0492 79.5333 95.2194 80.3238 94.2602C81.1142 93.301 81.7235 92.2313 82.1166 91.1127C82.5097 89.994 82.6788 88.8486 82.6142 87.7422C82.5495 86.6358 82.2525 85.5902 81.7401 84.6658C79.0342 79.7827 75.9049 74.0837 75.6791 73.6693C72.8072 68.3978 75.7876 59.5711 78.7203 53.2098C82.0973 45.8847 83.1454 38.0767 81.4394 31.0363C81.1128 29.5718 80.6112 28.1742 79.9438 26.8688C78.0127 23.324 75.2948 20.3073 71.9469 17.9924C68.599 15.6775 64.6871 14.1102 60.4368 13.3809C56.1864 12.6515 51.6815 12.7745 47.1817 13.7428C42.6818 14.711 38.276 16.5054 34.218 19.0224Z" fill="#8E8BDE"/>
<path d="M31.2815 64.0078C29.2006 65.2807 26.813 65.782 24.6438 65.4014C22.4747 65.0208 20.7017 63.7894 19.7147 61.978C19.0416 60.7427 18.528 59.7975 18.457 59.6619C16.2178 55.3899 15.1774 50.484 15.4222 45.3513C14.1077 52.1096 14.9723 58.7392 17.8962 64.3229C17.9672 64.4586 18.4807 65.4037 19.1539 66.6391C20.1408 68.4504 21.9139 69.6818 24.083 70.0624C26.2521 70.4431 28.6398 69.9418 30.7207 68.6688C32.4303 67.622 33.8282 66.1182 34.7022 64.3856C35.5761 62.6531 35.8784 60.7867 35.5629 59.0698C34.7372 61.0703 33.2123 62.8291 31.2815 64.0078Z" fill="#3F3D56"/>
<path d="M42.5893 33.0897C45.0493 31.7178 47.7216 30.8917 50.3767 30.6824C53.0318 30.473 55.5904 30.8867 57.8327 31.8877C60.0751 32.8888 61.9342 34.4474 63.2504 36.4298C64.5667 38.4121 65.3008 40.759 65.3897 43.2688C66.0041 41.0023 66.1183 38.7171 65.7244 36.5688C65.3305 34.4206 64.4379 32.4598 63.1073 30.8203C61.7768 29.1808 60.0396 27.901 58.0141 27.0682C55.9887 26.2354 53.7227 25.8692 51.3707 25.9946C49.0186 26.1199 46.6357 26.7339 44.3845 27.7945C42.1333 28.8552 40.0667 30.3377 38.3256 32.141C36.5845 33.9442 35.2098 36.0257 34.2953 38.2437C33.3807 40.4617 32.9479 42.764 33.0261 44.9935C33.6774 42.5838 34.8783 40.2573 36.5364 38.1934C38.1944 36.1295 40.2653 34.3834 42.5893 33.0897Z" fill="#3F3D56"/>
<path d="M77.9646 92.1166C75.8421 93.4158 73.4088 93.9366 71.1896 93.5667C68.9703 93.1968 67.1431 91.9657 66.1021 90.1392C63.0865 84.8447 59.4413 78.2784 59.0305 77.5244C58.0298 75.6909 57.339 73.6804 56.9795 71.5554L56.9764 71.5565C56.849 70.4575 56.8078 69.3371 56.8533 68.2043C56.2919 70.9076 56.1443 73.6084 56.4155 76.2176L56.4187 76.2165C56.7782 78.3415 57.469 80.3519 58.4697 82.1854C58.8804 82.9394 62.5256 89.5057 65.5413 94.8003C66.5823 96.6268 68.4095 97.8578 70.6287 98.2277C72.848 98.5977 75.2813 98.0768 77.4038 96.7776C79.1539 95.7065 80.5876 94.1702 81.4898 92.3994C82.3921 90.6286 82.7142 88.7186 82.408 86.9559C81.5638 89.0465 79.9788 90.8875 77.9646 92.1166Z" fill="#3F3D56"/>
<path d="M89.7698 123.955C87.9366 124.308 86.1149 124.256 84.4483 123.801C82.7817 123.346 81.316 122.501 80.1666 121.334C79.0173 120.166 78.2159 118.707 77.8257 117.072C77.4355 115.438 77.4671 113.672 77.918 111.914C77.1173 113.442 76.6394 115.063 76.5162 116.669C76.393 118.275 76.6273 119.83 77.2035 121.23C77.7796 122.631 78.6845 123.844 79.8581 124.791C81.0316 125.737 82.447 126.395 84.0102 126.72C85.5735 127.045 87.2489 127.031 88.9253 126.677C90.6016 126.323 92.2405 125.639 93.7333 124.669C95.226 123.699 96.5385 122.466 97.5835 121.052C98.6285 119.637 99.3822 118.074 99.7945 116.465C98.8094 118.347 97.3656 120.028 95.6068 121.342C93.8479 122.656 91.8354 123.557 89.7698 123.955Z" fill="#3F3D56"/>
</svg>
